<?xml version="1.0" encoding="UTF-8"?><svg id="Layer_1" xmlns="http://www.w3.org/2000/svg" viewBox="0 0 803 111"><defs><style>.cls-1{stroke:#484545;}.cls-1,.cls-2{fill:none;stroke-linecap:round;stroke-linejoin:round;}.cls-2{stroke:#fff;}.cls-3{fill:#75cee1;}.cls-4{fill:#7f7f7f;isolation:isolate;}.cls-5{fill:#5d5e5e;}</style></defs><rect class="cls-3" x="30.76" y="4.57" width="150.29" height="50.24"/><rect class="cls-4" x="181.05" y="4.57" width="249.59" height="50.24"/><line class="cls-2" x1="30.88" y1="4.65" x2="430.27" y2="4.65"/><line class="cls-2" x1="30.88" y1="44.81" x2="30.88" y2="4.65"/><line class="cls-2" x1="80.95" y1="44.81" x2="80.95" y2="4.65"/><line class="cls-2" x1="130.94" y1="44.81" x2="130.94" y2="4.65"/><line class="cls-2" x1="180.94" y1="44.81" x2="180.94" y2="4.65"/><line class="cls-2" x1="230.93" y1="44.81" x2="230.93" y2="4.65"/><line class="cls-2" x1="280.96" y1="44.81" x2="280.96" y2="4.65"/><line class="cls-2" x1="330.95" y1="44.81" x2="330.95" y2="4.65"/><line class="cls-2" x1="380.94" y1="44.81" x2="380.94" y2="4.65"/><line class="cls-2" x1="430.6" y1="44.81" x2="430.6" y2="4.65"/><line class="cls-1" x1="30.96" y1="54.89" x2="540.4" y2="54.89"/><line class="cls-1" x1="30.88" y1="64.46" x2="30.88" y2="44.66"/><line class="cls-1" x1="80.95" y1="64.46" x2="80.95" y2="44.66"/><line class="cls-1" x1="130.94" y1="64.46" x2="130.94" y2="44.66"/><line class="cls-1" x1="180.94" y1="64.46" x2="180.94" y2="44.66"/><line class="cls-1" x1="230.93" y1="64.46" x2="230.93" y2="44.66"/><line class="cls-1" x1="280.96" y1="64.46" x2="280.96" y2="44.66"/><line class="cls-1" x1="330.95" y1="64.46" x2="330.95" y2="44.66"/><line class="cls-1" x1="380.94" y1="64.46" x2="380.94" y2="44.66"/><line class="cls-1" x1="430.6" y1="64.46" x2="430.6" y2="44.66"/><line class="cls-1" x1="480.64" y1="64.46" x2="480.64" y2="44.66"/><line class="cls-1" x1="530.71" y1="64.46" x2="530.71" y2="44.66"/><g><path class="cls-5" d="M14.37,102.64c0-.45-.16-.83-.49-1.14-.33-.31-.9-.57-1.72-.78-1.02-.25-1.81-.62-2.38-1.11-.57-.49-.86-1.11-.86-1.85,0-.78,.31-1.44,.92-1.96s1.41-.78,2.39-.78c1.05,0,1.89,.3,2.52,.9,.62,.6,.93,1.3,.91,2.09l-.02,.04h-1.29c0-.57-.2-1.04-.59-1.41-.4-.37-.9-.56-1.52-.56s-1.12,.15-1.45,.46-.5,.71-.5,1.2c0,.44,.18,.8,.55,1.09,.37,.29,.97,.55,1.8,.77,1.01,.26,1.78,.65,2.3,1.16s.79,1.14,.79,1.88c0,.81-.32,1.46-.95,1.95s-1.46,.74-2.49,.74c-.97,0-1.82-.27-2.56-.81-.74-.54-1.1-1.26-1.08-2.17v-.04h1.31c0,.63,.24,1.11,.71,1.45,.48,.34,1.01,.51,1.62,.51,.64,0,1.15-.14,1.52-.43,.37-.29,.56-.68,.56-1.17Z"/><path class="cls-5" d="M19.34,95.93v1.79h1.41v1h-1.41v4.52c0,.35,.07,.59,.22,.74,.14,.14,.34,.21,.57,.21,.08,0,.17,0,.26-.03,.1-.02,.18-.04,.24-.07l.19,.93c-.1,.08-.25,.15-.45,.2s-.39,.08-.58,.08c-.55,0-.99-.17-1.31-.5-.33-.33-.49-.85-.49-1.56v-4.52h-1.18v-1h1.18v-1.79h1.35Z"/><path class="cls-5" d="M26.77,105.16c-.05-.22-.08-.42-.11-.59-.02-.17-.04-.34-.04-.52-.25,.36-.58,.66-.99,.9-.41,.24-.84,.36-1.31,.36-.77,0-1.37-.2-1.77-.59s-.61-.94-.61-1.64,.29-1.27,.86-1.67c.57-.4,1.35-.6,2.34-.6h1.47v-.74c0-.44-.13-.78-.4-1.03-.27-.25-.64-.38-1.13-.38-.44,0-.79,.11-1.07,.33s-.41,.48-.41,.79h-1.29s-.01-.03-.01-.03c-.03-.54,.22-1.04,.76-1.48s1.23-.67,2.09-.67,1.52,.21,2.04,.64c.51,.43,.77,1.05,.77,1.85v3.58c0,.27,.01,.52,.04,.77,.03,.25,.08,.49,.15,.73h-1.39Zm-2.25-.99c.49,0,.93-.13,1.33-.38,.39-.25,.65-.54,.77-.87v-1.21h-1.52c-.54,0-.98,.14-1.31,.41-.33,.27-.49,.6-.49,.97,0,.33,.1,.59,.31,.78,.21,.19,.51,.29,.91,.29Z"/><path class="cls-5" d="M33.46,98.92l-.69-.04c-.36,0-.66,.08-.9,.25-.25,.17-.43,.41-.57,.71v5.31h-1.35v-7.44h1.21l.13,1.09c.21-.38,.47-.69,.78-.9,.31-.22,.67-.32,1.07-.32,.1,0,.2,0,.29,.02,.09,.02,.17,.03,.23,.05l-.19,1.26Z"/><path class="cls-5" d="M36.86,95.93v1.79h1.41v1h-1.41v4.52c0,.35,.07,.59,.22,.74,.14,.14,.34,.21,.57,.21,.08,0,.17,0,.26-.03,.1-.02,.18-.04,.24-.07l.19,.93c-.1,.08-.25,.15-.45,.2s-.39,.08-.58,.08c-.55,0-.99-.17-1.31-.5-.33-.33-.49-.85-.49-1.56v-4.52h-1.18v-1h1.18v-1.79h1.35Z"/><path class="cls-5" d="M44.76,101.15v4.01h-1.35v-10.01h3.83c1.07,0,1.9,.28,2.49,.83s.89,1.27,.89,2.17-.3,1.63-.89,2.18c-.59,.54-1.42,.82-2.49,.82h-2.47Zm0-1.06h2.47c.68,0,1.18-.18,1.52-.55,.33-.36,.5-.82,.5-1.38s-.17-1.02-.51-1.39c-.34-.37-.84-.56-1.52-.56h-2.47v3.87Z"/><path class="cls-5" d="M55.69,98.92l-.69-.04c-.36,0-.66,.08-.9,.25-.25,.17-.43,.41-.57,.71v5.31h-1.35v-7.44h1.21l.13,1.09c.21-.38,.47-.69,.78-.9,.31-.22,.67-.32,1.07-.32,.1,0,.2,0,.29,.02,.09,.02,.17,.03,.23,.05l-.19,1.26Z"/><path class="cls-5" d="M60.05,105.3c-1.07,0-1.9-.34-2.5-1.02-.6-.68-.9-1.58-.9-2.69v-.3c0-1.07,.31-1.95,.92-2.65,.62-.7,1.37-1.05,2.26-1.05,.99,0,1.74,.31,2.24,.93,.5,.62,.75,1.44,.75,2.47v.71h-4.76l-.02,.04c0,.75,.17,1.35,.49,1.82,.33,.47,.83,.7,1.51,.7,.46,0,.86-.07,1.21-.2,.35-.13,.64-.31,.89-.54l.53,.88c-.27,.26-.62,.47-1.05,.65-.44,.18-.96,.26-1.57,.26Zm-.21-6.65c-.47,0-.86,.18-1.17,.55-.31,.36-.5,.83-.57,1.4v.03h3.37v-.11c0-.54-.13-.99-.4-1.34s-.68-.53-1.23-.53Z"/><path class="cls-5" d="M68.56,101.46h-4.06v-1.06h4.06v1.06Z"/><path class="cls-5" d="M74.21,98.92l-.69-.04c-.36,0-.66,.08-.9,.25-.25,.17-.43,.41-.57,.71v5.31h-1.35v-7.44h1.21l.13,1.09c.21-.38,.47-.69,.78-.9,.31-.22,.67-.32,1.07-.32,.1,0,.2,0,.29,.02,.09,.02,.17,.03,.23,.05l-.19,1.26Z"/><path class="cls-5" d="M80.34,104.06c-.23,.4-.53,.71-.9,.92-.37,.22-.79,.32-1.27,.32-.81,0-1.44-.26-1.9-.78-.45-.52-.68-1.32-.68-2.42v-4.39h1.35v4.4c0,.79,.12,1.34,.35,1.64s.6,.45,1.09,.45,.88-.1,1.19-.29c.31-.19,.55-.47,.71-.83v-5.36h1.35v7.44h-1.22l-.09-1.1Z"/><path class="cls-5" d="M84.82,97.72l.1,1.11c.25-.39,.56-.7,.93-.92,.37-.22,.8-.33,1.28-.33,.8,0,1.42,.24,1.86,.7,.44,.47,.66,1.2,.66,2.18v4.7h-1.35v-4.67c0-.66-.13-1.12-.39-1.4-.26-.28-.65-.41-1.19-.41-.42,0-.77,.08-1.06,.25-.29,.17-.52,.4-.69,.71v5.52h-1.35v-7.44h1.21Z"/></g><g><path class="cls-5" d="M23.17,67.85v1.79h1.41v1h-1.41v4.52c0,.35,.07,.59,.22,.74,.14,.14,.34,.21,.57,.21,.08,0,.17,0,.26-.03,.1-.02,.18-.04,.24-.07l.19,.93c-.1,.08-.25,.15-.45,.2s-.39,.08-.58,.08c-.55,0-.99-.17-1.31-.5-.33-.33-.49-.85-.49-1.56v-4.52h-1.18v-1h1.18v-1.79h1.35Z"/><path class="cls-5" d="M35.32,71.42h-5.73v-1.13h5.73v1.13Zm0,2.86h-5.73v-1.13h5.73v1.13Z"/><path class="cls-5" d="M47.12,73.55c0,1.13-.29,2.03-.86,2.69s-1.35,.99-2.32,.99-1.74-.33-2.32-.99c-.58-.66-.87-1.56-.87-2.69v-2.94c0-1.12,.29-2.02,.86-2.68s1.35-1,2.31-1,1.75,.33,2.33,1,.87,1.56,.87,2.68v2.94Zm-1.35-3.22c0-.72-.16-1.29-.48-1.71-.32-.42-.77-.63-1.36-.63s-1.03,.21-1.35,.63-.47,.99-.47,1.71v3.5c0,.72,.16,1.29,.48,1.71,.32,.42,.77,.63,1.35,.63s1.04-.21,1.35-.63c.32-.42,.47-.99,.47-1.71v-3.5Z"/><path class="cls-5" d="M53.2,75.08c0-.3-.11-.54-.34-.73-.23-.19-.66-.35-1.29-.5-.88-.19-1.55-.45-2.02-.79-.47-.34-.71-.79-.71-1.36,0-.6,.26-1.12,.77-1.55s1.18-.65,2-.65,1.53,.23,2.05,.69,.77,.99,.75,1.6v.04h-1.31c0-.32-.14-.61-.42-.87-.28-.26-.64-.39-1.07-.39-.48,0-.83,.11-1.07,.32-.24,.22-.35,.47-.35,.77s.1,.52,.31,.68,.62,.31,1.26,.44c.91,.19,1.6,.46,2.08,.82,.47,.35,.71,.81,.71,1.38,0,.66-.27,1.2-.8,1.62-.53,.42-1.23,.63-2.09,.63-.95,0-1.7-.24-2.24-.72-.55-.48-.8-1.04-.78-1.68v-.04h1.31c.02,.48,.2,.83,.54,1.05,.33,.22,.73,.33,1.17,.33,.48,0,.86-.1,1.13-.31,.27-.2,.41-.46,.41-.78Z"/></g><g><path class="cls-5" d="M171.42,67.85v1.79h1.41v1h-1.41v4.52c0,.35,.07,.59,.22,.74,.14,.14,.34,.21,.57,.21,.08,0,.17,0,.26-.03,.1-.02,.18-.04,.24-.07l.19,.93c-.1,.08-.25,.15-.45,.2s-.39,.08-.58,.08c-.55,0-.99-.17-1.31-.5-.33-.33-.49-.85-.49-1.56v-4.52h-1.18v-1h1.18v-1.79h1.35Z"/><path class="cls-5" d="M183.57,71.42h-5.73v-1.13h5.73v1.13Zm0,2.86h-5.73v-1.13h5.73v1.13Z"/><path class="cls-5" d="M192.2,71.39c.6,0,1.03-.15,1.28-.45,.25-.3,.38-.72,.38-1.26,0-.5-.14-.91-.41-1.22-.27-.31-.68-.46-1.21-.46s-.96,.16-1.3,.49c-.34,.32-.51,.73-.51,1.21h-1.29l-.02-.04c-.02-.75,.26-1.39,.85-1.92s1.35-.8,2.27-.8,1.66,.24,2.19,.71c.53,.47,.79,1.16,.79,2.07,0,.47-.12,.89-.37,1.28-.25,.39-.59,.69-1.03,.9,.5,.2,.89,.51,1.15,.92s.4,.91,.4,1.49c0,.92-.29,1.63-.87,2.16s-1.33,.78-2.26,.78c-.85,0-1.6-.25-2.25-.75-.65-.5-.96-1.17-.94-1.99v-.04h1.31c0,.49,.18,.89,.53,1.23,.35,.33,.8,.5,1.36,.5s.98-.17,1.3-.51c.32-.34,.47-.79,.47-1.34,0-.63-.15-1.1-.44-1.41s-.75-.47-1.37-.47h-1.11v-1.05h1.11Z"/><path class="cls-5" d="M201.45,75.08c0-.3-.11-.54-.34-.73-.23-.19-.66-.35-1.29-.5-.88-.19-1.55-.45-2.02-.79-.47-.34-.71-.79-.71-1.36,0-.6,.26-1.12,.77-1.55s1.18-.65,2-.65,1.53,.23,2.05,.69,.77,.99,.75,1.6v.04h-1.31c0-.32-.14-.61-.42-.87-.28-.26-.64-.39-1.07-.39-.48,0-.83,.11-1.07,.32-.24,.22-.35,.47-.35,.77s.1,.52,.31,.68,.62,.31,1.26,.44c.91,.19,1.6,.46,2.08,.82,.47,.35,.71,.81,.71,1.38,0,.66-.27,1.2-.8,1.62-.53,.42-1.23,.63-2.09,.63-.95,0-1.7-.24-2.24-.72-.55-.48-.8-1.04-.78-1.68v-.04h1.31c.02,.48,.2,.83,.54,1.05,.33,.22,.73,.33,1.17,.33,.48,0,.86-.1,1.13-.31,.27-.2,.41-.46,.41-.78Z"/></g><g><path class="cls-5" d="M421.78,67.85v1.79h1.41v1h-1.41v4.52c0,.35,.07,.59,.22,.74,.14,.14,.34,.21,.57,.21,.08,0,.17,0,.26-.03,.1-.02,.18-.04,.24-.07l.19,.93c-.1,.08-.25,.15-.45,.2s-.39,.08-.58,.08c-.55,0-.99-.17-1.31-.5-.33-.33-.49-.85-.49-1.56v-4.52h-1.18v-1h1.18v-1.79h1.35Z"/><path class="cls-5" d="M433.94,71.42h-5.73v-1.13h5.73v1.13Zm0,2.86h-5.73v-1.13h5.73v1.13Z"/><path class="cls-5" d="M445.53,69.63c0,.52-.15,.98-.44,1.38s-.68,.69-1.17,.89c.57,.2,1.02,.51,1.37,.94s.52,.93,.52,1.49c0,.92-.3,1.63-.9,2.14-.6,.5-1.36,.76-2.29,.76-.98,0-1.78-.25-2.4-.76-.62-.5-.93-1.22-.93-2.14,0-.56,.17-1.06,.53-1.49s.82-.75,1.42-.95c-.51-.19-.92-.49-1.22-.88s-.45-.86-.45-1.38c0-.88,.28-1.54,.84-2.01s1.29-.69,2.2-.69c.85,0,1.55,.23,2.1,.7s.82,1.13,.82,2Zm-1.07,4.67c0-.54-.18-.99-.53-1.35-.36-.35-.79-.53-1.32-.53-.57,0-1.04,.18-1.41,.53-.37,.35-.56,.8-.56,1.35s.18,1.02,.55,1.35c.37,.34,.84,.51,1.43,.51,.52,0,.96-.17,1.31-.51,.35-.34,.53-.79,.53-1.35Zm-.28-4.65c0-.48-.15-.88-.45-1.19-.3-.31-.67-.47-1.12-.47-.49,0-.89,.15-1.21,.45-.32,.3-.47,.7-.47,1.21s.16,.92,.48,1.24c.32,.32,.73,.47,1.22,.47,.44,0,.81-.16,1.11-.47,.29-.32,.44-.73,.44-1.24Z"/><path class="cls-5" d="M451.82,75.08c0-.3-.11-.54-.34-.73-.23-.19-.66-.35-1.29-.5-.88-.19-1.55-.45-2.02-.79-.47-.34-.71-.79-.71-1.36,0-.6,.26-1.12,.77-1.55s1.18-.65,2-.65,1.53,.23,2.05,.69,.77,.99,.75,1.6v.04h-1.31c0-.32-.14-.61-.42-.87-.28-.26-.64-.39-1.07-.39-.48,0-.83,.11-1.07,.32-.24,.22-.35,.47-.35,.77s.1,.52,.31,.68,.62,.31,1.26,.44c.91,.19,1.6,.46,2.08,.82,.47,.35,.71,.81,.71,1.38,0,.66-.27,1.2-.8,1.62-.53,.42-1.23,.63-2.09,.63-.95,0-1.7-.24-2.24-.72-.55-.48-.8-1.04-.78-1.68v-.04h1.31c.02,.48,.2,.83,.54,1.05,.33,.22,.73,.33,1.17,.33,.48,0,.86-.1,1.13-.31,.27-.2,.41-.46,.41-.78Z"/></g><g><path class="cls-5" d="M160.83,102.64c0-.45-.16-.83-.49-1.14-.33-.31-.9-.57-1.72-.78-1.02-.25-1.81-.62-2.38-1.11-.57-.49-.86-1.11-.86-1.85,0-.78,.31-1.44,.92-1.96,.61-.52,1.41-.78,2.39-.78,1.05,0,1.89,.3,2.52,.9,.62,.6,.93,1.3,.91,2.09l-.02,.04h-1.29c0-.57-.2-1.04-.6-1.41-.4-.37-.9-.56-1.52-.56s-1.12,.15-1.46,.46c-.34,.31-.5,.71-.5,1.2,0,.44,.18,.8,.55,1.09,.37,.29,.97,.55,1.8,.77,1.01,.26,1.78,.65,2.3,1.16s.79,1.14,.79,1.88c0,.81-.32,1.46-.95,1.95s-1.46,.74-2.49,.74c-.97,0-1.82-.27-2.56-.81-.74-.54-1.1-1.26-1.08-2.17l.02-.04h1.29c0,.63,.24,1.11,.71,1.45,.48,.34,1.02,.51,1.62,.51,.64,0,1.15-.14,1.52-.43,.37-.29,.56-.68,.56-1.17Z"/><path class="cls-5" d="M165.8,95.93v1.79h1.41v1h-1.41v4.52c0,.35,.07,.59,.22,.74,.14,.14,.34,.21,.57,.21,.08,0,.17,0,.26-.03s.18-.04,.24-.07l.19,.93c-.1,.08-.25,.15-.45,.2s-.39,.08-.58,.08c-.55,0-.99-.17-1.31-.5-.33-.33-.49-.85-.49-1.56v-4.52h-1.18v-1h1.18v-1.79h1.35Z"/><path class="cls-5" d="M173.23,105.16c-.04-.22-.08-.42-.11-.59-.02-.17-.04-.34-.04-.52-.25,.36-.58,.66-.99,.9-.41,.24-.84,.36-1.31,.36-.77,0-1.37-.2-1.77-.59-.41-.4-.61-.94-.61-1.64s.29-1.27,.86-1.67c.57-.4,1.36-.6,2.34-.6h1.47v-.74c0-.44-.13-.78-.4-1.03-.27-.25-.64-.38-1.13-.38-.44,0-.79,.11-1.06,.33-.27,.22-.41,.48-.41,.79h-1.29s-.01-.03-.01-.03c-.03-.54,.22-1.04,.76-1.48,.54-.45,1.23-.67,2.09-.67s1.52,.21,2.04,.64c.51,.43,.77,1.05,.77,1.85v3.58c0,.27,.01,.52,.04,.77,.03,.25,.08,.49,.15,.73h-1.39Zm-2.25-.99c.49,0,.93-.13,1.33-.38,.39-.25,.65-.54,.77-.87v-1.21h-1.52c-.54,0-.98,.14-1.31,.41-.33,.27-.49,.6-.49,.97,0,.33,.1,.59,.31,.78s.51,.29,.91,.29Z"/><path class="cls-5" d="M179.92,98.92l-.7-.04c-.36,0-.66,.08-.9,.25-.24,.17-.43,.41-.57,.71v5.31h-1.35v-7.44h1.21l.13,1.09c.21-.38,.47-.69,.78-.9,.31-.22,.67-.32,1.07-.32,.1,0,.2,0,.29,.02,.09,.02,.17,.03,.23,.05l-.19,1.26Z"/><path class="cls-5" d="M183.33,95.93v1.79h1.41v1h-1.41v4.52c0,.35,.07,.59,.22,.74,.14,.14,.34,.21,.57,.21,.08,0,.16,0,.26-.03,.1-.02,.18-.04,.24-.07l.19,.93c-.1,.08-.25,.15-.45,.2s-.39,.08-.58,.08c-.55,0-.99-.17-1.31-.5-.32-.33-.49-.85-.49-1.56v-4.52h-1.18v-1h1.18v-1.79h1.35Z"/><path class="cls-5" d="M191.23,100.82v4.34h-1.35v-10h3.42c1.1,0,1.93,.24,2.51,.73,.58,.49,.87,1.19,.87,2.12,0,.51-.13,.96-.4,1.34-.27,.38-.66,.68-1.17,.91,.55,.18,.95,.47,1.19,.87,.24,.4,.36,.9,.36,1.49v.94c0,.31,.04,.59,.1,.84,.07,.25,.19,.45,.36,.6v.17h-1.39c-.18-.16-.29-.38-.34-.69-.05-.3-.08-.61-.08-.93v-.91c0-.54-.16-.98-.47-1.31s-.74-.5-1.27-.5h-2.32Zm0-1.07h1.93c.77,0,1.32-.15,1.65-.44,.34-.29,.51-.73,.51-1.33,0-.56-.16-1-.49-1.31-.33-.31-.84-.46-1.53-.46h-2.07v3.54Z"/><path class="cls-5" d="M201.73,105.3c-1.07,0-1.9-.34-2.5-1.02s-.9-1.58-.9-2.69v-.3c0-1.07,.31-1.95,.92-2.65,.62-.7,1.37-1.05,2.26-1.05,.99,0,1.74,.31,2.24,.93,.5,.62,.75,1.44,.75,2.47v.71h-4.76l-.02,.04c0,.75,.16,1.35,.49,1.82,.33,.47,.83,.7,1.51,.7,.46,0,.86-.07,1.21-.2s.64-.31,.89-.54l.53,.88c-.27,.26-.62,.47-1.05,.65-.44,.18-.96,.26-1.57,.26Zm-.21-6.65c-.47,0-.86,.18-1.17,.55s-.5,.83-.57,1.4v.03h3.37v-.11c0-.54-.13-.99-.4-1.34s-.68-.53-1.23-.53Z"/><path class="cls-5" d="M208.97,104.25c.42,0,.78-.14,1.09-.42,.31-.28,.47-.62,.47-1.02h1.22l.02,.04c.02,.64-.26,1.21-.82,1.71-.57,.5-1.23,.75-1.98,.75-1.04,0-1.85-.36-2.42-1.07-.57-.71-.85-1.59-.85-2.65v-.29c0-1.05,.29-1.93,.86-2.64,.57-.71,1.38-1.07,2.42-1.07,.83,0,1.51,.26,2.04,.77,.53,.51,.79,1.14,.77,1.89v.04h-1.24c0-.45-.15-.84-.44-1.16s-.67-.48-1.12-.48c-.66,0-1.15,.26-1.45,.77-.31,.52-.46,1.14-.46,1.87v.29c0,.75,.15,1.38,.45,1.89,.3,.51,.79,.77,1.46,.77Z"/><path class="cls-5" d="M213.07,101.37c0-1.1,.3-2.01,.89-2.72,.6-.71,1.4-1.07,2.43-1.07s1.85,.36,2.44,1.07,.9,1.62,.9,2.72v.15c0,1.11-.3,2.02-.89,2.72-.6,.71-1.41,1.06-2.43,1.06s-1.84-.35-2.44-1.06-.9-1.61-.9-2.72v-.15Zm1.35,.15c0,.79,.17,1.44,.5,1.95,.33,.51,.83,.77,1.48,.77s1.13-.26,1.47-.77c.33-.51,.5-1.16,.5-1.95v-.15c0-.78-.17-1.43-.51-1.95-.34-.52-.83-.78-1.48-.78s-1.14,.26-1.47,.78c-.33,.52-.5,1.17-.5,1.95v.15Z"/><path class="cls-5" d="M224.91,98.92l-.69-.04c-.36,0-.66,.08-.9,.25-.25,.17-.44,.41-.57,.71v5.31h-1.35v-7.44h1.21l.13,1.09c.21-.38,.47-.69,.78-.9,.31-.22,.67-.32,1.07-.32,.1,0,.2,0,.29,.02,.09,.02,.17,.03,.23,.05l-.19,1.26Z"/><path class="cls-5" d="M225.88,101.58c0-1.2,.26-2.16,.77-2.89,.51-.73,1.23-1.1,2.15-1.1,.44,0,.82,.08,1.16,.24,.34,.16,.62,.39,.86,.7v-4.09h1.36v10.72h-1.04l-.21-.94c-.24,.36-.54,.63-.9,.81-.36,.18-.77,.28-1.24,.28-.91,0-1.62-.33-2.13-.99-.51-.66-.77-1.52-.77-2.6v-.14Zm1.36,.14c0,.75,.15,1.35,.46,1.8s.79,.68,1.43,.68c.4,0,.74-.09,1.02-.28s.5-.44,.67-.77v-3.47c-.17-.31-.4-.55-.68-.73-.28-.18-.61-.27-1-.27-.65,0-1.13,.27-1.44,.8s-.46,1.23-.46,2.09v.14Z"/><path class="cls-5" d="M235.65,95.82h-1.35v-1.38h1.35v1.38Zm0,9.34h-1.35v-7.44h1.35v7.44Z"/><path class="cls-5" d="M238.94,97.72l.1,1.11c.25-.39,.56-.7,.93-.92,.37-.22,.8-.33,1.28-.33,.8,0,1.42,.24,1.86,.7,.44,.47,.66,1.2,.66,2.18v4.7h-1.36v-4.67c0-.66-.13-1.12-.39-1.4-.26-.28-.65-.41-1.19-.41-.42,0-.77,.08-1.06,.25-.29,.17-.52,.4-.69,.71v5.52h-1.35v-7.44h1.21Z"/><path class="cls-5" d="M245.49,101.58c0-1.2,.26-2.16,.77-2.89,.51-.73,1.22-1.1,2.14-1.1,.47,0,.89,.09,1.24,.29s.66,.46,.9,.82l.16-.97h1.08v7.48c0,.95-.28,1.69-.83,2.2s-1.35,.77-2.4,.77c-.36,0-.74-.05-1.16-.15-.42-.1-.78-.23-1.1-.4l.21-1.05c.26,.14,.58,.25,.95,.33s.73,.13,1.09,.13c.66,0,1.14-.15,1.44-.45,.3-.3,.45-.76,.45-1.37v-.85c-.24,.31-.53,.55-.87,.71-.34,.16-.73,.24-1.17,.24-.91,0-1.62-.33-2.13-.99-.51-.66-.77-1.52-.77-2.6v-.14Zm1.35,.14c0,.75,.15,1.35,.46,1.8,.31,.45,.78,.68,1.42,.68,.41,0,.75-.09,1.02-.28,.28-.19,.5-.45,.68-.79v-3.42c-.17-.32-.4-.57-.68-.75s-.62-.28-1.01-.28c-.65,0-1.12,.27-1.43,.8-.31,.54-.46,1.23-.46,2.09v.14Z"/></g><g><path class="cls-5" d="M410.87,102.64c0-.45-.16-.83-.49-1.14-.33-.31-.9-.57-1.72-.78-1.02-.25-1.81-.62-2.38-1.11-.57-.49-.86-1.11-.86-1.85,0-.78,.31-1.44,.92-1.96s1.41-.78,2.39-.78c1.05,0,1.89,.3,2.52,.9,.62,.6,.93,1.3,.91,2.09l-.02,.04h-1.29c0-.57-.2-1.04-.59-1.41-.4-.37-.9-.56-1.52-.56s-1.12,.15-1.45,.46-.5,.71-.5,1.2c0,.44,.18,.8,.55,1.09,.37,.29,.97,.55,1.8,.77,1.01,.26,1.78,.65,2.3,1.16s.79,1.14,.79,1.88c0,.81-.32,1.46-.95,1.95s-1.46,.74-2.49,.74c-.97,0-1.82-.27-2.56-.81-.74-.54-1.1-1.26-1.08-2.17v-.04h1.31c0,.63,.24,1.11,.71,1.45,.48,.34,1.01,.51,1.62,.51,.64,0,1.15-.14,1.52-.43,.37-.29,.56-.68,.56-1.17Z"/><path class="cls-5" d="M415.84,95.93v1.79h1.41v1h-1.41v4.52c0,.35,.07,.59,.22,.74,.14,.14,.34,.21,.57,.21,.08,0,.17,0,.26-.03,.1-.02,.18-.04,.24-.07l.19,.93c-.1,.08-.25,.15-.45,.2s-.39,.08-.58,.08c-.55,0-.99-.17-1.31-.5-.33-.33-.49-.85-.49-1.56v-4.52h-1.18v-1h1.18v-1.79h1.35Z"/><path class="cls-5" d="M418.38,101.37c0-1.1,.3-2.01,.89-2.72,.6-.71,1.4-1.07,2.43-1.07s1.85,.36,2.44,1.07,.9,1.62,.9,2.72v.15c0,1.11-.3,2.02-.89,2.72-.6,.71-1.41,1.06-2.43,1.06s-1.84-.35-2.44-1.06c-.6-.71-.9-1.61-.9-2.72v-.15Zm1.35,.15c0,.79,.17,1.44,.5,1.95,.33,.51,.83,.77,1.48,.77s1.14-.26,1.47-.77c.33-.51,.5-1.16,.5-1.95v-.15c0-.78-.17-1.43-.5-1.95-.34-.52-.83-.78-1.48-.78s-1.14,.26-1.47,.78c-.33,.52-.5,1.17-.5,1.95v.15Z"/><path class="cls-5" d="M433.04,101.72c0,1.07-.26,1.94-.77,2.6-.51,.66-1.22,.99-2.12,.99-.46,0-.86-.08-1.21-.23-.35-.15-.64-.38-.88-.69v3.64h-1.35v-10.3h1.04l.21,.96c.24-.36,.54-.63,.91-.82,.36-.19,.78-.28,1.26-.28,.92,0,1.64,.37,2.15,1.1,.51,.73,.77,1.7,.77,2.9v.14Zm-1.35-.14c0-.84-.17-1.54-.5-2.08-.33-.54-.82-.81-1.47-.81-.39,0-.72,.09-1,.26-.28,.18-.5,.42-.67,.73v3.59c.17,.31,.39,.55,.67,.72s.61,.26,1.01,.26c.64,0,1.13-.24,1.46-.71s.5-1.08,.5-1.82v-.14Z"/><path class="cls-5" d="M439.74,100.82v4.34h-1.35v-10h3.42c1.1,0,1.93,.24,2.51,.73,.58,.49,.87,1.19,.87,2.12,0,.51-.13,.96-.4,1.34-.27,.38-.66,.68-1.17,.91,.55,.18,.95,.47,1.19,.87,.24,.4,.36,.9,.36,1.49v.94c0,.31,.03,.59,.1,.84,.07,.25,.19,.45,.36,.6v.17h-1.4c-.18-.16-.29-.38-.34-.69-.05-.3-.08-.61-.08-.93v-.91c0-.54-.16-.98-.47-1.31-.32-.33-.74-.5-1.27-.5h-2.32Zm0-1.07h1.93c.77,0,1.32-.15,1.65-.44s.51-.73,.51-1.33c0-.56-.16-1-.49-1.31-.33-.31-.84-.46-1.53-.46h-2.07v3.54Z"/><path class="cls-5" d="M450.24,105.3c-1.07,0-1.9-.34-2.5-1.02-.6-.68-.9-1.58-.9-2.69v-.3c0-1.07,.31-1.95,.92-2.65,.62-.7,1.37-1.05,2.26-1.05,.99,0,1.74,.31,2.24,.93,.5,.62,.75,1.44,.75,2.47v.71h-4.76l-.02,.04c0,.75,.17,1.35,.49,1.82,.33,.47,.83,.7,1.51,.7,.46,0,.86-.07,1.21-.2,.35-.13,.64-.31,.89-.54l.53,.88c-.27,.26-.62,.47-1.05,.65-.44,.18-.96,.26-1.57,.26Zm-.21-6.65c-.47,0-.86,.18-1.17,.55-.31,.36-.5,.83-.57,1.4v.03h3.37v-.11c0-.54-.13-.99-.4-1.34s-.68-.53-1.23-.53Z"/><path class="cls-5" d="M457.48,104.25c.42,0,.78-.14,1.09-.42,.31-.28,.47-.62,.47-1.02h1.22l.02,.04c.02,.64-.26,1.21-.82,1.71-.57,.5-1.23,.75-1.98,.75-1.04,0-1.85-.36-2.42-1.07-.57-.71-.85-1.59-.85-2.65v-.29c0-1.05,.29-1.93,.86-2.64,.57-.71,1.38-1.07,2.42-1.07,.83,0,1.51,.26,2.04,.77,.53,.51,.79,1.14,.77,1.89v.04h-1.24c0-.45-.15-.84-.44-1.16-.29-.32-.67-.48-1.12-.48-.66,0-1.15,.26-1.45,.77-.31,.52-.46,1.14-.46,1.87v.29c0,.75,.15,1.38,.45,1.89,.3,.51,.79,.77,1.46,.77Z"/><path class="cls-5" d="M461.58,101.37c0-1.1,.3-2.01,.89-2.72,.6-.71,1.4-1.07,2.43-1.07s1.85,.36,2.44,1.07,.9,1.62,.9,2.72v.15c0,1.11-.3,2.02-.89,2.72-.6,.71-1.41,1.06-2.43,1.06s-1.84-.35-2.44-1.06c-.6-.71-.9-1.61-.9-2.72v-.15Zm1.35,.15c0,.79,.17,1.44,.5,1.95,.33,.51,.83,.77,1.48,.77s1.14-.26,1.47-.77c.33-.51,.5-1.16,.5-1.95v-.15c0-.78-.17-1.43-.5-1.95-.34-.52-.83-.78-1.48-.78s-1.14,.26-1.47,.78c-.33,.52-.5,1.17-.5,1.95v.15Z"/><path class="cls-5" d="M473.42,98.92l-.69-.04c-.36,0-.66,.08-.9,.25-.25,.17-.43,.41-.57,.71v5.31h-1.35v-7.44h1.21l.13,1.09c.21-.38,.47-.69,.78-.9,.31-.22,.67-.32,1.07-.32,.1,0,.2,0,.29,.02,.09,.02,.17,.03,.23,.05l-.19,1.26Z"/><path class="cls-5" d="M474.39,101.58c0-1.2,.25-2.16,.77-2.89,.51-.73,1.23-1.1,2.15-1.1,.44,0,.82,.08,1.16,.24,.34,.16,.62,.39,.86,.7v-4.09h1.35v10.72h-1.04l-.21-.94c-.24,.36-.54,.63-.9,.81-.36,.18-.77,.28-1.24,.28-.91,0-1.62-.33-2.13-.99-.51-.66-.77-1.52-.77-2.6v-.14Zm1.35,.14c0,.75,.15,1.35,.46,1.8s.78,.68,1.43,.68c.4,0,.74-.09,1.02-.28s.5-.44,.67-.77v-3.47c-.17-.31-.4-.55-.68-.73-.28-.18-.61-.27-1-.27-.65,0-1.13,.27-1.44,.8-.31,.54-.46,1.23-.46,2.09v.14Z"/><path class="cls-5" d="M484.16,95.82h-1.35v-1.38h1.35v1.38Zm0,9.34h-1.35v-7.44h1.35v7.44Z"/><path class="cls-5" d="M487.45,97.72l.1,1.11c.25-.39,.56-.7,.93-.92,.37-.22,.8-.33,1.28-.33,.8,0,1.42,.24,1.86,.7,.44,.47,.66,1.2,.66,2.18v4.7h-1.35v-4.67c0-.66-.13-1.12-.39-1.4-.26-.28-.65-.41-1.19-.41-.42,0-.77,.08-1.06,.25-.29,.17-.52,.4-.69,.71v5.52h-1.35v-7.44h1.21Z"/><path class="cls-5" d="M494.01,101.58c0-1.2,.26-2.16,.77-2.89s1.22-1.1,2.14-1.1c.47,0,.89,.09,1.24,.29s.66,.46,.9,.82l.17-.97h1.08v7.48c0,.95-.28,1.69-.83,2.2s-1.35,.77-2.4,.77c-.36,0-.74-.05-1.16-.15-.42-.1-.78-.23-1.1-.4l.21-1.05c.26,.14,.58,.25,.95,.33s.73,.13,1.09,.13c.66,0,1.14-.15,1.44-.45s.45-.76,.45-1.37v-.85c-.24,.31-.53,.55-.87,.71-.34,.16-.73,.24-1.17,.24-.91,0-1.62-.33-2.13-.99-.51-.66-.77-1.52-.77-2.6v-.14Zm1.35,.14c0,.75,.15,1.35,.46,1.8,.31,.45,.78,.68,1.42,.68,.41,0,.75-.09,1.02-.28,.28-.19,.5-.45,.68-.79v-3.42c-.17-.32-.4-.57-.68-.75-.28-.19-.62-.28-1.01-.28-.65,0-1.12,.27-1.43,.8s-.46,1.23-.46,2.09v.14Z"/></g><g><path class="cls-5" d="M612.98,16.27v4.01h-1.35V10.28h3.83c1.07,0,1.9,.28,2.49,.83s.89,1.27,.89,2.17-.3,1.63-.89,2.18c-.59,.54-1.42,.82-2.49,.82h-2.47Zm0-1.06h2.47c.68,0,1.18-.18,1.52-.55,.33-.36,.5-.82,.5-1.38s-.17-1.02-.51-1.39-.84-.56-1.52-.56h-2.47v3.87Z"/><path class="cls-5" d="M623.91,14.05l-.69-.04c-.36,0-.66,.08-.9,.25-.25,.17-.44,.41-.57,.71v5.31h-1.35v-7.44h1.21l.13,1.09c.21-.38,.47-.69,.78-.9,.31-.22,.67-.32,1.07-.32,.1,0,.2,0,.29,.02,.09,.02,.17,.03,.23,.05l-.19,1.26Z"/><path class="cls-5" d="M628.26,20.43c-1.07,0-1.9-.34-2.5-1.02s-.9-1.58-.9-2.69v-.3c0-1.07,.31-1.95,.92-2.65,.62-.7,1.37-1.05,2.26-1.05,.99,0,1.74,.31,2.24,.93,.5,.62,.75,1.44,.75,2.47v.71h-4.76l-.02,.04c0,.75,.16,1.35,.49,1.82,.33,.47,.83,.7,1.51,.7,.46,0,.86-.07,1.21-.2s.64-.31,.89-.54l.53,.88c-.27,.26-.62,.47-1.05,.65-.44,.18-.96,.26-1.57,.26Zm-.21-6.65c-.47,0-.86,.18-1.17,.55s-.5,.83-.57,1.4v.03h3.37v-.11c0-.54-.13-.99-.4-1.34s-.68-.53-1.23-.53Z"/><path class="cls-5" d="M636.78,16.59h-4.06v-1.06h4.06v1.06Z"/><path class="cls-5" d="M642.42,14.05l-.69-.04c-.36,0-.66,.08-.9,.25-.25,.17-.44,.41-.57,.71v5.31h-1.35v-7.44h1.21l.13,1.09c.21-.38,.47-.69,.78-.9,.31-.22,.67-.32,1.07-.32,.1,0,.2,0,.29,.02,.09,.02,.17,.03,.23,.05l-.19,1.26Z"/><path class="cls-5" d="M648.55,19.19c-.23,.4-.53,.71-.9,.92-.37,.22-.79,.32-1.27,.32-.81,0-1.44-.26-1.9-.78-.45-.52-.68-1.32-.68-2.42v-4.39h1.36v4.4c0,.79,.12,1.34,.35,1.64,.23,.3,.6,.45,1.09,.45s.88-.1,1.19-.29c.31-.19,.55-.47,.71-.83v-5.36h1.35v7.44h-1.22l-.09-1.1Z"/><path class="cls-5" d="M653.04,12.85l.1,1.11c.25-.39,.56-.7,.93-.92,.37-.22,.8-.33,1.28-.33,.8,0,1.42,.24,1.86,.7,.44,.47,.66,1.2,.66,2.18v4.7h-1.35v-4.67c0-.66-.13-1.12-.39-1.4-.26-.28-.65-.41-1.19-.41-.42,0-.77,.08-1.06,.25-.29,.17-.52,.4-.69,.71v5.52h-1.35v-7.44h1.21Z"/><path class="cls-5" d="M663.02,16.71c0-1.2,.26-2.16,.77-2.89,.51-.73,1.23-1.1,2.15-1.1,.44,0,.82,.08,1.16,.24,.34,.16,.62,.39,.86,.7v-4.09h1.36v10.72h-1.04l-.21-.94c-.24,.36-.54,.63-.9,.81-.36,.18-.77,.28-1.24,.28-.91,0-1.62-.33-2.13-.99-.51-.66-.77-1.52-.77-2.6v-.14Zm1.36,.14c0,.75,.15,1.35,.46,1.8s.79,.68,1.43,.68c.4,0,.74-.09,1.02-.28s.5-.44,.67-.77v-3.47c-.17-.31-.4-.55-.68-.73-.28-.18-.61-.27-1-.27-.65,0-1.13,.27-1.44,.8s-.46,1.23-.46,2.09v.14Z"/><path class="cls-5" d="M675.9,20.29c-.05-.22-.08-.42-.11-.59s-.04-.34-.04-.52c-.25,.36-.58,.66-.99,.9-.41,.24-.84,.36-1.31,.36-.78,0-1.37-.2-1.77-.59-.4-.4-.61-.94-.61-1.64s.29-1.27,.86-1.67c.57-.4,1.35-.6,2.34-.6h1.47v-.74c0-.44-.13-.78-.4-1.03-.27-.25-.64-.38-1.13-.38-.44,0-.79,.11-1.07,.33-.27,.22-.4,.48-.4,.79h-1.29s-.01-.03-.01-.03c-.03-.54,.22-1.04,.76-1.48,.54-.45,1.23-.67,2.09-.67s1.52,.21,2.04,.64,.77,1.05,.77,1.85v3.58c0,.27,.01,.52,.04,.77,.03,.25,.08,.49,.15,.73h-1.39Zm-2.25-.99c.49,0,.93-.13,1.33-.38s.65-.54,.77-.87v-1.21h-1.52c-.54,0-.98,.14-1.31,.41-.33,.27-.49,.6-.49,.97,0,.33,.1,.59,.31,.78,.21,.19,.51,.29,.91,.29Z"/><path class="cls-5" d="M680.95,11.06v1.79h1.41v1h-1.41v4.52c0,.35,.07,.59,.22,.74,.14,.14,.34,.21,.57,.21,.08,0,.17,0,.26-.03s.18-.04,.24-.07l.19,.93c-.1,.08-.25,.15-.45,.2s-.39,.08-.58,.08c-.55,0-.99-.17-1.31-.5-.33-.33-.49-.85-.49-1.56v-4.52h-1.18v-1h1.18v-1.79h1.35Z"/><path class="cls-5" d="M688.38,20.29c-.04-.22-.08-.42-.11-.59-.02-.17-.04-.34-.04-.52-.25,.36-.58,.66-.99,.9-.41,.24-.84,.36-1.31,.36-.77,0-1.37-.2-1.77-.59-.41-.4-.61-.94-.61-1.64s.29-1.27,.86-1.67c.57-.4,1.36-.6,2.34-.6h1.47v-.74c0-.44-.13-.78-.4-1.03-.27-.25-.64-.38-1.13-.38-.44,0-.79,.11-1.06,.33-.27,.22-.41,.48-.41,.79h-1.29s-.01-.03-.01-.03c-.03-.54,.22-1.04,.76-1.48,.54-.45,1.23-.67,2.09-.67s1.52,.21,2.04,.64c.51,.43,.77,1.05,.77,1.85v3.58c0,.27,.01,.52,.04,.77,.03,.25,.08,.49,.15,.73h-1.39Zm-2.25-.99c.49,0,.93-.13,1.33-.38,.39-.25,.65-.54,.77-.87v-1.21h-1.52c-.54,0-.98,.14-1.31,.41-.33,.27-.49,.6-.49,.97,0,.33,.1,.59,.31,.78s.51,.29,.91,.29Z"/><path class="cls-5" d="M699.38,18.29c0-.3-.11-.54-.34-.73-.23-.19-.66-.35-1.29-.5-.88-.19-1.55-.45-2.02-.79-.47-.34-.71-.79-.71-1.36,0-.6,.26-1.12,.77-1.55s1.18-.65,2-.65,1.53,.23,2.05,.69c.52,.46,.77,.99,.75,1.6v.04h-1.3c0-.32-.14-.61-.42-.87-.28-.26-.64-.39-1.07-.39-.48,0-.83,.11-1.07,.32-.24,.22-.36,.47-.36,.77s.1,.52,.31,.68c.2,.16,.62,.31,1.26,.44,.91,.19,1.6,.46,2.08,.82,.47,.35,.71,.81,.71,1.38,0,.66-.27,1.2-.8,1.62s-1.23,.63-2.09,.63c-.95,0-1.7-.24-2.24-.72-.54-.48-.8-1.04-.78-1.68v-.04h1.31c.02,.48,.2,.83,.54,1.05,.33,.22,.72,.33,1.17,.33,.48,0,.86-.1,1.13-.31,.27-.2,.41-.46,.41-.78Z"/><path class="cls-5" d="M706.99,20.29c-.05-.22-.08-.42-.11-.59s-.04-.34-.04-.52c-.25,.36-.58,.66-.99,.9-.41,.24-.84,.36-1.31,.36-.78,0-1.37-.2-1.77-.59-.4-.4-.61-.94-.61-1.64s.29-1.27,.86-1.67c.57-.4,1.35-.6,2.34-.6h1.47v-.74c0-.44-.13-.78-.4-1.03-.27-.25-.64-.38-1.13-.38-.44,0-.79,.11-1.07,.33-.27,.22-.4,.48-.4,.79h-1.29s-.01-.03-.01-.03c-.03-.54,.22-1.04,.76-1.48,.54-.45,1.23-.67,2.09-.67s1.52,.21,2.04,.64,.77,1.05,.77,1.85v3.58c0,.27,.01,.52,.04,.77,.03,.25,.08,.49,.15,.73h-1.39Zm-2.25-.99c.49,0,.93-.13,1.33-.38s.65-.54,.77-.87v-1.21h-1.52c-.54,0-.98,.14-1.31,.41-.33,.27-.49,.6-.49,.97,0,.33,.1,.59,.31,.78,.21,.19,.51,.29,.91,.29Z"/><path class="cls-5" d="M712.53,18.1l.12,.52h.04l.13-.52,1.71-5.25h1.38l-2.74,7.44h-1.02l-2.77-7.44h1.39l1.76,5.25Z"/><path class="cls-5" d="M720.12,20.43c-1.07,0-1.9-.34-2.5-1.02s-.9-1.58-.9-2.69v-.3c0-1.07,.31-1.95,.92-2.65,.62-.7,1.37-1.05,2.26-1.05,.99,0,1.74,.31,2.24,.93,.5,.62,.75,1.44,.75,2.47v.71h-4.76l-.02,.04c0,.75,.16,1.35,.49,1.82,.33,.47,.83,.7,1.51,.7,.46,0,.86-.07,1.21-.2s.64-.31,.89-.54l.53,.88c-.27,.26-.62,.47-1.05,.65-.44,.18-.96,.26-1.57,.26Zm-.21-6.65c-.47,0-.86,.18-1.17,.55s-.5,.83-.57,1.4v.03h3.37v-.11c0-.54-.13-.99-.4-1.34s-.68-.53-1.23-.53Z"/><path class="cls-5" d="M724.1,16.71c0-1.2,.26-2.16,.77-2.89,.51-.73,1.23-1.1,2.15-1.1,.44,0,.82,.08,1.16,.24,.34,.16,.62,.39,.86,.7v-4.09h1.36v10.72h-1.04l-.21-.94c-.24,.36-.54,.63-.9,.81-.36,.18-.77,.28-1.24,.28-.91,0-1.62-.33-2.13-.99-.51-.66-.77-1.52-.77-2.6v-.14Zm1.36,.14c0,.75,.15,1.35,.46,1.8s.79,.68,1.43,.68c.4,0,.74-.09,1.02-.28s.5-.44,.67-.77v-3.47c-.17-.31-.4-.55-.68-.73-.28-.18-.61-.27-1-.27-.65,0-1.13,.27-1.44,.8s-.46,1.23-.46,2.09v.14Z"/><path class="cls-5" d="M737.8,11.06v1.79h1.41v1h-1.41v4.52c0,.35,.07,.59,.22,.74,.14,.14,.34,.21,.57,.21,.08,0,.17,0,.26-.03s.18-.04,.24-.07l.19,.93c-.1,.08-.25,.15-.45,.2s-.39,.08-.58,.08c-.55,0-.99-.17-1.31-.5-.33-.33-.49-.85-.49-1.56v-4.52h-1.18v-1h1.18v-1.79h1.35Z"/><path class="cls-5" d="M740.34,16.5c0-1.1,.3-2.01,.89-2.72,.6-.71,1.4-1.07,2.43-1.07s1.85,.36,2.44,1.07,.9,1.62,.9,2.72v.15c0,1.11-.3,2.02-.89,2.72s-1.41,1.06-2.43,1.06-1.84-.35-2.44-1.06c-.6-.71-.9-1.61-.9-2.72v-.15Zm1.35,.15c0,.79,.17,1.44,.5,1.95,.33,.51,.83,.77,1.48,.77s1.14-.26,1.47-.77c.34-.51,.5-1.16,.5-1.95v-.15c0-.78-.17-1.43-.5-1.95-.34-.52-.83-.78-1.48-.78s-1.13,.26-1.47,.78c-.33,.52-.5,1.17-.5,1.95v.15Z"/><path class="cls-5" d="M751.85,16.71c0-1.2,.26-2.16,.77-2.89,.51-.73,1.23-1.1,2.15-1.1,.44,0,.82,.08,1.16,.24,.34,.16,.62,.39,.86,.7v-4.09h1.36v10.72h-1.04l-.21-.94c-.24,.36-.54,.63-.9,.81-.36,.18-.77,.28-1.24,.28-.91,0-1.62-.33-2.13-.99-.51-.66-.77-1.52-.77-2.6v-.14Zm1.36,.14c0,.75,.15,1.35,.46,1.8s.79,.68,1.43,.68c.4,0,.74-.09,1.02-.28s.5-.44,.67-.77v-3.47c-.17-.31-.4-.55-.68-.73-.28-.18-.61-.27-1-.27-.65,0-1.13,.27-1.44,.8s-.46,1.23-.46,2.09v.14Z"/><path class="cls-5" d="M761.62,10.95h-1.36v-1.38h1.36v1.38Zm0,9.34h-1.36v-7.44h1.36v7.44Z"/><path class="cls-5" d="M768.03,18.29c0-.3-.11-.54-.34-.73-.23-.19-.66-.35-1.29-.5-.88-.19-1.55-.45-2.02-.79-.47-.34-.71-.79-.71-1.36,0-.6,.26-1.12,.77-1.55s1.18-.65,2-.65,1.53,.23,2.05,.69c.52,.46,.77,.99,.75,1.6v.04h-1.3c0-.32-.14-.61-.42-.87-.28-.26-.64-.39-1.07-.39-.48,0-.83,.11-1.07,.32-.24,.22-.36,.47-.36,.77s.1,.52,.31,.68c.2,.16,.62,.31,1.26,.44,.91,.19,1.6,.46,2.08,.82,.47,.35,.71,.81,.71,1.38,0,.66-.27,1.2-.8,1.62s-1.23,.63-2.09,.63c-.95,0-1.7-.24-2.24-.72-.54-.48-.8-1.04-.78-1.68v-.04h1.31c.02,.48,.2,.83,.54,1.05,.33,.22,.72,.33,1.17,.33,.48,0,.86-.1,1.13-.31,.27-.2,.41-.46,.41-.78Z"/><path class="cls-5" d="M773.12,16.86h-.7v3.43h-1.35V9.56h1.35v6.21h.68l2.23-2.93h1.62l-2.7,3.43,2.94,4.01h-1.6l-2.47-3.43Z"/></g><rect class="cls-3" x="579.49" y="5.89" width="20.56" height="20.56" rx="2.22" ry="2.22"/><g><path class="cls-5" d="M612.98,44.57v4.34h-1.35v-10h3.42c1.1,0,1.93,.24,2.51,.73,.58,.49,.87,1.19,.87,2.12,0,.51-.13,.96-.4,1.34-.27,.38-.66,.68-1.17,.91,.55,.18,.95,.47,1.19,.87,.24,.4,.36,.9,.36,1.49v.94c0,.31,.04,.59,.1,.84,.07,.25,.19,.45,.36,.6v.17h-1.39c-.18-.16-.29-.38-.34-.69-.05-.3-.08-.61-.08-.93v-.91c0-.54-.16-.98-.47-1.31s-.74-.5-1.27-.5h-2.32Zm0-1.07h1.93c.77,0,1.32-.15,1.65-.44,.34-.29,.51-.73,.51-1.33,0-.56-.16-1-.49-1.31-.33-.31-.84-.46-1.53-.46h-2.07v3.54Z"/><path class="cls-5" d="M623.47,49.06c-1.07,0-1.9-.34-2.5-1.02s-.9-1.58-.9-2.69v-.3c0-1.07,.31-1.95,.92-2.65,.62-.7,1.37-1.05,2.26-1.05,.99,0,1.74,.31,2.24,.93,.5,.62,.75,1.44,.75,2.47v.71h-4.76l-.02,.04c0,.75,.16,1.35,.49,1.82,.33,.47,.83,.7,1.51,.7,.46,0,.86-.07,1.21-.2s.64-.31,.89-.54l.53,.88c-.27,.26-.62,.47-1.05,.65-.44,.18-.96,.26-1.57,.26Zm-.21-6.65c-.47,0-.86,.18-1.17,.55s-.5,.83-.57,1.4v.03h3.37v-.11c0-.54-.13-.99-.4-1.34s-.68-.53-1.23-.53Z"/><path class="cls-5" d="M630.72,48c.42,0,.78-.14,1.09-.42,.31-.28,.47-.62,.47-1.02h1.22l.02,.04c.02,.64-.26,1.21-.82,1.71-.57,.5-1.23,.75-1.98,.75-1.04,0-1.85-.36-2.42-1.07-.57-.71-.85-1.59-.85-2.65v-.29c0-1.05,.29-1.93,.86-2.64,.57-.71,1.38-1.07,2.42-1.07,.83,0,1.51,.26,2.04,.77,.53,.51,.79,1.14,.77,1.89v.04h-1.24c0-.45-.15-.84-.44-1.16s-.67-.48-1.12-.48c-.66,0-1.15,.26-1.45,.77-.31,.52-.46,1.14-.46,1.87v.29c0,.75,.15,1.38,.45,1.89,.3,.51,.79,.77,1.46,.77Z"/><path class="cls-5" d="M634.82,45.12c0-1.1,.3-2.01,.89-2.72,.6-.71,1.4-1.07,2.43-1.07s1.85,.36,2.44,1.07,.9,1.62,.9,2.72v.15c0,1.11-.3,2.02-.89,2.72-.6,.71-1.41,1.06-2.43,1.06s-1.84-.35-2.44-1.06-.9-1.61-.9-2.72v-.15Zm1.35,.15c0,.79,.17,1.44,.5,1.95,.33,.51,.83,.77,1.48,.77s1.13-.26,1.47-.77c.33-.51,.5-1.16,.5-1.95v-.15c0-.78-.17-1.43-.51-1.95-.34-.52-.83-.78-1.48-.78s-1.14,.26-1.47,.78c-.33,.52-.5,1.17-.5,1.95v.15Z"/><path class="cls-5" d="M646.65,42.67l-.69-.04c-.36,0-.66,.08-.9,.25-.25,.17-.44,.41-.57,.71v5.31h-1.35v-7.44h1.21l.13,1.09c.21-.38,.47-.69,.78-.9,.31-.22,.67-.32,1.07-.32,.1,0,.2,0,.29,.02,.09,.02,.17,.03,.23,.05l-.19,1.26Z"/><path class="cls-5" d="M647.62,45.33c0-1.2,.26-2.16,.77-2.89,.51-.73,1.23-1.1,2.15-1.1,.44,0,.82,.08,1.16,.24,.34,.16,.62,.39,.86,.7v-4.09h1.36v10.72h-1.04l-.21-.94c-.24,.36-.54,.63-.9,.81-.36,.18-.77,.28-1.24,.28-.91,0-1.62-.33-2.13-.99-.51-.66-.77-1.52-.77-2.6v-.14Zm1.36,.14c0,.75,.15,1.35,.46,1.8s.79,.68,1.43,.68c.4,0,.74-.09,1.02-.28s.5-.44,.67-.77v-3.47c-.17-.31-.4-.55-.68-.73-.28-.18-.61-.27-1-.27-.65,0-1.13,.27-1.44,.8s-.46,1.23-.46,2.09v.14Z"/><path class="cls-5" d="M657.4,39.57h-1.35v-1.38h1.35v1.38Zm0,9.34h-1.35v-7.44h1.35v7.44Z"/><path class="cls-5" d="M660.69,41.47l.1,1.11c.25-.39,.56-.7,.93-.92,.37-.22,.8-.33,1.28-.33,.8,0,1.42,.24,1.86,.7,.44,.47,.66,1.2,.66,2.18v4.7h-1.36v-4.67c0-.66-.13-1.12-.39-1.4-.26-.28-.65-.41-1.19-.41-.42,0-.77,.08-1.06,.25-.29,.17-.52,.4-.69,.71v5.52h-1.35v-7.44h1.21Z"/><path class="cls-5" d="M667.24,45.33c0-1.2,.26-2.16,.77-2.89,.51-.73,1.22-1.1,2.14-1.1,.47,0,.89,.09,1.24,.29s.66,.46,.9,.82l.16-.97h1.08v7.48c0,.95-.28,1.69-.83,2.2s-1.35,.77-2.4,.77c-.36,0-.74-.05-1.16-.15-.42-.1-.78-.23-1.1-.4l.21-1.05c.26,.14,.58,.25,.95,.33s.73,.13,1.09,.13c.66,0,1.14-.15,1.44-.45,.3-.3,.45-.76,.45-1.37v-.85c-.24,.31-.53,.55-.87,.71-.34,.16-.73,.24-1.17,.24-.91,0-1.62-.33-2.13-.99-.51-.66-.77-1.52-.77-2.6v-.14Zm1.35,.14c0,.75,.15,1.35,.46,1.8,.31,.45,.78,.68,1.42,.68,.41,0,.75-.09,1.02-.28,.28-.19,.5-.45,.68-.79v-3.42c-.17-.32-.4-.57-.68-.75s-.62-.28-1.01-.28c-.65,0-1.12,.27-1.43,.8-.31,.54-.46,1.23-.46,2.09v.14Z"/><path class="cls-5" d="M678.67,45.33c0-1.2,.25-2.16,.77-2.89s1.23-1.1,2.15-1.1c.44,0,.82,.08,1.16,.24,.34,.16,.62,.39,.86,.7v-4.09h1.35v10.72h-1.04l-.21-.94c-.24,.36-.54,.63-.9,.81-.36,.18-.77,.28-1.24,.28-.91,0-1.62-.33-2.13-.99-.51-.66-.77-1.52-.77-2.6v-.14Zm1.35,.14c0,.75,.15,1.35,.46,1.8s.78,.68,1.43,.68c.4,0,.74-.09,1.02-.28s.5-.44,.67-.77v-3.47c-.18-.31-.4-.55-.68-.73-.28-.18-.61-.27-1-.27-.65,0-1.13,.27-1.44,.8-.31,.54-.46,1.23-.46,2.09v.14Z"/><path class="cls-5" d="M691.55,48.91c-.05-.22-.08-.42-.11-.59s-.04-.34-.04-.52c-.25,.36-.58,.66-.99,.9-.41,.24-.84,.36-1.31,.36-.78,0-1.37-.2-1.77-.59-.4-.4-.61-.94-.61-1.64s.29-1.27,.86-1.67c.57-.4,1.35-.6,2.34-.6h1.47v-.74c0-.44-.13-.78-.4-1.03-.27-.25-.64-.38-1.13-.38-.44,0-.79,.11-1.07,.33-.27,.22-.4,.48-.4,.79h-1.29s-.01-.03-.01-.03c-.03-.54,.22-1.04,.76-1.48,.54-.45,1.23-.67,2.09-.67s1.52,.21,2.04,.64,.77,1.05,.77,1.85v3.58c0,.27,.01,.52,.04,.77,.03,.25,.08,.49,.15,.73h-1.39Zm-2.25-.99c.49,0,.93-.13,1.33-.38s.65-.54,.77-.87v-1.21h-1.52c-.54,0-.98,.14-1.31,.41-.33,.27-.49,.6-.49,.97,0,.33,.1,.59,.31,.78,.21,.19,.51,.29,.91,.29Z"/><path class="cls-5" d="M696.61,39.68v1.79h1.41v1h-1.41v4.52c0,.35,.07,.59,.22,.74,.14,.14,.34,.21,.57,.21,.08,0,.17,0,.26-.03s.18-.04,.24-.07l.19,.93c-.1,.08-.25,.15-.45,.2s-.39,.08-.58,.08c-.55,0-.99-.17-1.31-.5-.33-.33-.49-.85-.49-1.56v-4.52h-1.18v-1h1.18v-1.79h1.35Z"/><path class="cls-5" d="M704.04,48.91c-.04-.22-.08-.42-.11-.59-.02-.17-.04-.34-.04-.52-.25,.36-.58,.66-.99,.9-.41,.24-.84,.36-1.31,.36-.77,0-1.37-.2-1.77-.59-.41-.4-.61-.94-.61-1.64s.29-1.27,.86-1.67c.57-.4,1.36-.6,2.34-.6h1.47v-.74c0-.44-.13-.78-.4-1.03-.27-.25-.64-.38-1.13-.38-.44,0-.79,.11-1.06,.33-.27,.22-.41,.48-.41,.79h-1.29s-.01-.03-.01-.03c-.03-.54,.22-1.04,.76-1.48,.54-.45,1.23-.67,2.09-.67s1.52,.21,2.04,.64c.51,.43,.77,1.05,.77,1.85v3.58c0,.27,.01,.52,.04,.77,.03,.25,.08,.49,.15,.73h-1.39Zm-2.25-.99c.49,0,.93-.13,1.33-.38,.39-.25,.65-.54,.77-.87v-1.21h-1.52c-.54,0-.98,.14-1.31,.41-.33,.27-.49,.6-.49,.97,0,.33,.1,.59,.31,.78s.51,.29,.91,.29Z"/><path class="cls-5" d="M715.03,46.91c0-.3-.11-.54-.34-.73-.23-.19-.66-.35-1.29-.5-.88-.19-1.55-.45-2.02-.79-.47-.34-.71-.79-.71-1.36,0-.6,.26-1.12,.77-1.55s1.18-.65,2-.65,1.53,.23,2.05,.69c.52,.46,.77,.99,.75,1.6v.04h-1.31c0-.32-.14-.61-.42-.87-.28-.26-.64-.39-1.07-.39-.48,0-.83,.11-1.07,.32s-.35,.47-.35,.77,.1,.52,.3,.68c.21,.16,.62,.31,1.26,.44,.91,.19,1.6,.46,2.08,.82,.47,.35,.71,.81,.71,1.38,0,.66-.27,1.2-.8,1.62-.54,.42-1.23,.63-2.09,.63-.95,0-1.7-.24-2.24-.72-.55-.48-.8-1.04-.78-1.68v-.04h1.31c.02,.48,.2,.83,.54,1.05,.33,.22,.73,.33,1.18,.33,.48,0,.86-.1,1.13-.31,.27-.2,.41-.46,.41-.78Z"/><path class="cls-5" d="M722.64,48.91c-.05-.22-.08-.42-.11-.59s-.04-.34-.04-.52c-.25,.36-.58,.66-.99,.9-.41,.24-.84,.36-1.31,.36-.78,0-1.37-.2-1.77-.59-.4-.4-.61-.94-.61-1.64s.29-1.27,.86-1.67c.57-.4,1.35-.6,2.34-.6h1.47v-.74c0-.44-.13-.78-.4-1.03-.27-.25-.64-.38-1.13-.38-.44,0-.79,.11-1.07,.33-.27,.22-.4,.48-.4,.79h-1.29s-.01-.03-.01-.03c-.03-.54,.22-1.04,.76-1.48,.54-.45,1.23-.67,2.09-.67s1.52,.21,2.04,.64,.77,1.05,.77,1.85v3.58c0,.27,.01,.52,.04,.77,.03,.25,.08,.49,.15,.73h-1.39Zm-2.25-.99c.49,0,.93-.13,1.33-.38s.65-.54,.77-.87v-1.21h-1.52c-.54,0-.98,.14-1.31,.41-.33,.27-.49,.6-.49,.97,0,.33,.1,.59,.31,.78,.21,.19,.51,.29,.91,.29Z"/><path class="cls-5" d="M728.19,46.72l.12,.52h.04l.13-.52,1.71-5.25h1.38l-2.74,7.44h-1.02l-2.77-7.44h1.39l1.76,5.25Z"/><path class="cls-5" d="M735.77,49.06c-1.07,0-1.9-.34-2.5-1.02s-.9-1.58-.9-2.69v-.3c0-1.07,.31-1.95,.92-2.65,.62-.7,1.37-1.05,2.26-1.05,.99,0,1.74,.31,2.24,.93,.5,.62,.75,1.44,.75,2.47v.71h-4.76l-.02,.04c0,.75,.16,1.35,.49,1.82,.33,.47,.83,.7,1.51,.7,.46,0,.86-.07,1.21-.2s.64-.31,.89-.54l.53,.88c-.27,.26-.62,.47-1.05,.65-.44,.18-.96,.26-1.57,.26Zm-.21-6.65c-.47,0-.86,.18-1.17,.55s-.5,.83-.57,1.4v.03h3.37v-.11c0-.54-.13-.99-.4-1.34s-.68-.53-1.23-.53Z"/><path class="cls-5" d="M739.75,45.33c0-1.2,.26-2.16,.77-2.89,.51-.73,1.23-1.1,2.15-1.1,.44,0,.82,.08,1.16,.24,.34,.16,.62,.39,.86,.7v-4.09h1.36v10.72h-1.04l-.21-.94c-.24,.36-.54,.63-.9,.81-.36,.18-.77,.28-1.24,.28-.91,0-1.62-.33-2.13-.99-.51-.66-.77-1.52-.77-2.6v-.14Zm1.36,.14c0,.75,.15,1.35,.46,1.8s.79,.68,1.43,.68c.4,0,.74-.09,1.02-.28s.5-.44,.67-.77v-3.47c-.17-.31-.4-.55-.68-.73-.28-.18-.61-.27-1-.27-.65,0-1.13,.27-1.44,.8s-.46,1.23-.46,2.09v.14Z"/><path class="cls-5" d="M753.45,39.68v1.79h1.41v1h-1.41v4.52c0,.35,.07,.59,.22,.74,.14,.14,.34,.21,.57,.21,.08,0,.16,0,.26-.03,.1-.02,.18-.04,.24-.07l.19,.93c-.1,.08-.25,.15-.45,.2s-.39,.08-.58,.08c-.55,0-.99-.17-1.31-.5-.32-.33-.49-.85-.49-1.56v-4.52h-1.18v-1h1.18v-1.79h1.35Z"/><path class="cls-5" d="M755.99,45.12c0-1.1,.3-2.01,.89-2.72,.6-.71,1.4-1.07,2.43-1.07s1.85,.36,2.44,1.07,.9,1.62,.9,2.72v.15c0,1.11-.3,2.02-.89,2.72s-1.41,1.06-2.43,1.06-1.84-.35-2.44-1.06c-.6-.71-.9-1.61-.9-2.72v-.15Zm1.35,.15c0,.79,.17,1.44,.5,1.95,.33,.51,.83,.77,1.48,.77s1.14-.26,1.47-.77c.34-.51,.5-1.16,.5-1.95v-.15c0-.78-.17-1.43-.5-1.95-.34-.52-.83-.78-1.48-.78s-1.13,.26-1.47,.78c-.33,.52-.5,1.17-.5,1.95v.15Z"/><path class="cls-5" d="M767.5,45.33c0-1.2,.26-2.16,.77-2.89,.51-.73,1.23-1.1,2.15-1.1,.44,0,.82,.08,1.16,.24,.34,.16,.62,.39,.86,.7v-4.09h1.36v10.72h-1.04l-.21-.94c-.24,.36-.54,.63-.9,.81-.36,.18-.77,.28-1.24,.28-.91,0-1.62-.33-2.13-.99-.51-.66-.77-1.52-.77-2.6v-.14Zm1.36,.14c0,.75,.15,1.35,.46,1.8s.79,.68,1.43,.68c.4,0,.74-.09,1.02-.28s.5-.44,.67-.77v-3.47c-.17-.31-.4-.55-.68-.73-.28-.18-.61-.27-1-.27-.65,0-1.13,.27-1.44,.8s-.46,1.23-.46,2.09v.14Z"/><path class="cls-5" d="M777.27,39.57h-1.36v-1.38h1.36v1.38Zm0,9.34h-1.36v-7.44h1.36v7.44Z"/><path class="cls-5" d="M783.68,46.91c0-.3-.11-.54-.34-.73-.23-.19-.66-.35-1.29-.5-.88-.19-1.55-.45-2.02-.79-.47-.34-.71-.79-.71-1.36,0-.6,.26-1.12,.77-1.55s1.18-.65,2-.65,1.53,.23,2.05,.69c.52,.46,.77,.99,.75,1.6v.04h-1.3c0-.32-.14-.61-.42-.87-.28-.26-.64-.39-1.07-.39-.48,0-.83,.11-1.07,.32-.24,.22-.36,.47-.36,.77s.1,.52,.31,.68c.2,.16,.62,.31,1.26,.44,.91,.19,1.6,.46,2.08,.82,.47,.35,.71,.81,.71,1.38,0,.66-.27,1.2-.8,1.62s-1.23,.63-2.09,.63c-.95,0-1.7-.24-2.24-.72-.54-.48-.8-1.04-.78-1.68v-.04h1.31c.02,.48,.2,.83,.54,1.05,.33,.22,.72,.33,1.17,.33,.48,0,.86-.1,1.13-.31,.27-.2,.41-.46,.41-.78Z"/><path class="cls-5" d="M788.77,45.48h-.7v3.43h-1.35v-10.72h1.35v6.21h.68l2.23-2.93h1.62l-2.7,3.43,2.94,4.01h-1.6l-2.47-3.43Z"/></g><rect class="cls-4" x="579.49" y="34.52" width="20.56" height="20.56" rx="2.22" ry="2.22"/></svg>