<svg
  id="Layer_1"
  data-name="Layer 1"
  xmlns="http://www.w3.org/2000/svg"
  viewBox="0 0 489.4 136.25"
>
  <defs>
    <style>
      .cls-1 {
        fill: #74cee1;
      }
      .cls-2 {
        fill: #fff;
      }
      .cls-3 {
        fill: none;
        stroke: #5d5e5e;
        stroke-miterlimit: 3.94;
      }
      .cls-4 {
        font-size: 14.64px;
        fill: #5d5e5e;
        font-family: "roboto", Roboto-Regular, Roboto, Helvetica, Arial, sans-serif;
      }
      .cls-5 {
        letter-spacing: -0.01em;
      }
    </style>
  </defs>
  <rect
    class="cls-1"
    x="29.75"
    y="19.33"
    width="101.33"
    height="68.32"
    rx="3.35"
  />
  <rect class="cls-2" x="33.04" y="23.01" width="94.75" height="59.57" />
  <path
    class="cls-1"
    d="M20,91.49a3.25,3.25,0,0,1-2.41-1.24l-2.19-3.13a1,1,0,0,1,.75-1.5H144.7a1,1,0,0,1,.75,1.5l-2.19,3.13a3.25,3.25,0,0,1-2.41,1.24Z"
  />
  <path
    class="cls-1"
    d="M15.82,87.75l1.75,2.5A3.25,3.25,0,0,0,20,91.49H140.85a3.25,3.25,0,0,0,2.41-1.24l1.74-2.5Z"
  />
  <rect class="cls-2" x="68.37" y="85.62" width="24.09" height="3.05" />
  <path
    class="cls-2"
    d="M81.62,21.38a1.21,1.21,0,1,1-1.21-1.21A1.21,1.21,0,0,1,81.62,21.38Z"
  />
  <rect
    class="cls-1"
    x="203.82"
    y="39.76"
    width="72.38"
    height="26.35"
    rx="2.69"
  />
  <rect class="cls-1" x="207.08" y="68.23" width="65.86" height="2.82" />
  <polygon
    class="cls-2"
    points="216.22 43.96 209.83 43.96 209.83 46.75 211.58 46.75 211.58 49.34 214.47 49.34 214.47 46.75 216.22 46.75 216.22 43.96"
  />
  <polygon
    class="cls-2"
    points="225.13 43.96 218.75 43.96 218.75 46.75 220.49 46.75 220.49 49.34 223.39 49.34 223.39 46.75 225.13 46.75 225.13 43.96"
  />
  <polygon
    class="cls-2"
    points="234.05 43.96 227.66 43.96 227.66 46.75 229.41 46.75 229.41 49.34 232.3 49.34 232.3 46.75 234.05 46.75 234.05 43.96"
  />
  <polygon
    class="cls-2"
    points="242.96 43.96 236.58 43.96 236.58 46.75 238.32 46.75 238.32 49.34 241.22 49.34 241.22 46.75 242.96 46.75 242.96 43.96"
  />
  <polygon
    class="cls-2"
    points="216.22 56 209.83 56 209.83 58.79 211.58 58.79 211.58 61.39 214.47 61.39 214.47 58.79 216.22 58.79 216.22 56"
  />
  <polygon
    class="cls-2"
    points="225.13 56 218.75 56 218.75 58.79 220.49 58.79 220.49 61.39 223.39 61.39 223.39 58.79 225.13 58.79 225.13 56"
  />
  <polygon
    class="cls-2"
    points="234.05 56 227.66 56 227.66 58.79 229.41 58.79 229.41 61.39 232.3 61.39 232.3 58.79 234.05 58.79 234.05 56"
  />
  <polygon
    class="cls-2"
    points="242.96 56 236.58 56 236.58 58.79 238.32 58.79 238.32 61.39 241.22 61.39 241.22 58.79 242.96 58.79 242.96 56"
  />
  <path
    class="cls-2"
    d="M251,44V61.39h19.16V44Zm17.76,16.16H252.43V45.22h16.36Z"
  />
  <line
    id="actor2"
    class="cls-3"
    x1="198.24"
    y1="52.67"
    x2="135.97"
    y2="52.67"
  />
  <line
    id="actor2-2"
    data-name="actor2"
    class="cls-3"
    x1="343.88"
    y1="52.67"
    x2="281.61"
    y2="52.67"
  />
  <rect class="cls-1" x="349.3" y="30.34" width="4.73" height="50.13" />
  <rect class="cls-1" x="455.39" y="30.34" width="4.73" height="50.13" />
  <rect class="cls-1" x="356.77" y="32.29" width="95.68" height="6.28" />
  <rect class="cls-1" x="364.01" y="40.29" width="19.27" height="6.28" />
  <rect class="cls-1" x="384.73" y="40.29" width="19.27" height="6.28" />
  <rect class="cls-1" x="405.38" y="40.29" width="19.27" height="6.28" />
  <rect class="cls-1" x="426.05" y="40.29" width="19.27" height="6.28" />
  <rect class="cls-1" x="356.77" y="40.29" width="5.8" height="6.28" />
  <rect class="cls-1" x="446.65" y="40.28" width="5.8" height="6.28" />
  <rect class="cls-1" x="364.01" y="48.28" width="19.27" height="6.28" />
  <rect class="cls-1" x="384.73" y="48.28" width="19.27" height="6.28" />
  <rect class="cls-1" x="405.38" y="48.28" width="19.27" height="6.28" />
  <rect class="cls-1" x="426.05" y="48.28" width="19.27" height="6.28" />
  <rect class="cls-1" x="356.77" y="48.28" width="5.8" height="6.28" />
  <rect class="cls-1" x="446.65" y="48.27" width="5.8" height="6.28" />
  <rect class="cls-1" x="364.01" y="56.26" width="19.27" height="6.28" />
  <rect class="cls-1" x="384.73" y="56.26" width="19.27" height="6.28" />
  <rect class="cls-1" x="405.38" y="56.26" width="19.27" height="6.28" />
  <rect class="cls-1" x="426.05" y="56.26" width="19.27" height="6.28" />
  <rect class="cls-1" x="356.77" y="56.26" width="5.8" height="6.28" />
  <rect class="cls-1" x="446.65" y="56.26" width="5.8" height="6.28" />
  <rect class="cls-1" x="364.01" y="64.26" width="19.27" height="6.28" />
  <rect class="cls-1" x="384.73" y="64.26" width="19.27" height="6.28" />
  <rect class="cls-1" x="405.38" y="64.26" width="19.27" height="6.28" />
  <rect class="cls-1" x="426.05" y="64.26" width="19.27" height="6.28" />
  <rect class="cls-1" x="356.77" y="64.26" width="5.8" height="6.28" />
  <rect class="cls-1" x="446.65" y="64.25" width="5.8" height="6.28" />
  <rect class="cls-1" x="364.01" y="72.24" width="19.27" height="6.28" />
  <rect class="cls-1" x="384.73" y="72.24" width="19.27" height="6.28" />
  <rect class="cls-1" x="405.38" y="72.24" width="19.27" height="6.28" />
  <rect class="cls-1" x="426.05" y="72.24" width="19.27" height="6.28" />
  <rect class="cls-1" x="356.77" y="72.24" width="5.8" height="6.28" />
  <rect class="cls-1" x="446.65" y="72.24" width="5.8" height="6.28" />
  <text class="cls-4" transform="translate(28.66 123.15)">Client Computer</text>
  <text class="cls-4" transform="translate(187.48 100.78)">Network Switch</text>
  <text class="cls-4" transform="translate(332.6 112.17)"> QuantusSeries Device</text>
</svg>
