<svg
  id="Layer_1"
  data-name="Layer 1"
  xmlns="http://www.w3.org/2000/svg"
  viewBox="0 0 489.4 136.25"
>
  <defs>
    <style>
      .cls-1 {
        fill: #74cee1;
      }

      .cls-2 {
        fill: #fff;
      }

      .cls-3 {
        fill: none;
        stroke: #5d5e5e;
        stroke-miterlimit: 3.94;
      }

      .cls-4 {
        font-size: 14.64px;
        fill: #5d5e5e;
        font-family: "roboto", Roboto-Regular, Roboto, Helvetica, Arial, sans-serif;
      }

      .cls-5 {
        letter-spacing: -0.01em;
      }
    </style>
  </defs>
  <rect
    class="cls-1"
    x="31.03"
    y="19.33"
    width="101.33"
    height="68.32"
    rx="3.35"
  />
  <rect class="cls-2" x="34.31" y="23.01" width="94.75" height="59.57" />
  <path
    class="cls-1"
    d="M21.26,91.49a3.28,3.28,0,0,1-2.42-1.24l-2.18-3.13a1,1,0,0,1,.75-1.5H146a1,1,0,0,1,.74,1.5l-2.18,3.13a3.28,3.28,0,0,1-2.42,1.24Z"
  />
  <path
    class="cls-1"
    d="M17.1,87.75l1.74,2.5a3.28,3.28,0,0,0,2.42,1.24H142.12a3.28,3.28,0,0,0,2.42-1.24l1.74-2.5Z"
  />
  <rect class="cls-2" x="69.65" y="85.62" width="24.09" height="3.05" />
  <path
    class="cls-2"
    d="M82.9,21.38a1.21,1.21,0,1,1-1.21-1.21A1.21,1.21,0,0,1,82.9,21.38Z"
  />
  <line
    id="actor2"
    class="cls-3"
    x1="211.89"
    y1="55.41"
    x2="137.25"
    y2="55.41"
  />
  <line
    id="actor2-2"
    data-name="actor2"
    class="cls-3"
    x1="340.03"
    y1="55.41"
    x2="268.98"
    y2="55.41"
  />
  <text class="cls-4" transform="translate(29.93 122.98)">Client Computer</text>
  <text class="cls-4" transform="translate(212.84 96)">Ethernet</text>
  <text class="cls-4" transform="translate(329 111.08)">QuantusSeries Device</text>
  <polyline
    class="cls-1"
    points="226.45 60.02 215.44 60.02 215.44 50.79 226.45 50.79"
  />
  <path
    class="cls-1"
    d="M263.91,59H248.27V51.79h15.64V46.62H240l-2.42.43v4.09a.61.61,0,0,1-.61.61.62.62,0,0,1-.61-.61V47.27L235,47.5v3.64a.61.61,0,0,1-.61.61.62.62,0,0,1-.61-.61V47.72l-1.29.23a.44.44,0,0,1,0,.1v3.09a.61.61,0,0,1-1.22,0v-3l-3.56.64V62l3.56.64V59.73a.61.61,0,0,1,1.22,0v3.13l1.27.23V59.73a.61.61,0,0,1,.61-.61.61.61,0,0,1,.61.61v3.58l1.29.23V59.73a.61.61,0,0,1,.61-.61.61.61,0,0,1,.61.61v4l2.42.44h23.94Z"
  />
  <rect class="cls-1" x="249.66" y="53.18" width="15.6" height="4.45" />
  <rect class="cls-1" x="345.69" y="30.34" width="4.73" height="50.13" />
  <rect class="cls-1" x="451.79" y="30.34" width="4.73" height="50.13" />
  <rect class="cls-1" x="353.16" y="32.29" width="95.68" height="6.28" />
  <rect class="cls-1" x="360.41" y="40.29" width="19.27" height="6.28" />
  <rect class="cls-1" x="381.13" y="40.29" width="19.27" height="6.28" />
  <rect class="cls-1" x="401.78" y="40.29" width="19.27" height="6.28" />
  <rect class="cls-1" x="422.45" y="40.29" width="19.27" height="6.28" />
  <rect class="cls-1" x="353.16" y="40.29" width="5.8" height="6.28" />
  <rect class="cls-1" x="443.05" y="40.28" width="5.8" height="6.28" />
  <rect class="cls-1" x="360.41" y="48.28" width="19.27" height="6.28" />
  <rect class="cls-1" x="381.13" y="48.28" width="19.27" height="6.28" />
  <rect class="cls-1" x="401.78" y="48.28" width="19.27" height="6.28" />
  <rect class="cls-1" x="422.45" y="48.28" width="19.27" height="6.28" />
  <rect class="cls-1" x="353.16" y="48.28" width="5.8" height="6.28" />
  <rect class="cls-1" x="443.05" y="48.27" width="5.8" height="6.28" />
  <rect class="cls-1" x="360.41" y="56.26" width="19.27" height="6.28" />
  <rect class="cls-1" x="381.13" y="56.26" width="19.27" height="6.28" />
  <rect class="cls-1" x="401.78" y="56.26" width="19.27" height="6.28" />
  <rect class="cls-1" x="422.45" y="56.26" width="19.27" height="6.28" />
  <rect class="cls-1" x="353.16" y="56.26" width="5.8" height="6.28" />
  <rect class="cls-1" x="443.05" y="56.26" width="5.8" height="6.28" />
  <rect class="cls-1" x="360.41" y="64.26" width="19.27" height="6.28" />
  <rect class="cls-1" x="381.13" y="64.26" width="19.27" height="6.28" />
  <rect class="cls-1" x="401.78" y="64.26" width="19.27" height="6.28" />
  <rect class="cls-1" x="422.45" y="64.26" width="19.27" height="6.28" />
  <rect class="cls-1" x="353.16" y="64.26" width="5.8" height="6.28" />
  <rect class="cls-1" x="443.05" y="64.25" width="5.8" height="6.28" />
  <rect class="cls-1" x="360.41" y="72.24" width="19.27" height="6.28" />
  <rect class="cls-1" x="381.13" y="72.24" width="19.27" height="6.28" />
  <rect class="cls-1" x="401.78" y="72.24" width="19.27" height="6.28" />
  <rect class="cls-1" x="422.45" y="72.24" width="19.27" height="6.28" />
  <rect class="cls-1" x="353.16" y="72.24" width="5.8" height="6.28" />
  <rect class="cls-1" x="443.05" y="72.24" width="5.8" height="6.28" />
</svg>
