<?xml version="1.0" encoding="utf-8"?>
<!-- Generator: Adobe Illustrator 26.5.0, SVG Export Plug-In . SVG Version: 6.00 Build 0)  -->
<svg version="1.1" id="Layer_1" xmlns="http://www.w3.org/2000/svg" xmlns:xlink="http://www.w3.org/1999/xlink" x="0px" y="0px"
	 viewBox="0 0 803 212.2" style="enable-background:new 0 0 803 212.2;" xml:space="preserve">
<style type="text/css">
	.st0{fill:#75CEE1;}
	.st1{fill:#7F7F7F;enable-background:new    ;}
	.st2{fill:#74CEE1;}
	.st3{fill:#FFFFFF;}
	.st4{fill:#F4F4F4;stroke:#75CEE1;stroke-width:0.9252;stroke-miterlimit:3.7009;}
	.st5{clip-path:url(#SVGID_00000092433171080060524770000018191272395915702199_);}
	.st6{clip-path:url(#SVGID_00000111184215758650543930000005527876932711523243_);}
	.st7{clip-path:url(#SVGID_00000036973827759610767340000006652108896455533450_);}
	.st8{clip-path:url(#SVGID_00000070119916984486435360000002720906905291871411_);}
	.st9{clip-path:url(#SVGID_00000017484697330604084750000014942838105007337867_);}
	.st10{clip-path:url(#SVGID_00000014622961254860236190000010241590135426325162_);}
	.st11{fill:#5E5E5E;}
	.st12{opacity:0.5;fill:#FFFFFF;enable-background:new    ;}
	.st13{clip-path:url(#SVGID_00000051378800094065016460000006765086177579651468_);}
	.st14{clip-path:url(#SVGID_00000000212746743390008010000016328972861907816639_);}
	.st15{clip-path:url(#SVGID_00000049213886951547114410000006762390678845586355_);}
	.st16{clip-path:url(#SVGID_00000092423056668694463540000013376103304486765748_);}
	.st17{clip-path:url(#SVGID_00000116925251125874333460000007663862527402111885_);}
	.st18{clip-path:url(#SVGID_00000106135406987236207570000000943672865042643083_);}
	.st19{clip-path:url(#SVGID_00000078014965615800088580000018181930295712892861_);}
	.st20{clip-path:url(#SVGID_00000173155653108801391980000002964564119341497273_);}
	.st21{clip-path:url(#SVGID_00000042722358042908785560000002978148824203386814_);}
	.st22{clip-path:url(#SVGID_00000028322035279750885640000015675586879443492009_);}
	.st23{clip-path:url(#SVGID_00000114795704373646972410000011975013779573871295_);}
	.st24{clip-path:url(#SVGID_00000039828757615968752410000009095605117983701390_);}
	.st25{clip-path:url(#SVGID_00000021085372162782810300000005867011751833039498_);}
	.st26{clip-path:url(#SVGID_00000054957038877623275400000011776626822734621343_);}
	.st27{clip-path:url(#SVGID_00000078733290178509201110000011993043544704900766_);}
	.st28{clip-path:url(#SVGID_00000148619312286921536690000001520480654152266634_);}
	.st29{clip-path:url(#SVGID_00000168077821266811102160000003681130904174405278_);}
	.st30{clip-path:url(#SVGID_00000166659062581791302380000006365107814512915095_);}
	.st31{clip-path:url(#SVGID_00000000922727551553202940000001143808469956160950_);}
	.st32{clip-path:url(#SVGID_00000134210343919794337640000000467951320263258501_);}
	.st33{clip-path:url(#SVGID_00000118370241932715626700000015564565689797341879_);}
	.st34{clip-path:url(#SVGID_00000116232855022935422030000002562157688555810480_);}
	.st35{clip-path:url(#SVGID_00000018948935087189916250000001436426504805962163_);}
	.st36{clip-path:url(#SVGID_00000033349485874070507910000003637784467508877702_);}
	.st37{clip-path:url(#SVGID_00000015350572827789647550000010602308512243380405_);}
	.st38{clip-path:url(#SVGID_00000109031735539524726730000000720420116813652642_);}
	.st39{clip-path:url(#SVGID_00000146481245232650884710000005830061267894317982_);}
	.st40{clip-path:url(#SVGID_00000124152699489421102630000015600702844932248739_);}
	.st41{clip-path:url(#SVGID_00000076579559820960065040000006593050934962097307_);}
	.st42{clip-path:url(#SVGID_00000170974367891366816670000013378502741947835317_);}
	.st43{clip-path:url(#SVGID_00000054236183072417638640000006763303822963610791_);}
	.st44{clip-path:url(#SVGID_00000053538749277694586240000011281194489044945339_);}
	.st45{clip-path:url(#SVGID_00000147907448115463246570000007743417587994288047_);}
	.st46{clip-path:url(#SVGID_00000148656489967736928570000001503541121418722196_);}
	.st47{clip-path:url(#SVGID_00000056419605502360009680000007846760985453662894_);}
	.st48{clip-path:url(#SVGID_00000077303616935722772730000008626736606241630109_);}
	.st49{clip-path:url(#SVGID_00000017502389532977349090000001286732715513146014_);}
	.st50{clip-path:url(#SVGID_00000066481921205894432000000013160047648173463231_);}
	.st51{clip-path:url(#SVGID_00000183251259546961282190000014884685354678571957_);}
	.st52{clip-path:url(#SVGID_00000139976466829806914260000011969122711046439350_);}
	.st53{clip-path:url(#SVGID_00000036932639595064659750000017103905905671789709_);}
	.st54{clip-path:url(#SVGID_00000085962596619927371720000008370856803318586271_);}
	.st55{clip-path:url(#SVGID_00000043439310702608646070000009719200357625683588_);}
	.st56{clip-path:url(#SVGID_00000062155231174416240810000000960602582450676102_);}
	.st57{clip-path:url(#SVGID_00000016789716693539737580000013653537366789630901_);}
	.st58{clip-path:url(#SVGID_00000057829527696985036900000018097681475696993157_);}
	.st59{clip-path:url(#SVGID_00000013878354280930047450000012803285998525712012_);}
	.st60{clip-path:url(#SVGID_00000029020695636395513670000014178135525519689405_);}
	.st61{clip-path:url(#SVGID_00000041274802939409735610000017474791717550240150_);}
	.st62{clip-path:url(#SVGID_00000068653085329196993140000008538897727621868170_);}
	.st63{clip-path:url(#SVGID_00000172442033111923660120000011926244226520594846_);}
	.st64{clip-path:url(#SVGID_00000039854729743643523760000009684954720162480779_);}
	.st65{clip-path:url(#SVGID_00000158030158757906787420000007972351711458672797_);}
	.st66{clip-path:url(#SVGID_00000059281127638148959070000011765985317200209052_);}
	.st67{clip-path:url(#SVGID_00000167359453573416174750000017963468707043754659_);}
	.st68{clip-path:url(#SVGID_00000163051871353172177570000011438008005387785401_);}
	.st69{clip-path:url(#SVGID_00000058570103071985118800000006258268808364057731_);}
	.st70{clip-path:url(#SVGID_00000023993762379775361590000007896775086029271213_);}
	.st71{clip-path:url(#SVGID_00000076567461688419540100000011025555186152872328_);}
	.st72{clip-path:url(#SVGID_00000177471200631327445610000004000309890488916644_);}
	.st73{clip-path:url(#SVGID_00000122717617926704649480000014171195413141742505_);}
	.st74{clip-path:url(#SVGID_00000009567598766707773030000003218613505234697149_);}
	.st75{clip-path:url(#SVGID_00000107563258537151236560000015296706078488211118_);}
	.st76{clip-path:url(#SVGID_00000126311693748210306320000006134405135359644338_);}
	.st77{clip-path:url(#SVGID_00000044158071996773427600000014856838312579189923_);}
	.st78{clip-path:url(#SVGID_00000183943759956931254990000011287478012863053471_);}
	.st79{clip-path:url(#SVGID_00000018229403435478190480000001991496195991209884_);}
	.st80{clip-path:url(#SVGID_00000160186877965088933030000015132759687272990344_);}
	.st81{clip-path:url(#SVGID_00000121270289633513178990000007459756146739799938_);}
	.st82{clip-path:url(#SVGID_00000098937374539647562620000011969288792726752433_);}
	.st83{clip-path:url(#SVGID_00000127021186651934776260000000827126687382043042_);}
	.st84{clip-path:url(#SVGID_00000002357735314232680270000002249480812899820673_);}
	.st85{clip-path:url(#SVGID_00000114779614101973296780000012973630245196862639_);}
	.st86{fill:none;stroke:#818181;stroke-miterlimit:3.9437;}
	.st87{clip-path:url(#SVGID_00000116208979326687145060000013945141083319162280_);}
	.st88{fill:none;stroke:#74CEE1;stroke-miterlimit:10;}
	.st89{fill:none;stroke:#000000;stroke-linejoin:round;stroke-miterlimit:10;}
	.st90{fill:#AA2249;}
	.st91{fill:#767DBC;}
	.st92{fill:none;stroke:#5D5E5E;stroke-width:2;stroke-miterlimit:3.9437;}
	.st93{fill:none;stroke:#5D5E5E;stroke-miterlimit:3.9437;}
	.st94{fill:#9A9B9B;}
	.st95{fill:none;stroke:#74CEE1;stroke-width:2.5;stroke-miterlimit:10;}
	.st96{fill:none;stroke:#FFFFFF;stroke-linecap:round;stroke-linejoin:round;}
	.st97{fill:none;stroke:#484545;stroke-linecap:round;stroke-linejoin:round;}
	.st98{fill:#B0B0B0;enable-background:new    ;}
	.st99{fill:#5D5E5E;}
	.st100{fill:#5E5F5F;}
</style>
<g>
	<rect x="19.3" y="106.3" class="st99" width="738.2" height="2"/>
	<g>
		<polygon class="st99" points="771.6,107.3 751.7,115.4 756.4,107.3 751.7,99.1 		"/>
	</g>
</g>
<g>
	<rect x="54.2" y="74.9" class="st99" width="2" height="32.4"/>
	<g>
		<polygon class="st99" points="55.2,60.8 63.3,80.7 55.2,76 47,80.7 		"/>
	</g>
</g>
<g>
	<rect x="86.9" y="74.9" class="st99" width="2" height="32.4"/>
	<g>
		<polygon class="st99" points="87.9,60.8 96,80.7 87.9,76 79.8,80.7 		"/>
	</g>
</g>
<rect x="18.2" y="18.6" class="st0" width="2" height="177.4"/>
<rect x="235.5" y="18.6" class="st0" width="2" height="177.4"/>
<rect x="454.2" y="18.6" class="st0" width="2" height="177.4"/>
<rect x="670.2" y="18.6" class="st0" width="2" height="177.4"/>
<g>
	<path class="st100" d="M123.7,28h-3.8l-0.9,2.6h-1.4l3.6-10h1.2l3.5,10h-1.4L123.7,28z M120.3,26.9h3l-1.5-4.3h0L120.3,26.9z"/>
	<path class="st100" d="M130.4,31.3c0,0.7-0.2,1.2-0.5,1.6s-0.8,0.6-1.4,0.6c-0.6,0-1-0.2-1.4-0.6s-0.5-0.9-0.5-1.6v-1.7
		c0-0.7,0.2-1.2,0.5-1.6c0.3-0.4,0.8-0.6,1.3-0.6c0.6,0,1,0.2,1.4,0.6s0.5,0.9,0.5,1.6V31.3z M129.6,29.4c0-0.4-0.1-0.8-0.3-1
		c-0.2-0.2-0.5-0.4-0.8-0.4c-0.3,0-0.6,0.1-0.8,0.4c-0.2,0.2-0.3,0.6-0.3,1v2c0,0.4,0.1,0.8,0.3,1c0.2,0.2,0.5,0.4,0.8,0.4
		c0.3,0,0.6-0.1,0.8-0.4c0.2-0.2,0.3-0.6,0.3-1V29.4z"/>
</g>
<g>
	<path class="st100" d="M351.4,28h-3.8l-0.9,2.6h-1.4l3.6-10h1.2l3.5,10h-1.4L351.4,28z M348.1,26.9h3l-1.5-4.3h0L348.1,26.9z"/>
	<path class="st100" d="M356.8,33.3H356v-5.1l-1.3,0v-0.6l2.1-0.2V33.3z"/>
</g>
<g>
	<path class="st100" d="M573.3,28h-3.8l-0.9,2.6h-1.4l3.6-10h1.2l3.5,10h-1.4L573.3,28z M570,26.9h3l-1.5-4.3h0L570,26.9z"/>
	<path class="st100" d="M580.1,33.3h-3.6v-0.5l1.8-2.2c0.3-0.4,0.5-0.7,0.7-0.9s0.2-0.5,0.2-0.7c0-0.3-0.1-0.5-0.2-0.7
		c-0.2-0.2-0.4-0.3-0.7-0.3c-0.3,0-0.6,0.1-0.8,0.3c-0.2,0.2-0.3,0.5-0.3,0.8h-0.8l0,0c0-0.5,0.1-0.9,0.5-1.2
		c0.3-0.3,0.8-0.5,1.4-0.5c0.5,0,0.9,0.1,1.2,0.4c0.3,0.3,0.4,0.7,0.4,1.1c0,0.3-0.1,0.6-0.3,0.9c-0.2,0.3-0.4,0.7-0.8,1.1l-1.5,1.7
		l0,0h2.7V33.3z"/>
</g>
<g>
	<path class="st100" d="M785.1,102.6v1.8h1.4v1h-1.4v4.5c0,0.3,0.1,0.6,0.2,0.7c0.1,0.1,0.3,0.2,0.6,0.2c0.1,0,0.2,0,0.3,0
		c0.1,0,0.2,0,0.2-0.1l0.2,0.9c-0.1,0.1-0.2,0.2-0.4,0.2s-0.4,0.1-0.6,0.1c-0.5,0-1-0.2-1.3-0.5c-0.3-0.3-0.5-0.9-0.5-1.6v-4.5h-1.2
		v-1h1.2v-1.8H785.1z"/>
</g>
<g>
	<path class="st100" d="M59.7,118.7h-3.3v8.9H55v-8.9h-3.3v-1.1h7.9V118.7z"/>
	<path class="st100" d="M64.1,128.3c0,0.7-0.2,1.2-0.5,1.6s-0.8,0.6-1.4,0.6c-0.6,0-1-0.2-1.4-0.6s-0.5-0.9-0.5-1.6v-1.7
		c0-0.7,0.2-1.2,0.5-1.6c0.3-0.4,0.8-0.6,1.3-0.6c0.6,0,1,0.2,1.4,0.6s0.5,0.9,0.5,1.6V128.3z M63.3,126.4c0-0.4-0.1-0.8-0.3-1
		c-0.2-0.2-0.5-0.4-0.8-0.4c-0.3,0-0.6,0.1-0.8,0.4c-0.2,0.2-0.3,0.6-0.3,1v2c0,0.4,0.1,0.8,0.3,1c0.2,0.2,0.5,0.4,0.8,0.4
		c0.3,0,0.6-0.1,0.8-0.4c0.2-0.2,0.3-0.6,0.3-1V126.4z"/>
</g>
<g>
	<path class="st100" d="M91.8,118.7h-3.3v8.9h-1.4v-8.9h-3.3v-1.1h7.9V118.7z"/>
	<path class="st100" d="M94.9,130.4h-0.8v-5.1l-1.3,0v-0.6l2.1-0.2V130.4z"/>
</g>
<path class="st0" d="M180,184.9c-27.7,0-55.7-70.9-56.9-73.9c-0.2-0.8-22.1-74-51-74c-28.9,0-51.4,72.5-51.7,73.3l-1.9-0.6
	c0.9-3,23.2-74.7,53.6-74.7c30.4,0,52,72.3,52.9,75.3c0.3,0.6,28.7,72.6,55,72.6c26,0,41.2-34.1,55.7-72l1.3-3.4
	c13.6-35.6,27.6-72.5,50.2-72.5c22.7,0,35.5,24.3,54.2,75.3c19.3,52.6,41.7,71.3,56.3,71.3c20.2,0,37.9-22.9,55.7-72
	c20.1-55.6,33.8-75.3,52.2-75.3c18.5,0,36.2,24.8,54.2,75.9c20.5,58.4,41.2,70.7,55,70.7c20.2,0,38.5-24,54.3-71.3l1.9,0.6
	c-16.4,48.9-34.8,72.7-56.2,72.7c-14.4,0-36-12.5-56.9-72c-17.7-50.2-34.8-74.6-52.3-74.6c-17.4,0-30.5,19.4-50.3,74
	c-18.1,50-36.4,73.3-57.5,73.3c-19.8,0-41.5-27.2-58.2-72.7c-18.4-50.1-30.9-74-52.3-74c-21.3,0-35,36.2-48.4,71.2l-1.3,3.4
	C222.8,150.2,207.4,184.9,180,184.9z"/>
<rect x="237.5" y="83.5" class="st98" width="43" height="22.7"/>
<rect x="280.9" y="83.5" class="st98" width="43" height="22.7"/>
<g>
	<path class="st3" d="M261.2,96.4L261.2,96.4c0,1-0.3,1.8-1,2.4c-0.7,0.6-1.6,0.9-2.7,0.9c-1.1,0-2.1-0.4-2.8-1.2s-1.1-1.8-1.1-3.1
		v-1.8c0-1.2,0.4-2.3,1.1-3.1c0.7-0.8,1.6-1.2,2.8-1.2s2,0.3,2.7,0.9s1,1.4,1,2.4l0,0h-1.3c0-0.7-0.2-1.3-0.6-1.7
		c-0.4-0.4-1-0.6-1.7-0.6c-0.8,0-1.4,0.3-1.8,0.9c-0.4,0.6-0.7,1.4-0.7,2.3v1.8c0,0.9,0.2,1.7,0.7,2.3c0.4,0.6,1.1,0.9,1.8,0.9
		c0.8,0,1.3-0.2,1.7-0.6c0.4-0.4,0.6-1,0.6-1.7H261.2z"/>
	<path class="st3" d="M266,100.2c0,0.7-0.2,1.2-0.5,1.6s-0.8,0.6-1.4,0.6c-0.6,0-1-0.2-1.4-0.6s-0.5-0.9-0.5-1.6v-1.7
		c0-0.7,0.2-1.2,0.5-1.6c0.3-0.4,0.8-0.6,1.3-0.6c0.6,0,1,0.2,1.4,0.6s0.5,0.9,0.5,1.6V100.2z M265.2,98.4c0-0.4-0.1-0.8-0.3-1
		c-0.2-0.2-0.5-0.4-0.8-0.4c-0.3,0-0.6,0.1-0.8,0.4c-0.2,0.2-0.3,0.6-0.3,1v2c0,0.4,0.1,0.8,0.3,1c0.2,0.2,0.5,0.4,0.8,0.4
		c0.3,0,0.6-0.1,0.8-0.4c0.2-0.2,0.3-0.6,0.3-1V98.4z"/>
</g>
<g>
	<path class="st3" d="M304.3,96.4L304.3,96.4c0,1-0.3,1.8-1,2.4c-0.7,0.6-1.6,0.9-2.7,0.9c-1.1,0-2.1-0.4-2.8-1.2s-1.1-1.8-1.1-3.1
		v-1.8c0-1.2,0.4-2.3,1.1-3.1c0.7-0.8,1.6-1.2,2.8-1.2c1.1,0,2,0.3,2.7,0.9c0.7,0.6,1,1.4,1,2.4l0,0H303c0-0.7-0.2-1.3-0.6-1.7
		c-0.4-0.4-1-0.6-1.7-0.6c-0.8,0-1.4,0.3-1.8,0.9s-0.7,1.4-0.7,2.3v1.8c0,0.9,0.2,1.7,0.7,2.3s1.1,0.9,1.8,0.9
		c0.8,0,1.3-0.2,1.7-0.6c0.4-0.4,0.6-1,0.6-1.7H304.3z"/>
	<path class="st3" d="M307.7,102.3h-0.8v-5.1l-1.3,0v-0.6l2.1-0.2V102.3z"/>
</g>
<rect x="280.2" y="83.4" class="st3" width="1" height="22.8"/>
</svg>
