<?xml version="1.0" encoding="utf-8"?>
<!-- Generator: Adobe Illustrator 26.5.0, SVG Export Plug-In . SVG Version: 6.00 Build 0)  -->
<svg version="1.1" id="Layer_1" xmlns="http://www.w3.org/2000/svg" xmlns:xlink="http://www.w3.org/1999/xlink" x="0px" y="0px"
	 viewBox="0 0 803 111" style="enable-background:new 0 0 803 111;" xml:space="preserve">
<style type="text/css">
	.st0{fill:#75CEE1;}
	.st1{fill:#7F7F7F;enable-background:new    ;}
	.st2{fill:#74CEE1;}
	.st3{fill:#FFFFFF;}
	.st4{fill:#F4F4F4;stroke:#75CEE1;stroke-width:0.9252;stroke-miterlimit:3.7009;}
	.st5{clip-path:url(#SVGID_00000082360757973558522310000013561126751262102916_);}
	.st6{clip-path:url(#SVGID_00000115507194096276262180000018136455958379267474_);}
	.st7{clip-path:url(#SVGID_00000175320301784708677420000006841483969459836298_);}
	.st8{clip-path:url(#SVGID_00000113319845114188166000000010224454001241577906_);}
	.st9{clip-path:url(#SVGID_00000066486123449899306280000014480415139140258192_);}
	.st10{clip-path:url(#SVGID_00000030460744694398590570000001943620978115104683_);}
	.st11{fill:#5E5E5E;}
	.st12{opacity:0.5;fill:#FFFFFF;enable-background:new    ;}
	.st13{clip-path:url(#SVGID_00000168090771277591214040000000016519808468102031_);}
	.st14{clip-path:url(#SVGID_00000109023164704078938440000000165784842549015980_);}
	.st15{clip-path:url(#SVGID_00000159431641536047348430000001032504897444248499_);}
	.st16{clip-path:url(#SVGID_00000016032949668091066750000011045779183011079558_);}
	.st17{clip-path:url(#SVGID_00000032623911034514633230000003996803018135213440_);}
	.st18{clip-path:url(#SVGID_00000021108397529842879780000010582028033383270321_);}
	.st19{clip-path:url(#SVGID_00000132797586122027247150000009954660828218987962_);}
	.st20{clip-path:url(#SVGID_00000064331391491127734790000012970090663586179775_);}
	.st21{clip-path:url(#SVGID_00000153667365632533091440000004367245101307144850_);}
	.st22{clip-path:url(#SVGID_00000023257320885682852020000009007211703619651471_);}
	.st23{clip-path:url(#SVGID_00000054988888366067467510000011387763060967254458_);}
	.st24{clip-path:url(#SVGID_00000179647767493342123310000008486814444506381957_);}
	.st25{clip-path:url(#SVGID_00000168833231477473688790000018419530456271564465_);}
	.st26{clip-path:url(#SVGID_00000010276961403278422900000018190778694764557454_);}
	.st27{clip-path:url(#SVGID_00000013184094873056472620000013020963271467017123_);}
	.st28{clip-path:url(#SVGID_00000074425095475107599590000015178157704306804381_);}
	.st29{clip-path:url(#SVGID_00000121265176247367662190000005809793841290652579_);}
	.st30{clip-path:url(#SVGID_00000052789053792708308300000001980542211409983918_);}
	.st31{clip-path:url(#SVGID_00000104690780108050187620000007553392506451126198_);}
	.st32{clip-path:url(#SVGID_00000023246337924334095910000006756054281411366564_);}
	.st33{clip-path:url(#SVGID_00000127025258630720498230000010333197140704560267_);}
	.st34{clip-path:url(#SVGID_00000044874880006601560330000004751635375360253326_);}
	.st35{clip-path:url(#SVGID_00000109725934254233021330000003354493161667543456_);}
	.st36{clip-path:url(#SVGID_00000103247514286001139460000002729043111181660860_);}
	.st37{clip-path:url(#SVGID_00000169538411509660708700000005631536571581619338_);}
	.st38{clip-path:url(#SVGID_00000087412902748082727150000001825702011877760402_);}
	.st39{clip-path:url(#SVGID_00000041982222939279389610000014600728202586776240_);}
	.st40{clip-path:url(#SVGID_00000081646734885625522440000009459961134965849005_);}
	.st41{clip-path:url(#SVGID_00000106120449061015572480000016362394905109667496_);}
	.st42{clip-path:url(#SVGID_00000049182005846700009120000012595828477348753294_);}
	.st43{clip-path:url(#SVGID_00000086654253082522385810000007938620050223371438_);}
	.st44{clip-path:url(#SVGID_00000124851070249149104070000014713971786432562318_);}
	.st45{clip-path:url(#SVGID_00000096768240401526900700000015619566545356594840_);}
	.st46{clip-path:url(#SVGID_00000072997347684076552860000005507723078586495153_);}
	.st47{clip-path:url(#SVGID_00000138555242022383927390000002275007867542254465_);}
	.st48{clip-path:url(#SVGID_00000129897598084418348440000015512369380037526706_);}
	.st49{clip-path:url(#SVGID_00000025430749750236785710000004760782380484042402_);}
	.st50{clip-path:url(#SVGID_00000049915883128531795420000008164137880010727835_);}
	.st51{clip-path:url(#SVGID_00000029030056935618830660000009362561599871093663_);}
	.st52{clip-path:url(#SVGID_00000051347624126631749270000013405155937717218220_);}
	.st53{clip-path:url(#SVGID_00000094615206998237213970000002592393409219557020_);}
	.st54{clip-path:url(#SVGID_00000024700528068823011810000015916141735162043534_);}
	.st55{clip-path:url(#SVGID_00000125601526959735441440000006528278851912157368_);}
	.st56{clip-path:url(#SVGID_00000040565816146917073830000016565792855572620686_);}
	.st57{clip-path:url(#SVGID_00000152258177870935060850000007275896546932723332_);}
	.st58{clip-path:url(#SVGID_00000126324392472189580130000012270015926572869258_);}
	.st59{clip-path:url(#SVGID_00000045586748751417427310000000141170688871542958_);}
	.st60{clip-path:url(#SVGID_00000098201213619099084410000011164131755653100446_);}
	.st61{clip-path:url(#SVGID_00000090279447023855300130000008174046555812204456_);}
	.st62{clip-path:url(#SVGID_00000022526096927811509310000001466265487614573443_);}
	.st63{clip-path:url(#SVGID_00000178902782289055673500000004434321640569044616_);}
	.st64{clip-path:url(#SVGID_00000073689603979766080560000002476751317458811268_);}
	.st65{clip-path:url(#SVGID_00000091000318515280126780000008190685676034698641_);}
	.st66{clip-path:url(#SVGID_00000033364000645046769660000009989395681271009442_);}
	.st67{clip-path:url(#SVGID_00000180331901694655073330000000469672378801429640_);}
	.st68{clip-path:url(#SVGID_00000011023347029153955290000007497865515581645219_);}
	.st69{clip-path:url(#SVGID_00000026860426086574876540000006336479823825508020_);}
	.st70{clip-path:url(#SVGID_00000124137283157886726860000014283255493561080746_);}
	.st71{clip-path:url(#SVGID_00000129905954111390343690000016393217761819452555_);}
	.st72{clip-path:url(#SVGID_00000111878424170566218320000002830239011409038221_);}
	.st73{clip-path:url(#SVGID_00000033333353037493709770000014654203966958406273_);}
	.st74{clip-path:url(#SVGID_00000088822125096694051140000010308922541125487500_);}
	.st75{clip-path:url(#SVGID_00000119100324819291750350000005584180298375868604_);}
	.st76{clip-path:url(#SVGID_00000096777229084327398980000002383197811809731472_);}
	.st77{clip-path:url(#SVGID_00000170968536166860948580000001771716754288669845_);}
	.st78{clip-path:url(#SVGID_00000062159795900089712420000006776083715951019423_);}
	.st79{clip-path:url(#SVGID_00000086654990556102442240000007643498823202320815_);}
	.st80{clip-path:url(#SVGID_00000017513205019859228340000011142507753287023271_);}
	.st81{clip-path:url(#SVGID_00000088093788502245801660000007863069673912888989_);}
	.st82{clip-path:url(#SVGID_00000181056641115741147690000007724759349219876000_);}
	.st83{clip-path:url(#SVGID_00000129171116339195335730000007934863037112072842_);}
	.st84{clip-path:url(#SVGID_00000060737207916373943530000002559818190607433645_);}
	.st85{clip-path:url(#SVGID_00000057834776052343310980000013925509274332098950_);}
	.st86{fill:none;stroke:#818181;stroke-miterlimit:3.9437;}
	.st87{clip-path:url(#SVGID_00000045598649227549393470000011828296385689210813_);}
	.st88{fill:none;stroke:#74CEE1;stroke-miterlimit:10;}
	.st89{fill:none;stroke:#000000;stroke-linejoin:round;stroke-miterlimit:10;}
	.st90{fill:#AA2249;}
	.st91{fill:#767DBC;}
	.st92{fill:none;stroke:#5D5E5E;stroke-width:2;stroke-miterlimit:3.9437;}
	.st93{fill:none;stroke:#5D5E5E;stroke-miterlimit:3.9437;}
	.st94{fill:#9A9B9B;}
	.st95{fill:none;stroke:#74CEE1;stroke-width:2.5;stroke-miterlimit:10;}
	.st96{fill:none;stroke:#FFFFFF;stroke-linecap:round;stroke-linejoin:round;}
	.st97{fill:none;stroke:#484545;stroke-linecap:round;stroke-linejoin:round;}
	.st98{fill:#B0B0B0;enable-background:new    ;}
	.st99{fill:#5D5E5E;}
	.st100{fill:#5E5F5F;}
</style>
<path class="st3" d="M18.4,78.7c-0.3,0-0.5-0.2-0.5-0.5V38c0-0.3,0.2-0.5,0.5-0.5s0.5,0.2,0.5,0.5v40.2
	C18.9,78.4,18.7,78.7,18.4,78.7z"/>
<g>
	<rect x="18.5" y="87.2" class="st99" width="738.2" height="2"/>
	<g>
		<polygon class="st99" points="770.8,88.2 750.9,96.4 755.6,88.2 750.9,80.1 		"/>
	</g>
</g>
<rect x="17.4" y="11.3" class="st99" width="2" height="78.1"/>
<rect x="19.4" y="37.9" class="st0" width="139.4" height="49.2"/>
<rect x="158.5" y="37.9" class="st1" width="46.5" height="49.2"/>
<rect x="204.6" y="37.9" class="st98" width="93.4" height="49.2"/>
<rect x="576.5" y="37.9" class="st1" width="46.5" height="49.2"/>
<rect x="622.6" y="37.9" class="st98" width="93.4" height="49.2"/>
<rect x="297.9" y="37.9" class="st0" width="139.4" height="49.2"/>
<rect x="437.3" y="37.9" class="st0" width="139.4" height="49.2"/>
<rect x="158.2" y="37.8" class="st3" width="1" height="49.3"/>
<rect x="204" y="37.8" class="st3" width="1" height="49.3"/>
<rect x="437.2" y="37.8" class="st3" width="1" height="49.3"/>
<rect x="297.8" y="37.8" class="st3" width="1" height="49.3"/>
<rect x="576.7" y="37.8" class="st3" width="1" height="49.3"/>
<rect x="622.5" y="37.8" class="st3" width="1" height="49.3"/>
<g>
	<path class="st3" d="M82.2,65.1h-3.8l-0.9,2.6h-1.4l3.6-10h1.2l3.5,10h-1.4L82.2,65.1z M78.8,64h3l-1.5-4.3h0L78.8,64z"/>
	<path class="st3" d="M88.9,68.3c0,0.7-0.2,1.2-0.5,1.6s-0.8,0.6-1.4,0.6c-0.6,0-1-0.2-1.4-0.6s-0.5-0.9-0.5-1.6v-1.7
		c0-0.7,0.2-1.2,0.5-1.6c0.3-0.4,0.8-0.6,1.3-0.6c0.6,0,1,0.2,1.4,0.6s0.5,0.9,0.5,1.6V68.3z M88.2,66.4c0-0.4-0.1-0.8-0.3-1
		c-0.2-0.2-0.5-0.4-0.8-0.4c-0.3,0-0.6,0.1-0.8,0.4c-0.2,0.2-0.3,0.6-0.3,1v2c0,0.4,0.1,0.8,0.3,1c0.2,0.2,0.5,0.4,0.8,0.4
		c0.3,0,0.6-0.1,0.8-0.4c0.2-0.2,0.3-0.6,0.3-1V66.4z"/>
</g>
<g>
	<path class="st3" d="M363.7,65.1h-3.8l-0.9,2.6h-1.4l3.6-10h1.2l3.5,10h-1.4L363.7,65.1z M360.3,64h3l-1.5-4.3h0L360.3,64z"/>
	<path class="st3" d="M369.1,70.4h-0.8v-5.1l-1.3,0v-0.6l2.1-0.2V70.4z"/>
</g>
<g>
	<path class="st3" d="M505.1,65.1h-3.8l-0.9,2.6H499l3.6-10h1.2l3.5,10h-1.4L505.1,65.1z M501.7,64h3l-1.5-4.3h0L501.7,64z"/>
	<path class="st3" d="M511.8,70.4h-3.6v-0.5l1.8-2.2c0.3-0.4,0.5-0.7,0.7-0.9c0.1-0.2,0.2-0.5,0.2-0.7c0-0.3-0.1-0.5-0.2-0.7
		c-0.2-0.2-0.4-0.3-0.7-0.3c-0.3,0-0.6,0.1-0.8,0.3c-0.2,0.2-0.3,0.5-0.3,0.8h-0.8l0,0c0-0.5,0.1-0.9,0.5-1.2
		c0.3-0.3,0.8-0.5,1.4-0.5c0.5,0,0.9,0.1,1.2,0.4c0.3,0.3,0.4,0.7,0.4,1.1c0,0.3-0.1,0.6-0.3,0.9s-0.4,0.7-0.8,1.1l-1.5,1.7l0,0h2.7
		V70.4z"/>
</g>
<g>
	<path class="st100" d="M786.2,82.5v1.8h1.4v1h-1.4v4.5c0,0.3,0.1,0.6,0.2,0.7c0.1,0.1,0.3,0.2,0.6,0.2c0.1,0,0.2,0,0.3,0
		c0.1,0,0.2,0,0.2-0.1l0.2,0.9c-0.1,0.1-0.2,0.2-0.4,0.2s-0.4,0.1-0.6,0.1c-0.5,0-1-0.2-1.3-0.5c-0.3-0.3-0.5-0.9-0.5-1.6v-4.5h-1.2
		v-1h1.2v-1.8H786.2z"/>
</g>
<g>
	<path class="st3" d="M182.6,58.7h-3.3v8.9h-1.4v-8.9h-3.3v-1.1h7.9V58.7z"/>
	<path class="st3" d="M187,68.3c0,0.7-0.2,1.2-0.5,1.6s-0.8,0.6-1.4,0.6c-0.6,0-1-0.2-1.4-0.6s-0.5-0.9-0.5-1.6v-1.7
		c0-0.7,0.2-1.2,0.5-1.6c0.3-0.4,0.8-0.6,1.3-0.6c0.6,0,1,0.2,1.4,0.6s0.5,0.9,0.5,1.6V68.3z M186.2,66.4c0-0.4-0.1-0.8-0.3-1
		c-0.2-0.2-0.5-0.4-0.8-0.4c-0.3,0-0.6,0.1-0.8,0.4c-0.2,0.2-0.3,0.6-0.3,1v2c0,0.4,0.1,0.8,0.3,1c0.2,0.2,0.5,0.4,0.8,0.4
		c0.3,0,0.6-0.1,0.8-0.4c0.2-0.2,0.3-0.6,0.3-1V66.4z"/>
</g>
<g>
	<path class="st3" d="M249.5,64.5L249.5,64.5c0,1-0.3,1.8-1,2.4c-0.7,0.6-1.6,0.9-2.7,0.9c-1.1,0-2.1-0.4-2.8-1.2s-1.1-1.8-1.1-3.1
		v-1.8c0-1.2,0.4-2.3,1.1-3.1c0.7-0.8,1.6-1.2,2.8-1.2s2,0.3,2.7,0.9s1,1.4,1,2.4l0,0h-1.3c0-0.7-0.2-1.3-0.6-1.7
		c-0.4-0.4-1-0.6-1.7-0.6c-0.8,0-1.4,0.3-1.8,0.9s-0.7,1.4-0.7,2.3v1.8c0,0.9,0.2,1.7,0.7,2.3s1.1,0.9,1.8,0.9
		c0.8,0,1.3-0.2,1.7-0.6c0.4-0.4,0.6-1,0.6-1.7H249.5z"/>
	<path class="st3" d="M254.2,68.3c0,0.7-0.2,1.2-0.5,1.6s-0.8,0.6-1.4,0.6c-0.6,0-1-0.2-1.4-0.6s-0.5-0.9-0.5-1.6v-1.7
		c0-0.7,0.2-1.2,0.5-1.6c0.3-0.4,0.8-0.6,1.3-0.6c0.6,0,1,0.2,1.4,0.6s0.5,0.9,0.5,1.6V68.3z M253.4,66.4c0-0.4-0.1-0.8-0.3-1
		c-0.2-0.2-0.5-0.4-0.8-0.4c-0.3,0-0.6,0.1-0.8,0.4c-0.2,0.2-0.3,0.6-0.3,1v2c0,0.4,0.1,0.8,0.3,1c0.2,0.2,0.5,0.4,0.8,0.4
		c0.3,0,0.6-0.1,0.8-0.4c0.2-0.2,0.3-0.6,0.3-1V66.4z"/>
</g>
<g>
	<path class="st3" d="M604.1,58.7h-3.3v8.9h-1.4v-8.9h-3.3v-1.1h7.9V58.7z"/>
	<path class="st3" d="M607.2,70.4h-0.8v-5.1l-1.3,0v-0.6l2.1-0.2V70.4z"/>
</g>
<g>
	<path class="st3" d="M671,64.5L671,64.5c0,1-0.3,1.8-1,2.4c-0.7,0.6-1.6,0.9-2.7,0.9c-1.1,0-2.1-0.4-2.8-1.2s-1.1-1.8-1.1-3.1v-1.8
		c0-1.2,0.4-2.3,1.1-3.1c0.7-0.8,1.6-1.2,2.8-1.2s2,0.3,2.7,0.9s1,1.4,1,2.4l0,0h-1.3c0-0.7-0.2-1.3-0.6-1.7c-0.4-0.4-1-0.6-1.7-0.6
		c-0.8,0-1.4,0.3-1.8,0.9s-0.7,1.4-0.7,2.3v1.8c0,0.9,0.2,1.7,0.7,2.3s1.1,0.9,1.8,0.9c0.8,0,1.3-0.2,1.7-0.6c0.4-0.4,0.6-1,0.6-1.7
		H671z"/>
	<path class="st3" d="M674.4,70.4h-0.8v-5.1l-1.3,0v-0.6l2.1-0.2V70.4z"/>
</g>
</svg>
