<svg id="Layer_1" data-name="Layer 1" xmlns="http://www.w3.org/2000/svg" xmlns:xlink="http://www.w3.org/1999/xlink" viewBox="0 0 340 120.25"><defs><style>.cls-1,.cls-13,.cls-16,.cls-19,.cls-20,.cls-8{fill:none;}.cls-1{stroke:#5e5f5f;stroke-width:0.75px;}.cls-1,.cls-13,.cls-14,.cls-16,.cls-19,.cls-22,.cls-3,.cls-4,.cls-6,.cls-8{stroke-miterlimit:10;}.cls-2{clip-path:url(#clip-path);}.cls-10,.cls-12,.cls-14,.cls-23,.cls-24,.cls-26,.cls-27,.cls-3,.cls-5,.cls-6,.cls-9{fill:#fff;}.cls-14,.cls-3,.cls-4{stroke:#8e8e8e;}.cls-15,.cls-4{fill:#8e8e8e;}.cls-13,.cls-14,.cls-16,.cls-22,.cls-4,.cls-6,.cls-8{stroke-width:0.25px;}.cls-16,.cls-19,.cls-6,.cls-8{stroke:#fff;}.cls-7{fill:#7ac25c;}.cls-20,.cls-8{stroke-linecap:round;}.cls-10,.cls-9{font-size:7.72px;}.cls-10,.cls-12,.cls-23,.cls-24,.cls-26,.cls-27,.cls-9{font-family:ArialMT, Arial;}.cls-10{letter-spacing:0em;}.cls-11{letter-spacing:-0.07em;}.cls-12{font-size:6.81px;}.cls-13{stroke:#74cee1;}.cls-17{clip-path:url(#clip-path-2);}.cls-18{clip-path:url(#clip-path-3);}.cls-20{stroke:#454546;stroke-miterlimit:3.94;}.cls-21{clip-path:url(#clip-path-4);}.cls-22{fill:#78797b;stroke:#78797b;}.cls-23,.cls-24{font-size:7.13px;}.cls-24{letter-spacing:0em;}.cls-25{letter-spacing:-0.07em;}.cls-26,.cls-27{font-size:6.29px;}.cls-26{letter-spacing:0em;}</style><clipPath id="clip-path"><circle class="cls-1" cx="191.58" cy="95.49" r="21.82"/></clipPath><clipPath id="clip-path-2"><circle class="cls-1" cx="314.58" cy="95.49" r="21.82"/></clipPath><clipPath id="clip-path-3"><circle class="cls-1" cx="253.08" cy="95.49" r="21.82"/></clipPath><clipPath id="clip-path-4"><circle class="cls-1" cx="195.43" cy="32.86" r="30.65"/></clipPath></defs><g class="cls-2"><rect class="cls-3" x="141.5" y="47.29" width="337.34" height="112.61" rx="1.25"/><path class="cls-4" d="M113.29,49.52H141.5a0,0,0,0,1,0,0V157.67a0,0,0,0,1,0,0H113.29a3.22,3.22,0,0,1-3.22-3.22V52.74A3.22,3.22,0,0,1,113.29,49.52Z"/><path class="cls-5" d="M115.43,52.24h25.08a0,0,0,0,1,0,0v101.7a0,0,0,0,1,0,0H115.43a1.92,1.92,0,0,1-1.92-1.92V54.16A1.92,1.92,0,0,1,115.43,52.24Z"/><path class="cls-4" d="M472.4,134.22v20.11H149.05V53H472.4v63.55l0,.78a13.57,13.57,0,0,1,0,15.37Z"/><ellipse class="cls-6" cx="170.95" cy="74.05" rx="15.41" ry="15.68"/><ellipse class="cls-6" cx="170.77" cy="130.47" rx="12.62" ry="12.85"/><path class="cls-4" d="M267.72,35.78l76.6-.24s6.81,0,11,4.82S361.15,47,364,47.29H246.19s8.17-1.61,11.14-7.3C257.33,40,259.18,35.91,267.72,35.78Z"/><circle class="cls-7" cx="181.67" cy="97.39" r="2"/><circle class="cls-5" cx="191.88" cy="97.39" r="2"/><circle class="cls-5" cx="202" cy="97.3" r="2"/><path class="cls-8" d="M180.51,91.93l7.89-.09s.83-1.11,1.48-1.11,1.12,1,1.12,1l1.48-.1.19,1.21.93-5.57.46,6.13.84-1.58,1.85-.09s.68-1.43,1.43-1.43,1.36,1.52,1.36,1.52h2.6"/><text class="cls-9" transform="translate(166.67 96.76)">S</text><text class="cls-9" transform="translate(212.58 93.79)">HDI</text><text class="cls-9" transform="translate(204.04 112.72)">ICS</text><text class="cls-10" transform="translate(216.91 110.15) scale(0.58)">42</text><text class="cls-9" transform="translate(329.64 112.72)">ICS</text><text class="cls-10" transform="translate(342.52 110.15) scale(0.58)">42</text><text class="cls-9" transform="translate(295.49 93.79)">CAN</text><text class="cls-9" transform="translate(311.79 94.1) scale(0.58)">1</text><text class="cls-9" transform="translate(158.87 113.65)"><tspan class="cls-11">T</tspan><tspan x="4.14" y="0">AC1</tspan></text><text class="cls-12" transform="translate(178.03 113.65) scale(0.58)">2</text><text class="cls-9" transform="translate(254.03 112.04)">1</text><text class="cls-12" transform="translate(258.33 112.04) scale(0.58)">23</text><text class="cls-9" transform="translate(309.81 111.8)">4</text><text class="cls-12" transform="translate(314.1 111.79) scale(0.58)">56</text><text class="cls-9" transform="translate(324.07 93.79)">CAN</text><text class="cls-9" transform="translate(340.38 94.1) scale(0.58)">2</text><path class="cls-6" d="M324.72,81.72a16.19,16.19,0,0,0-13.54.19l-.37.2a13.7,13.7,0,0,1-13.74-.28l-.46-.25a13.65,13.65,0,0,0-6-1.5,13.79,13.79,0,0,0-6.47,1.59l-.33.18a13.64,13.64,0,0,1-7.66,2.34A12.93,12.93,0,0,1,268.8,82l-.71-.35A13.88,13.88,0,0,0,262,80.27a12.63,12.63,0,0,0-6.19,1.5l-.58.31a13.72,13.72,0,0,1-15-.26l-.57-.31a11.42,11.42,0,0,0-5.44-1.43,11.67,11.67,0,0,0-5.89,1.59l-1.42.89a13.6,13.6,0,0,1-6.82,1.82,14.12,14.12,0,0,1,0-28.24,13.72,13.72,0,0,1,7.41,2.17l1.1.63a10.79,10.79,0,0,0,5.28,1.38,11.26,11.26,0,0,0,5.76-1.64l.54-.31a13.65,13.65,0,0,1,16,.37l.48.32a11.26,11.26,0,0,0,11-.26l.55-.36a13.68,13.68,0,0,1,15.74,0l.28.19a11.94,11.94,0,0,0,11.51-.2l.45-.32a13.68,13.68,0,0,1,16.22.27l.47.32a11.3,11.3,0,0,0,5.42,1.37,11.5,11.5,0,0,0,5.82-1.58l.45-.31a13.64,13.64,0,0,1,7.76-2.41,14.12,14.12,0,0,1,0,28.24,13.72,13.72,0,0,1-7.28-2.09Z"/><path class="cls-6" d="M421.4,141.21a10.73,10.73,0,0,0-5.28-1.34,10.56,10.56,0,0,0-5.6,1.51l-.52.34a13.68,13.68,0,0,1-16.34.3l-.47-.29a10.07,10.07,0,0,0-10.44.18l-.35.25a13.7,13.7,0,0,1-17.09-.67l-.4-.25a10.12,10.12,0,0,0-10.76.14l-.32.24a13.64,13.64,0,0,1-8.5,3A13.9,13.9,0,0,1,332.19,135l-.19-.44a7,7,0,0,0-6.09-3.36l-.4,0a6.19,6.19,0,1,1,3.16-11.51l.39.22a6.41,6.41,0,0,0,6.59.33l.68-.45a13.31,13.31,0,0,1,9-3.44,13.67,13.67,0,0,1,9,3.37l.3.24a8.71,8.71,0,0,0,5.27,1.77,9.05,9.05,0,0,0,5.72-2l.26-.21a13.69,13.69,0,0,1,17.23.33l.2.16a7.49,7.49,0,0,0,9.31-.23l.25-.22a13.69,13.69,0,0,1,18,.37l.37.27a7.85,7.85,0,0,0,4.58,1.44,8.1,8.1,0,0,0,4.94-1.72l.39-.31a13.63,13.63,0,0,1,9.11-3.48,14.13,14.13,0,0,1,0,28.25A13.67,13.67,0,0,1,422,141.6Z"/><ellipse class="cls-13" cx="160.37" cy="72.2" rx="10.49" ry="10.67"/><path class="cls-13" d="M159.68,82.85l.69,0a10.68,10.68,0,0,0,0-21.35"/><path class="cls-4" d="M168.49,62.56a11.33,11.33,0,0,1-.68,22.63l-8.13-2.34.69,0a10.68,10.68,0,0,0,.68-21.33Z"/><path class="cls-4" d="M216.7,58.29a10.39,10.39,0,0,1-2.81,20.49,11,11,0,0,1-4.69-1l5.29,3.9a12.49,12.49,0,0,0,4,.67A11.69,11.69,0,0,0,221,59.12Z"/><path class="cls-4" d="M315.5,68.41a11.28,11.28,0,0,1,.23,2.27,11,11,0,1,1-22,0l.24-2.35a10.64,10.64,0,1,0,21.28.18c0-.06,0-1.19,0-1.25Z"/><path class="cls-4" d="M326.65,61.3a10.9,10.9,0,0,0-2.75,7.28,10.61,10.61,0,0,0,10.46,10.76,10.32,10.32,0,0,0,7.74-3.52L339.63,79a10.73,10.73,0,0,1-7.48,3A11.1,11.1,0,0,1,321.21,70.8,11.49,11.49,0,0,1,322.79,65Z"/><ellipse class="cls-4" cx="248.11" cy="70.49" rx="11.2" ry="11.4"/><ellipse class="cls-4" cx="276.45" cy="70.49" rx="11.2" ry="11.4"/><ellipse class="cls-14" cx="160.37" cy="72.2" rx="10.49" ry="10.67"/><ellipse class="cls-14" cx="213.89" cy="68.36" rx="10.77" ry="10.43"/><ellipse class="cls-14" cx="304.6" cy="68.33" rx="10.64" ry="10.89"/><ellipse class="cls-14" cx="334.36" cy="68.58" rx="10.46" ry="10.77"/><path class="cls-15" d="M162.29,65.09a7.72,7.72,0,1,0,7.36,7.72A7.55,7.55,0,0,0,162.29,65.09Zm2,3.18a1.19,1.19,0,1,1-1,1.17A1.1,1.1,0,0,1,164.24,68.27Zm-4,0a1.19,1.19,0,1,1-1,1.17A1.1,1.1,0,0,1,160.22,68.27Zm-2,5.56a1.19,1.19,0,1,1,1-1.17A1.1,1.1,0,0,1,158.24,73.83Zm1.91,3.47a1.19,1.19,0,1,1,1-1.18A1.11,1.11,0,0,1,160.15,77.3Zm2.11-3.4a1.19,1.19,0,1,1,1-1.18A1.11,1.11,0,0,1,162.26,73.9Zm1.79,3.34a1.19,1.19,0,0,1,0-2.35,1.19,1.19,0,0,1,0,2.35Zm2-3.34a1.19,1.19,0,0,1,0-2.35,1.19,1.19,0,0,1,0,2.35Z"/><path class="cls-15" d="M215.13,61a7.72,7.72,0,1,0,7.36,7.71A7.54,7.54,0,0,0,215.13,61Zm2,3.17a1.19,1.19,0,0,1,0,2.35,1.19,1.19,0,0,1,0-2.35Zm-4,0a1.19,1.19,0,0,1,0,2.35,1.19,1.19,0,0,1,0-2.35Zm-2,5.57a1.19,1.19,0,1,1,1-1.17A1.1,1.1,0,0,1,211.08,69.75ZM213,73.22A1.19,1.19,0,1,1,214,72,1.11,1.11,0,0,1,213,73.22Zm2.11-3.41a1.19,1.19,0,0,1,0-2.35,1.19,1.19,0,0,1,0,2.35Zm1.79,3.34a1.19,1.19,0,1,1,1-1.17A1.1,1.1,0,0,1,216.89,73.15Zm2-3.34a1.19,1.19,0,1,1,1-1.17A1.1,1.1,0,0,1,218.93,69.81Z"/><path class="cls-15" d="M304.81,61.14a7.72,7.72,0,1,0,7.36,7.71A7.53,7.53,0,0,0,304.81,61.14Zm1.95,3.17a1.19,1.19,0,1,1-1,1.18A1.11,1.11,0,0,1,306.76,64.31Zm-4,0a1.19,1.19,0,1,1-1,1.18A1.11,1.11,0,0,1,302.74,64.31Zm-2,5.57a1.19,1.19,0,1,1,1-1.17A1.1,1.1,0,0,1,300.76,69.88Zm1.92,3.47a1.19,1.19,0,1,1,1-1.18A1.11,1.11,0,0,1,302.68,73.35Zm2.1-3.41a1.19,1.19,0,1,1,1-1.17A1.1,1.1,0,0,1,304.78,69.94Zm1.8,3.35a1.19,1.19,0,1,1,1-1.18A1.11,1.11,0,0,1,306.58,73.29Zm2-3.35a1.19,1.19,0,1,1,1-1.17A1.1,1.1,0,0,1,308.62,69.94Z"/><path class="cls-15" d="M334.14,61.08a7.72,7.72,0,1,0,7.36,7.71A7.53,7.53,0,0,0,334.14,61.08Zm1.95,3.17a1.19,1.19,0,1,1-1,1.18A1.11,1.11,0,0,1,336.09,64.25Zm-4,0a1.19,1.19,0,1,1-1,1.18A1.11,1.11,0,0,1,332.07,64.25Zm-2,5.57a1.19,1.19,0,1,1,1-1.18A1.11,1.11,0,0,1,330.09,69.82ZM332,73.29a1.19,1.19,0,1,1,1-1.18A1.11,1.11,0,0,1,332,73.29Zm2.1-3.41a1.19,1.19,0,1,1,1-1.17A1.1,1.1,0,0,1,334.11,69.88Zm1.8,3.34a1.19,1.19,0,0,1,0-2.35,1.19,1.19,0,0,1,0,2.35Zm2-3.34a1.19,1.19,0,0,1,0-2.35,1.19,1.19,0,0,1,0,2.35Z"/><path class="cls-4" d="M163.89,141.29a10.37,10.37,0,0,0-1-20.65h-.28l6.25-1.19a11,11,0,1,1,1.82,21.85Z"/><ellipse class="cls-4" cx="345.13" cy="131.38" rx="11.2" ry="11.4"/><rect class="cls-5" x="167.49" y="100.5" width="285.61" height="5.2" rx="0.97"/><polygon class="cls-16" points="206.84 151.98 205.6 149.01 205.72 139.36 200.16 133.79 194.09 133.79 193.22 133.3 193.22 117.46 193.97 116.96 198.67 116.96 199.41 116.22 199.41 105.7 200.03 104.83 200.03 103.1 201.15 102.73 448.64 102.73 450.74 105.7 450.74 116.34 449.75 117.33 445.05 117.33 444.31 118.08 444.31 133.3 445.92 133.91 451.61 133.91 456.93 139.48 456.93 149.01 455.45 151.98 206.84 151.98"/><polyline class="cls-16" points="332.75 152.04 331.51 149.07 331.64 139.42 326.07 133.85 320 133.85 319.14 133.36 319.14 117.52 319.88 117.02 324.58 117.02 325.33 116.28 325.33 105.76 325.94 104.9 325.94 103.16 327.06 102.79"/><path class="cls-6" d="M203.56,120.57a6.19,6.19,0,1,0-3.9,11,6.59,6.59,0,0,0,1.09-.09l.37-.05a5,5,0,0,1,.78-.06,5.11,5.11,0,0,1,4.6,3.07l.17.56A13.91,13.91,0,0,0,220,145.08a13.69,13.69,0,0,0,8.52-3l.39-.29a10.23,10.23,0,0,1,5.48-1.55,10.11,10.11,0,0,1,5.11,1.36l.56.37a13.69,13.69,0,0,0,17.54-.2l.3-.26a8.11,8.11,0,0,1,4.78-1.59,8.63,8.63,0,0,1,4.64,1.38l.15.13a13.71,13.71,0,0,0,17.57-.13l.32-.21a9.06,9.06,0,0,1,9.83-.1l.39.29a13.75,13.75,0,0,0,9.31,3.65,14.13,14.13,0,0,0,0-28.25,13.66,13.66,0,0,0-8.14,2.69l-.28.2a11.14,11.14,0,0,1-5.73,1.54,10.83,10.83,0,0,1-5.31-1.28l-.42-.29a13.69,13.69,0,0,0-16.79-.68l-.44.31a11.16,11.16,0,0,1-10.92.28l-.42-.25a13.69,13.69,0,0,0-15.84.27l-.33.24a11.78,11.78,0,0,1-5.9,1.59,11.39,11.39,0,0,1-5.49-1.27l-.39-.27a13.7,13.7,0,0,0-17.9.79l-.28.24a5.54,5.54,0,0,1-3.25,1,5.34,5.34,0,0,1-3.27-1.12Z"/><ellipse class="cls-4" cx="305.09" cy="131.07" rx="11.88" ry="12"/><path class="cls-4" d="M244.16,142.76a10.22,10.22,0,0,0,0-20.42,9.58,9.58,0,0,0-5.95,2.08l1.38-1.59a11.27,11.27,0,0,1,8.33-3.7,11.92,11.92,0,0,1,0,23.82Z"/><ellipse class="cls-4" cx="276.2" cy="131.38" rx="11.2" ry="11.4"/><ellipse class="cls-4" cx="219.03" cy="131.63" rx="11.2" ry="11.4"/></g><circle class="cls-1" cx="191.58" cy="95.49" r="21.82"/><g class="cls-17"><rect class="cls-3" x="264.5" y="47.29" width="337.34" height="112.61" rx="1.25"/><path class="cls-4" d="M236.29,49.52H264.5a0,0,0,0,1,0,0V157.67a0,0,0,0,1,0,0H236.29a3.22,3.22,0,0,1-3.22-3.22V52.74A3.22,3.22,0,0,1,236.29,49.52Z"/><path class="cls-5" d="M238.43,52.24h25.08a0,0,0,0,1,0,0v101.7a0,0,0,0,1,0,0H238.43a1.92,1.92,0,0,1-1.92-1.92V54.16A1.92,1.92,0,0,1,238.43,52.24Z"/><path class="cls-4" d="M595.4,134.22v20.11H272.05V53H595.4v63.55l0,.78a13.57,13.57,0,0,1,0,15.37Z"/><ellipse class="cls-6" cx="293.95" cy="74.05" rx="15.41" ry="15.68"/><ellipse class="cls-6" cx="293.77" cy="130.47" rx="12.62" ry="12.85"/><circle class="cls-7" cx="304.67" cy="97.39" r="2"/><circle class="cls-7" cx="314.88" cy="97.39" r="2"/><circle class="cls-7" cx="325" cy="97.3" r="2"/><path class="cls-8" d="M303.51,91.93l7.89-.09s.83-1.11,1.48-1.11,1.12,1,1.12,1l1.48-.1.19,1.21.93-5.57.46,6.13.84-1.58,1.85-.09s.68-1.43,1.43-1.43,1.36,1.52,1.36,1.52h2.6"/><text class="cls-9" transform="translate(289.67 96.76)">S</text><text class="cls-9" transform="translate(335.58 93.79)">HDI</text><text class="cls-9" transform="translate(327.04 112.72)">ICS</text><text class="cls-10" transform="translate(339.91 110.15) scale(0.58)">42</text><text class="cls-9" transform="translate(281.87 113.65)"><tspan class="cls-11">T</tspan><tspan x="4.14" y="0">AC1</tspan></text><text class="cls-12" transform="translate(301.03 113.65) scale(0.58)">2</text><path class="cls-6" d="M447.72,81.72a16.19,16.19,0,0,0-13.54.19l-.37.2a13.7,13.7,0,0,1-13.74-.28l-.46-.25a13.65,13.65,0,0,0-6-1.5,13.79,13.79,0,0,0-6.47,1.59l-.33.18a13.64,13.64,0,0,1-7.66,2.34A12.93,12.93,0,0,1,391.8,82l-.71-.35A13.88,13.88,0,0,0,385,80.27a12.63,12.63,0,0,0-6.19,1.5l-.58.31a13.72,13.72,0,0,1-15-.26l-.57-.31a11.42,11.42,0,0,0-5.44-1.43,11.67,11.67,0,0,0-5.89,1.59l-1.42.89a13.6,13.6,0,0,1-6.82,1.82,14.12,14.12,0,0,1,0-28.24,13.72,13.72,0,0,1,7.41,2.17l1.1.63a10.79,10.79,0,0,0,5.28,1.38,11.26,11.26,0,0,0,5.76-1.64l.54-.31a13.65,13.65,0,0,1,16,.37l.48.32a11.26,11.26,0,0,0,11-.26l.55-.36a13.68,13.68,0,0,1,15.74,0l.28.19a11.94,11.94,0,0,0,11.51-.2l.45-.32a13.68,13.68,0,0,1,16.22.27l.47.32a11.3,11.3,0,0,0,5.42,1.37,11.5,11.5,0,0,0,5.82-1.58l.45-.31a13.64,13.64,0,0,1,7.76-2.41,14.12,14.12,0,0,1,0,28.24,13.72,13.72,0,0,1-7.28-2.09Z"/><ellipse class="cls-13" cx="283.37" cy="72.2" rx="10.49" ry="10.67"/><path class="cls-13" d="M282.68,82.85l.69,0a10.68,10.68,0,0,0,0-21.35"/><path class="cls-4" d="M291.49,62.56a11.33,11.33,0,0,1-.68,22.63l-8.13-2.34.69,0a10.68,10.68,0,0,0,.68-21.33Z"/><path class="cls-4" d="M339.7,58.29a10.39,10.39,0,0,1-2.81,20.49,11,11,0,0,1-4.69-1l5.29,3.9a12.49,12.49,0,0,0,4,.67A11.69,11.69,0,0,0,344,59.12Z"/><ellipse class="cls-14" cx="283.37" cy="72.2" rx="10.49" ry="10.67"/><ellipse class="cls-14" cx="336.89" cy="68.36" rx="10.77" ry="10.43"/><path class="cls-15" d="M285.29,65.09a7.72,7.72,0,1,0,7.36,7.72A7.55,7.55,0,0,0,285.29,65.09Zm1.95,3.18a1.19,1.19,0,1,1-1,1.17A1.1,1.1,0,0,1,287.24,68.27Zm-4,0a1.19,1.19,0,1,1-1,1.17A1.1,1.1,0,0,1,283.22,68.27Zm-2,5.56a1.19,1.19,0,1,1,1-1.17A1.1,1.1,0,0,1,281.24,73.83Zm1.91,3.47a1.19,1.19,0,1,1,1-1.18A1.11,1.11,0,0,1,283.15,77.3Zm2.11-3.4a1.19,1.19,0,1,1,1-1.18A1.11,1.11,0,0,1,285.26,73.9Zm1.79,3.34a1.19,1.19,0,0,1,0-2.35,1.19,1.19,0,0,1,0,2.35Zm2-3.34a1.19,1.19,0,0,1,0-2.35,1.19,1.19,0,0,1,0,2.35Z"/><path class="cls-15" d="M338.13,61a7.72,7.72,0,1,0,7.36,7.71A7.54,7.54,0,0,0,338.13,61Zm1.95,3.17a1.19,1.19,0,0,1,0,2.35,1.19,1.19,0,0,1,0-2.35Zm-4,0a1.19,1.19,0,0,1,0,2.35,1.19,1.19,0,0,1,0-2.35Zm-2,5.57a1.19,1.19,0,1,1,1-1.17A1.1,1.1,0,0,1,334.08,69.75ZM336,73.22A1.19,1.19,0,1,1,337,72,1.11,1.11,0,0,1,336,73.22Zm2.11-3.41a1.19,1.19,0,0,1,0-2.35,1.19,1.19,0,0,1,0,2.35Zm1.79,3.34a1.19,1.19,0,1,1,1-1.17A1.1,1.1,0,0,1,339.89,73.15Zm2-3.34a1.19,1.19,0,1,1,1-1.17A1.1,1.1,0,0,1,341.93,69.81Z"/><path class="cls-4" d="M286.89,141.29a10.37,10.37,0,0,0-1-20.65h-.28l6.25-1.19a11,11,0,1,1,1.82,21.85Z"/><rect class="cls-5" x="290.49" y="100.5" width="285.61" height="5.2" rx="0.97"/><polygon class="cls-16" points="329.84 151.98 328.6 149.01 328.72 139.36 323.15 133.79 317.09 133.79 316.23 133.3 316.23 117.46 316.97 116.96 321.67 116.96 322.41 116.22 322.41 105.7 323.03 104.83 323.03 103.1 324.14 102.73 571.64 102.73 573.74 105.7 573.74 116.34 572.75 117.33 568.05 117.33 567.31 118.08 567.31 133.3 568.92 133.91 574.61 133.91 579.93 139.48 579.93 149.01 578.45 151.98 329.84 151.98"/><path class="cls-6" d="M326.56,120.57a6.19,6.19,0,1,0-3.9,11,6.59,6.59,0,0,0,1.09-.09l.37-.05a5,5,0,0,1,.78-.06,5.11,5.11,0,0,1,4.6,3.07l.17.56A13.91,13.91,0,0,0,343,145.08a13.69,13.69,0,0,0,8.52-3l.39-.29a10.23,10.23,0,0,1,5.48-1.55,10.11,10.11,0,0,1,5.11,1.36l.56.37a13.69,13.69,0,0,0,17.54-.2l.3-.26a8.11,8.11,0,0,1,4.78-1.59,8.63,8.63,0,0,1,4.64,1.38l.15.13a13.71,13.71,0,0,0,17.57-.13l.32-.21a9.06,9.06,0,0,1,9.83-.1l.39.29a13.75,13.75,0,0,0,9.31,3.65,14.13,14.13,0,0,0,0-28.25,13.66,13.66,0,0,0-8.14,2.69l-.28.2a11.14,11.14,0,0,1-5.73,1.54,10.83,10.83,0,0,1-5.31-1.28l-.42-.29a13.69,13.69,0,0,0-16.79-.68l-.44.31a11.16,11.16,0,0,1-10.92.28l-.42-.25a13.69,13.69,0,0,0-15.84.27l-.33.24a11.78,11.78,0,0,1-5.9,1.59,11.39,11.39,0,0,1-5.49-1.27l-.39-.27a13.7,13.7,0,0,0-17.9.79l-.28.24a5.54,5.54,0,0,1-3.25,1,5.34,5.34,0,0,1-3.27-1.12Z"/><ellipse class="cls-4" cx="342.03" cy="131.63" rx="11.2" ry="11.4"/></g><circle class="cls-1" cx="314.58" cy="95.49" r="21.82"/><g class="cls-18"><rect class="cls-3" x="203" y="47.29" width="337.34" height="112.61" rx="1.25"/><path class="cls-4" d="M174.79,49.52H203a0,0,0,0,1,0,0V157.67a0,0,0,0,1,0,0H174.79a3.22,3.22,0,0,1-3.22-3.22V52.74A3.22,3.22,0,0,1,174.79,49.52Z"/><path class="cls-5" d="M176.93,52.24H202a0,0,0,0,1,0,0v101.7a0,0,0,0,1,0,0H176.93A1.92,1.92,0,0,1,175,152V54.16A1.92,1.92,0,0,1,176.93,52.24Z"/><path class="cls-4" d="M533.9,134.22v20.11H210.55V53H533.9v63.55l0,.78a13.57,13.57,0,0,1,0,15.37Z"/><ellipse class="cls-6" cx="232.45" cy="74.05" rx="15.41" ry="15.68"/><ellipse class="cls-6" cx="232.27" cy="130.47" rx="12.62" ry="12.85"/><path class="cls-4" d="M329.22,35.78l76.6-.24s6.81,0,11,4.82,5.82,6.68,8.67,6.93H307.69s8.17-1.61,11.14-7.3C318.83,40,320.68,35.91,329.22,35.78Z"/><circle class="cls-7" cx="243.17" cy="97.39" r="2"/><circle class="cls-7" cx="253.38" cy="97.39" r="2"/><circle class="cls-5" cx="263.5" cy="97.3" r="2"/><path class="cls-8" d="M242,91.93l7.89-.09s.83-1.11,1.48-1.11,1.12,1,1.12,1l1.48-.1.19,1.21.93-5.57.46,6.13.84-1.58,1.85-.09s.68-1.43,1.43-1.43S261,91.84,261,91.84h2.6"/><text class="cls-9" transform="translate(228.17 96.76)">S</text><text class="cls-9" transform="translate(274.08 93.79)">HDI</text><text class="cls-9" transform="translate(265.54 112.72)">ICS</text><text class="cls-10" transform="translate(278.41 110.15) scale(0.58)">42</text><text class="cls-9" transform="translate(220.37 113.65)"><tspan class="cls-11">T</tspan><tspan x="4.14" y="0">AC1</tspan></text><text class="cls-12" transform="translate(239.53 113.65) scale(0.58)">2</text><text class="cls-9" transform="translate(315.53 112.04)">1</text><text class="cls-12" transform="translate(319.83 112.04) scale(0.58)">23</text><path class="cls-6" d="M386.22,81.72a16.19,16.19,0,0,0-13.54.19l-.37.2a13.7,13.7,0,0,1-13.74-.28l-.46-.25a13.65,13.65,0,0,0-6-1.5,13.79,13.79,0,0,0-6.47,1.59l-.33.18a13.64,13.64,0,0,1-7.66,2.34A12.93,12.93,0,0,1,330.3,82l-.71-.35a13.88,13.88,0,0,0-6.07-1.38,12.63,12.63,0,0,0-6.19,1.5l-.58.31a13.72,13.72,0,0,1-15-.26l-.57-.31a11.42,11.42,0,0,0-5.44-1.43,11.67,11.67,0,0,0-5.89,1.59l-1.42.89a13.6,13.6,0,0,1-6.82,1.82,14.12,14.12,0,0,1,0-28.24A13.72,13.72,0,0,1,289,58.31l1.1.63a10.79,10.79,0,0,0,5.28,1.38,11.26,11.26,0,0,0,5.76-1.64l.54-.31a13.65,13.65,0,0,1,16,.37l.48.32a11.26,11.26,0,0,0,11-.26l.55-.36a13.68,13.68,0,0,1,15.74,0l.28.19a11.94,11.94,0,0,0,11.51-.2l.45-.32a13.68,13.68,0,0,1,16.22.27l.47.32a11.3,11.3,0,0,0,5.42,1.37,11.5,11.5,0,0,0,5.82-1.58l.45-.31a13.64,13.64,0,0,1,7.76-2.41,14.12,14.12,0,0,1,0,28.24,13.72,13.72,0,0,1-7.28-2.09Z"/><ellipse class="cls-13" cx="221.87" cy="72.2" rx="10.49" ry="10.67"/><path class="cls-13" d="M221.18,82.85l.69,0a10.68,10.68,0,0,0,0-21.35"/><path class="cls-4" d="M230,62.56a11.33,11.33,0,0,1-.68,22.63l-8.13-2.34.69,0a10.68,10.68,0,0,0,.68-21.33Z"/><path class="cls-4" d="M278.2,58.29a10.39,10.39,0,0,1-2.81,20.49,11,11,0,0,1-4.69-1l5.29,3.9a12.49,12.49,0,0,0,4,.67,11.69,11.69,0,0,0,2.44-23.19Z"/><ellipse class="cls-4" cx="309.61" cy="70.49" rx="11.2" ry="11.4"/><ellipse class="cls-4" cx="337.95" cy="70.49" rx="11.2" ry="11.4"/><ellipse class="cls-14" cx="221.87" cy="72.2" rx="10.49" ry="10.67"/><ellipse class="cls-14" cx="275.39" cy="68.36" rx="10.77" ry="10.43"/><path class="cls-15" d="M223.79,65.09a7.72,7.72,0,1,0,7.36,7.72A7.55,7.55,0,0,0,223.79,65.09Zm2,3.18a1.19,1.19,0,1,1-1,1.17A1.1,1.1,0,0,1,225.74,68.27Zm-4,0a1.19,1.19,0,1,1-1,1.17A1.1,1.1,0,0,1,221.72,68.27Zm-2,5.56a1.19,1.19,0,1,1,1-1.17A1.1,1.1,0,0,1,219.74,73.83Zm1.91,3.47a1.19,1.19,0,1,1,1-1.18A1.11,1.11,0,0,1,221.65,77.3Zm2.11-3.4a1.19,1.19,0,1,1,1-1.18A1.11,1.11,0,0,1,223.76,73.9Zm1.79,3.34a1.19,1.19,0,0,1,0-2.35,1.19,1.19,0,0,1,0,2.35Zm2-3.34a1.19,1.19,0,0,1,0-2.35,1.19,1.19,0,0,1,0,2.35Z"/><path class="cls-15" d="M276.63,61A7.72,7.72,0,1,0,284,68.72,7.54,7.54,0,0,0,276.63,61Zm1.95,3.17a1.19,1.19,0,0,1,0,2.35,1.19,1.19,0,0,1,0-2.35Zm-4,0a1.19,1.19,0,0,1,0,2.35,1.19,1.19,0,0,1,0-2.35Zm-2,5.57a1.19,1.19,0,1,1,1-1.17A1.1,1.1,0,0,1,272.58,69.75Zm1.91,3.47a1.19,1.19,0,1,1,1-1.18A1.11,1.11,0,0,1,274.49,73.22Zm2.11-3.41a1.19,1.19,0,0,1,0-2.35,1.19,1.19,0,0,1,0,2.35Zm1.79,3.34a1.19,1.19,0,1,1,1-1.17A1.1,1.1,0,0,1,278.39,73.15Zm2-3.34a1.19,1.19,0,1,1,1-1.17A1.1,1.1,0,0,1,280.43,69.81Z"/><path class="cls-4" d="M225.39,141.29a10.37,10.37,0,0,0-1-20.65h-.28l6.25-1.19a11,11,0,1,1,1.82,21.85Z"/><rect class="cls-5" x="228.99" y="100.5" width="285.61" height="5.2" rx="0.97"/><polygon class="cls-16" points="268.34 151.98 267.1 149.01 267.22 139.36 261.65 133.79 255.59 133.79 254.72 133.3 254.72 117.46 255.47 116.96 260.17 116.96 260.91 116.22 260.91 105.7 261.53 104.83 261.53 103.1 262.64 102.73 510.14 102.73 512.24 105.7 512.24 116.34 511.25 117.33 506.55 117.33 505.81 118.08 505.81 133.3 507.42 133.91 513.11 133.91 518.43 139.48 518.43 149.01 516.95 151.98 268.34 151.98"/><path class="cls-6" d="M265.06,120.57a6.19,6.19,0,1,0-3.9,11,6.59,6.59,0,0,0,1.09-.09l.37-.05a5,5,0,0,1,.78-.06,5.11,5.11,0,0,1,4.6,3.07l.17.56a13.91,13.91,0,0,0,13.3,10.09,13.69,13.69,0,0,0,8.52-3l.39-.29a10.23,10.23,0,0,1,5.48-1.55,10.11,10.11,0,0,1,5.11,1.36l.56.37a13.69,13.69,0,0,0,17.54-.2l.3-.26a8.11,8.11,0,0,1,4.78-1.59,8.63,8.63,0,0,1,4.64,1.38l.15.13a13.71,13.71,0,0,0,17.57-.13l.32-.21a9.06,9.06,0,0,1,9.83-.1l.39.29a13.75,13.75,0,0,0,9.31,3.65,14.13,14.13,0,0,0,0-28.25,13.66,13.66,0,0,0-8.14,2.69l-.28.2a11.14,11.14,0,0,1-5.73,1.54,10.83,10.83,0,0,1-5.31-1.28l-.42-.29a13.69,13.69,0,0,0-16.79-.68l-.44.31a11.16,11.16,0,0,1-10.92.28l-.42-.25a13.69,13.69,0,0,0-15.84.27l-.33.24a11.78,11.78,0,0,1-5.9,1.59,11.39,11.39,0,0,1-5.49-1.27l-.39-.27a13.7,13.7,0,0,0-17.9.79l-.28.24a5.54,5.54,0,0,1-3.25,1,5.34,5.34,0,0,1-3.27-1.12Z"/><path class="cls-4" d="M305.66,142.76a10.22,10.22,0,0,0,0-20.42,9.58,9.58,0,0,0-6,2.08l1.38-1.59a11.27,11.27,0,0,1,8.33-3.7,11.92,11.92,0,0,1,0,23.82Z"/><ellipse class="cls-4" cx="337.7" cy="131.38" rx="11.2" ry="11.4"/><ellipse class="cls-4" cx="280.53" cy="131.63" rx="11.2" ry="11.4"/></g><circle class="cls-1" cx="253.08" cy="95.49" r="21.82"/><rect class="cls-3" x="14.05" y="74.17" width="125.38" height="41.85" rx="1.25"/><path class="cls-4" d="M5.59,75h8.46a0,0,0,0,1,0,0v40.2a0,0,0,0,1,0,0H5.59A3.22,3.22,0,0,1,2.37,112V78.22A3.22,3.22,0,0,1,5.59,75Z"/><path class="cls-5" d="M5.57,76h8.12a0,0,0,0,1,0,0v37.8a0,0,0,0,1,0,0H5.57a1.92,1.92,0,0,1-1.92-1.92v-34A1.92,1.92,0,0,1,5.57,76Z"/><path class="cls-4" d="M142.65,75.14h8.46a0,0,0,0,1,0,0v40.2a0,0,0,0,1,0,0h-8.46a3.22,3.22,0,0,1-3.22-3.22V78.35A3.22,3.22,0,0,1,142.65,75.14Z" transform="translate(290.55 190.47) rotate(-180)"/><ellipse class="cls-13" cx="132.76" cy="103.05" rx="3.54" ry="3.5"/><path class="cls-4" d="M137,106.48V114H16.86V76.29H137V100.2a5,5,0,0,1,0,5.71Z"/><ellipse class="cls-6" cx="25" cy="84.11" rx="5.73" ry="5.83"/><ellipse class="cls-6" cx="24.93" cy="105.09" rx="4.69" ry="4.77"/><ellipse class="cls-6" cx="118.53" cy="82.78" rx="5.16" ry="5.25"/><ellipse class="cls-5" cx="129.3" cy="84.43" rx="5.16" ry="5.25"/><ellipse class="cls-4" cx="129.65" cy="84.06" rx="3.57" ry="3.59"/><path class="cls-4" d="M61,69.89l28.47-.09a5.94,5.94,0,0,1,4.09,1.79c1.56,1.8,2.16,2.49,3.22,2.58H53s3-.6,4.14-2.71C57.1,71.46,57.79,69.94,61,69.89Z"/><path class="cls-4" d="M25.41,117.82a28.07,28.07,0,0,0,6.05.55,21.55,21.55,0,0,0,7.1-.88L38.8,116h-14Z"/><path class="cls-4" d="M115.47,117.31a15.85,15.85,0,0,0,6.48,1c3.2,0,5.51-.11,6.68-.63l.24-1.5-13.72-.07Z"/><circle class="cls-5" cx="28.98" cy="92.79" r="0.74"/><circle class="cls-5" cx="32.78" cy="92.79" r="0.74"/><circle class="cls-5" cx="36.54" cy="92.76" r="0.74"/><circle class="cls-5" cx="97.87" cy="92.76" r="0.74"/><circle class="cls-5" cx="110.6" cy="92.69" r="0.74"/><circle class="cls-5" cx="118.46" cy="92.72" r="0.74"/><circle class="cls-5" cx="126.43" cy="92.79" r="0.74"/><circle class="cls-5" cx="131.81" cy="92.83" r="0.74"/><path class="cls-6" d="M82.15,87a5.89,5.89,0,0,0-2.44-.52,5.8,5.8,0,0,0-2.59.59l-.14.07a5.06,5.06,0,0,1-5.1-.1l-.17-.09a5,5,0,0,0-4.64,0L67,87a5.1,5.1,0,0,1-2.85.87,4.75,4.75,0,0,1-2.73-.82l-.27-.13a5.09,5.09,0,0,0-2.25-.51,4.71,4.71,0,0,0-2.3.55l-.22.12a5.06,5.06,0,0,1-5.58-.1l-.21-.11a4.26,4.26,0,0,0-2-.53,4.33,4.33,0,0,0-2.19.59l-.52.33a5.07,5.07,0,0,1-2.54.68,5.25,5.25,0,0,1,0-10.5,5.1,5.1,0,0,1,2.76.81l.4.23a4,4,0,0,0,2,.51,4.16,4.16,0,0,0,2.14-.61l.2-.11a5,5,0,0,1,2.88-.9,5.07,5.07,0,0,1,3.08,1l.18.12a4,4,0,0,0,2,.5A4.14,4.14,0,0,0,61,78.45l.21-.14a5.09,5.09,0,0,1,5.84,0l.11.07a4.38,4.38,0,0,0,2.07.52,4.48,4.48,0,0,0,2.21-.59l.16-.12a5.09,5.09,0,0,1,6,.1l.18.12a4.14,4.14,0,0,0,2,.51A4.23,4.23,0,0,0,82,78.33l.16-.11a5,5,0,0,1,2.88-.9,5.25,5.25,0,0,1,0,10.5A5.1,5.1,0,0,1,82.3,87Z"/><path class="cls-6" d="M118.08,109.08a3.91,3.91,0,0,0-2-.5,4,4,0,0,0-2.08.56l-.19.13a5.09,5.09,0,0,1-6.07.11l-.18-.11a3.72,3.72,0,0,0-1.89-.51,3.62,3.62,0,0,0-2,.58l-.13.09a5.1,5.1,0,0,1-6.35-.25l-.15-.09a3.77,3.77,0,0,0-4,0l-.12.09a5.07,5.07,0,0,1-3.16,1.1,5.16,5.16,0,0,1-4.88-3.55l-.07-.17a2.64,2.64,0,0,0-2.27-1.25h-.14a2.3,2.3,0,0,1,0-4.6,2.24,2.24,0,0,1,1.17.33l.15.08a2.4,2.4,0,0,0,2.45.12l.25-.17a5,5,0,0,1,3.34-1.27,5.07,5.07,0,0,1,3.34,1.25l.11.08a3.23,3.23,0,0,0,2,.67,3.37,3.37,0,0,0,2.13-.76l.1-.08a5.1,5.1,0,0,1,6.4.12l.07.06a2.9,2.9,0,0,0,1.69.56,2.83,2.83,0,0,0,1.77-.64l.1-.08a5.11,5.11,0,0,1,6.68.13l.13.1a2.92,2.92,0,0,0,1.71.54,3,3,0,0,0,1.83-.64L118,101a5.09,5.09,0,0,1,3.38-1.29,5.25,5.25,0,0,1,0,10.5,5.06,5.06,0,0,1-3-1Z"/><rect class="cls-6" x="96.66" y="78.72" width="15.09" height="12.42" rx="0.52"/><polygon class="cls-4" points="106.63 80.61 106.63 82.4 109.93 82.4 109.93 90.31 98.43 90.31 98.43 82.4 101.73 82.4 101.73 80.61 102.43 80.61 102.43 79.21 105.93 79.21 105.93 80.61 106.63 80.61"/><path class="cls-15" d="M78.78,82a4.27,4.27,0,0,1,0,.88,4.09,4.09,0,1,1-8.18,0l.09-.87a4,4,0,1,0,7.91.07s0-.45,0-.47Z"/><ellipse class="cls-4" cx="53.68" cy="82.79" rx="4.16" ry="4.24"/><ellipse class="cls-4" cx="64.21" cy="82.79" rx="4.16" ry="4.24"/><ellipse class="cls-5" cx="74.67" cy="81.99" rx="3.96" ry="4.05"/><path class="cls-15" d="M74.75,79.32a2.87,2.87,0,1,0,2.74,2.86A2.8,2.8,0,0,0,74.75,79.32Z"/><path class="cls-15" d="M89.17,82a4.27,4.27,0,0,1,0,.88,4.09,4.09,0,1,1-8.18,0l.09-.87a4,4,0,1,0,7.91.07s0-.45,0-.47Z"/><ellipse class="cls-5" cx="85.06" cy="81.99" rx="3.96" ry="4.05"/><path class="cls-15" d="M122.66,82a4.27,4.27,0,0,1,0,.88,4.09,4.09,0,1,1-8.18,0l.09-.87a4,4,0,1,0,7.91.07s0-.45,0-.47Z"/><ellipse class="cls-5" cx="118.55" cy="81.99" rx="3.96" ry="4.05"/><path class="cls-15" d="M85.14,79.32a2.87,2.87,0,1,0,2.74,2.86A2.8,2.8,0,0,0,85.14,79.32Z"/><path class="cls-15" d="M125.46,104.47a5.26,5.26,0,0,1,0,.89,4.1,4.1,0,1,1-8.19,0l.09-.88a4,4,0,1,0,7.91.07v-.47Z"/><ellipse class="cls-5" cx="121.35" cy="104.48" rx="3.96" ry="4.05"/><path class="cls-15" d="M121.43,101.81a2.87,2.87,0,1,0,2.73,2.87A2.8,2.8,0,0,0,121.43,101.81Z"/><path class="cls-15" d="M104.67,104.47a4.39,4.39,0,0,1,0,.89,4.09,4.09,0,1,1-8.18,0l.09-.88a4,4,0,1,0,7.91.07v-.47Z"/><ellipse class="cls-5" cx="100.57" cy="104.48" rx="3.96" ry="4.05"/><path class="cls-15" d="M100.65,101.81a2.87,2.87,0,1,0,2.73,2.87A2.81,2.81,0,0,0,100.65,101.81Z"/><path class="cls-15" d="M47.28,82a4.27,4.27,0,0,1,0,.88,4.09,4.09,0,1,1-8.18,0l.09-.87a4,4,0,1,0,7.91.07s0-.45,0-.47Z"/><ellipse class="cls-5" cx="43.17" cy="81.99" rx="3.96" ry="4.05"/><path class="cls-15" d="M43.25,79.32A2.87,2.87,0,1,0,46,82.18,2.8,2.8,0,0,0,43.25,79.32Z"/><path class="cls-15" d="M29.12,83.13a5.11,5.11,0,0,1,0,.88A4.1,4.1,0,1,1,21,84l.09-.88A4,4,0,1,0,29,83.2v-.46Z"/><ellipse class="cls-5" cx="25.01" cy="83.13" rx="3.96" ry="4.05"/><path class="cls-15" d="M25.09,80.46a2.87,2.87,0,1,0,2.73,2.87A2.81,2.81,0,0,0,25.09,80.46Z"/><ellipse class="cls-15" cx="118.67" cy="82.14" rx="2.73" ry="2.87"/><ellipse class="cls-4" cx="89.74" cy="105.42" rx="4.16" ry="4.24"/><ellipse class="cls-4" cx="110.8" cy="105.47" rx="4.16" ry="4.24"/><rect class="cls-5" x="23.71" y="93.95" width="106.15" height="1.93" rx="0.97"/><polygon class="cls-19" points="38.34 113.08 37.88 111.98 37.92 108.39 35.85 106.32 33.6 106.32 33.28 106.14 33.28 100.25 33.55 100.06 35.3 100.06 35.58 99.79 35.58 95.88 35.81 95.56 35.81 94.91 36.22 94.78 128.21 94.78 128.99 95.88 128.99 99.83 128.62 100.2 126.88 100.2 126.6 100.48 126.6 106.14 127.2 106.37 129.31 106.37 131.29 108.44 131.29 111.98 130.74 113.08 38.34 113.08"/><polyline class="cls-19" points="85.14 113.1 84.68 112 84.72 108.41 82.65 106.34 80.4 106.34 80.08 106.16 80.08 100.27 80.35 100.09 82.1 100.09 82.38 99.81 82.38 95.9 82.61 95.58 82.61 94.94 83.02 94.8"/><ellipse class="cls-5" cx="132.76" cy="103.05" rx="3.54" ry="3.5"/><ellipse class="cls-4" cx="132.76" cy="103.05" rx="2.35" ry="2.32"/><circle class="cls-15" cx="82.12" cy="103.24" r="1.38"/><path class="cls-6" d="M37.12,101.41a2.3,2.3,0,1,0-1.45,4.08,2.6,2.6,0,0,0,.4,0l.14,0a1.42,1.42,0,0,1,.29,0,1.9,1.9,0,0,1,1.71,1.14l.06.2a5.19,5.19,0,0,0,4.95,3.76,5.08,5.08,0,0,0,3.16-1.11l.15-.11a3.84,3.84,0,0,1,2-.57,3.75,3.75,0,0,1,1.9.51l.21.13a5.06,5.06,0,0,0,6.51-.07l.11-.1a3.06,3.06,0,0,1,1.78-.59,3.21,3.21,0,0,1,1.73.51l0,0a5.09,5.09,0,0,0,6.53,0l.12-.08a3.37,3.37,0,0,1,1.89-.55,3.33,3.33,0,0,1,1.77.52l.14.1a5.07,5.07,0,0,0,3.46,1.36,5.25,5.25,0,0,0,0-10.5,5,5,0,0,0-3,1l-.11.07a4.08,4.08,0,0,1-2.13.58,4,4,0,0,1-2-.48l-.16-.11a5.06,5.06,0,0,0-3.28-1.19,5.13,5.13,0,0,0-3,.94l-.16.12a4,4,0,0,1-2.09.58,4,4,0,0,1-2-.48l-.16-.09a5.07,5.07,0,0,0-5.88.1l-.13.09a4.37,4.37,0,0,1-2.19.59,4.23,4.23,0,0,1-2-.47l-.15-.1a5,5,0,0,0-3.15-1.1,5.11,5.11,0,0,0-3.5,1.39l-.1.09a2,2,0,0,1-1.21.38,2,2,0,0,1-1.22-.41Z"/><circle class="cls-15" cx="34.93" cy="103.24" r="1.38"/><ellipse class="cls-4" cx="64.12" cy="105.42" rx="4.16" ry="4.24"/><ellipse class="cls-4" cx="42.87" cy="105.52" rx="4.16" ry="4.24"/><path class="cls-5" d="M141.94,76h8.12a0,0,0,0,1,0,0v37.8a0,0,0,0,1,0,0h-8.12a1.92,1.92,0,0,1-1.92-1.92v-34A1.92,1.92,0,0,1,141.94,76Z" transform="translate(290.08 189.82) rotate(180)"/><path class="cls-15" d="M78.93,104.58a5.18,5.18,0,0,1,0,.88,4.09,4.09,0,1,1-8.18,0l.08-.87a4,4,0,1,0,7.91.07s0-.44,0-.47Z"/><ellipse class="cls-5" cx="74.82" cy="104.59" rx="3.96" ry="4.05"/><path class="cls-15" d="M74.9,101.92a2.87,2.87,0,1,0,2.73,2.87A2.8,2.8,0,0,0,74.9,101.92Z"/><path class="cls-15" d="M58,104.61a4.27,4.27,0,0,1,0,.88,4.09,4.09,0,1,1-8.18,0l.09-.88a4,4,0,1,0,7.91.07s0-.44,0-.46Z"/><ellipse class="cls-5" cx="53.84" cy="104.61" rx="3.96" ry="4.05"/><path class="cls-15" d="M53.92,101.94a2.87,2.87,0,1,0,2.74,2.87A2.8,2.8,0,0,0,53.92,101.94Z"/><path class="cls-15" d="M29,104.28a4.27,4.27,0,0,1,0,.88,4.09,4.09,0,1,1-8.18,0l.09-.87a4,4,0,1,0,7.91.07s0-.45,0-.47Z"/><ellipse class="cls-5" cx="24.88" cy="104.29" rx="3.96" ry="4.05"/><path class="cls-15" d="M25,101.61a2.87,2.87,0,1,0,2.74,2.87A2.8,2.8,0,0,0,25,101.61Z"/><polyline class="cls-20" points="169.03 33.1 73.72 33.1 34.58 86.5"/><g class="cls-21"><rect class="cls-3" x="147.39" y="-6.37" width="311.64" height="104.03" rx="1.25"/><path class="cls-4" d="M121.57-4.31h25.82a0,0,0,0,1,0,0V95.6a0,0,0,0,1,0,0H121.57a3.22,3.22,0,0,1-3.22-3.22V-1.1A3.22,3.22,0,0,1,121.57-4.31Z"/><path class="cls-5" d="M123.46-1.8h23a0,0,0,0,1,0,0v94a0,0,0,0,1,0,0h-23a1.92,1.92,0,0,1-1.92-1.92V.12A1.92,1.92,0,0,1,123.46-1.8Z"/><path class="cls-4" d="M453.09,73.94V92.52H154.37V-1.11H453.09v58.7l0,.73a12.56,12.56,0,0,1,0,14.2Z"/><ellipse class="cls-6" cx="174.6" cy="18.34" rx="14.23" ry="14.49"/><ellipse class="cls-6" cx="174.43" cy="70.48" rx="11.66" ry="11.87"/><path class="cls-22" d="M175.63,102.12a70.06,70.06,0,0,0,15,1.37c7.93,0,14.73-.91,17.64-2.2l.59-3.74H174Z"/><circle class="cls-7" cx="184.51" cy="39.91" r="1.84"/><circle class="cls-7" cx="193.94" cy="39.91" r="1.84"/><circle class="cls-7" cx="203.28" cy="39.83" r="1.84"/><path class="cls-8" d="M183.43,34.87l7.29-.09s.77-1,1.37-1,1,1,1,1l1.38-.09.17,1.12.85-5.15.43,5.66.77-1.46,1.72-.08s.63-1.32,1.31-1.32,1.26,1.4,1.26,1.4h2.4"/><text class="cls-23" transform="translate(170.65 39.33)">S</text><text class="cls-23" transform="translate(213.06 36.59)">HDI</text><text class="cls-23" transform="translate(205.17 54.07)">ICS</text><text class="cls-23" transform="translate(217.06 51.7) scale(0.58)">42</text><text class="cls-23" transform="translate(321.21 54.07)">ICS</text><text class="cls-23" transform="translate(333.1 51.7) scale(0.58)">42</text><text class="cls-23" transform="translate(289.66 36.59)">CAN</text><text class="cls-24" transform="translate(304.72 36.87) scale(0.58)">1</text><text class="cls-23" transform="translate(163.44 54.93)"><tspan class="cls-25">T</tspan><tspan x="3.83" y="0">AC1</tspan></text><text class="cls-26" transform="translate(181.14 54.93) scale(0.58)">2</text><text class="cls-23" transform="translate(251.36 53.45)">1</text><text class="cls-27" transform="translate(255.33 53.45) scale(0.58)">23</text><text class="cls-23" transform="translate(302.89 53.22)">4</text><text class="cls-27" transform="translate(306.85 53.22) scale(0.58)">56</text><text class="cls-23" transform="translate(316.06 36.59)">CAN</text><text class="cls-24" transform="translate(331.12 36.87) scale(0.58)">2</text><path class="cls-6" d="M316.66,25.44a14.93,14.93,0,0,0-12.51.17l-.34.19a12.65,12.65,0,0,1-12.69-.26l-.42-.23a12.59,12.59,0,0,0-5.55-1.39,12.77,12.77,0,0,0-6,1.46l-.3.17a12.6,12.6,0,0,1-7.08,2.17,11.94,11.94,0,0,1-6.79-2l-.65-.32a12.91,12.91,0,0,0-5.61-1.28A11.7,11.7,0,0,0,253,25.48l-.54.28a12.61,12.61,0,0,1-13.87-.24l-.53-.28a10.62,10.62,0,0,0-5-1.32,10.82,10.82,0,0,0-5.44,1.46l-1.31.83a12.59,12.59,0,0,1-6.3,1.68,12.92,12.92,0,0,1-12.81-13A12.93,12.93,0,0,1,220,1.8a12.61,12.61,0,0,1,6.84,2l1,.58a10,10,0,0,0,4.88,1.27,10.4,10.4,0,0,0,5.32-1.51l.5-.29a12.64,12.64,0,0,1,14.81.34l.44.3a10.19,10.19,0,0,0,4.94,1.22A10.17,10.17,0,0,0,264,4.26l.51-.33a12.64,12.64,0,0,1,14.54,0l.26.17a10.91,10.91,0,0,0,5.15,1.28A10.91,10.91,0,0,0,290,3.92l.42-.3a12.66,12.66,0,0,1,15,.25l.44.29a10.35,10.35,0,0,0,5,1.28A10.62,10.62,0,0,0,316.18,4l.4-.28a12.61,12.61,0,0,1,7.17-2.23,12.93,12.93,0,0,1,12.82,13,12.94,12.94,0,0,1-12.82,13.05A12.68,12.68,0,0,1,317,25.62Z"/><path class="cls-6" d="M406,80.4a10.2,10.2,0,0,0-10.05.15l-.48.32a12.64,12.64,0,0,1-15.1.27l-.43-.27a9.33,9.33,0,0,0-4.69-1.26,9.09,9.09,0,0,0-5,1.43l-.33.23a12.64,12.64,0,0,1-15.79-.62l-.37-.23a8.83,8.83,0,0,0-4.8-1.37,9,9,0,0,0-5.14,1.5l-.29.22a12.61,12.61,0,0,1-7.86,2.74,12.84,12.84,0,0,1-12.14-8.84l-.18-.41a6.49,6.49,0,0,0-5.62-3.1l-.37,0a5.72,5.72,0,1,1,2.92-10.64l.36.21a6,6,0,0,0,6.09.3l.63-.41a12.26,12.26,0,0,1,8.31-3.18,12.6,12.6,0,0,1,8.3,3.11l.28.22a8.07,8.07,0,0,0,4.87,1.64,8.39,8.39,0,0,0,5.29-1.88l.23-.19a12.67,12.67,0,0,1,15.93.3l.18.15a6.94,6.94,0,0,0,8.6-.21l.24-.21a12.66,12.66,0,0,1,16.59.34l.34.25a7.19,7.19,0,0,0,4.24,1.34,7.49,7.49,0,0,0,4.56-1.6l.36-.28a12.61,12.61,0,0,1,8.41-3.21,13,13,0,0,1,0,26.09,12.63,12.63,0,0,1-7.59-2.53Z"/><ellipse class="cls-13" cx="164.83" cy="16.63" rx="9.69" ry="9.86"/><path class="cls-13" d="M164.19,26.47c.21,0,.43,0,.64,0a9.86,9.86,0,0,0,0-19.72"/><path class="cls-4" d="M172.33,7.74a10.47,10.47,0,0,1-.63,20.9l-7.51-2.17c.21,0,.43,0,.64,0a9.87,9.87,0,0,0,.62-19.7Z"/><path class="cls-4" d="M216.87,3.79a9.7,9.7,0,0,1,7.35,9.3,9.79,9.79,0,0,1-9.95,9.63,10.1,10.1,0,0,1-4.33-1l4.88,3.6a11.55,11.55,0,0,0,3.74.62,11,11,0,0,0,11.18-10.83,10.92,10.92,0,0,0-8.93-10.6Z"/><path class="cls-4" d="M308.15,13.14a11.05,11.05,0,0,1,.2,2.09,10.17,10.17,0,1,1-20.33,0l.22-2.17a9.83,9.83,0,1,0,19.66.17c0-.05,0-1.1,0-1.16Z"/><path class="cls-4" d="M318.44,6.57a10.1,10.1,0,0,0-2.53,6.72,9.81,9.81,0,0,0,9.66,10A9.49,9.49,0,0,0,332.71,20l-2.27,2.95a9.91,9.91,0,0,1-6.92,2.82,10.25,10.25,0,0,1-10.1-10.4,10.57,10.57,0,0,1,1.46-5.4Z"/><ellipse class="cls-4" cx="245.88" cy="15.06" rx="10.35" ry="10.53"/><ellipse class="cls-4" cx="272.06" cy="15.06" rx="10.35" ry="10.53"/><ellipse class="cls-14" cx="164.83" cy="16.63" rx="9.69" ry="9.86"/><ellipse class="cls-14" cx="214.27" cy="13.09" rx="9.95" ry="9.63"/><ellipse class="cls-14" cx="298.07" cy="13.06" rx="9.83" ry="10.06"/><ellipse class="cls-14" cx="325.57" cy="13.29" rx="9.66" ry="9.95"/><path class="cls-15" d="M166.6,10.07a7,7,0,0,0-6.8,7.13,6.81,6.81,0,1,0,13.6,0A7,7,0,0,0,166.6,10.07ZM168.4,13a1.1,1.1,0,1,1-.94,1.09A1,1,0,0,1,168.4,13Zm-3.71,0a1.1,1.1,0,1,1-.95,1.09A1,1,0,0,1,164.69,13Zm-1.83,5.15a1.09,1.09,0,0,1,0-2.17,1.1,1.1,0,0,1,0,2.17Zm1.77,3.2a1.1,1.1,0,1,1,.94-1.09A1,1,0,0,1,164.63,21.35Zm1.94-3.14a1.1,1.1,0,1,1,1-1.09A1,1,0,0,1,166.57,18.21Zm1.66,3.08a1.1,1.1,0,1,1,.94-1.08A1,1,0,0,1,168.23,21.29Zm1.89-3.08a1.1,1.1,0,1,1,.94-1.09A1,1,0,0,1,170.12,18.21Z"/><path class="cls-15" d="M215.42,6.3a7,7,0,0,0-6.8,7.13,6.8,6.8,0,1,0,13.59,0A7,7,0,0,0,215.42,6.3Zm1.8,2.93a1,1,0,0,1,.94,1.09,1,1,0,1,1-1.89,0A1,1,0,0,1,217.22,9.23Zm-3.72,0a1,1,0,0,1,.94,1.09.95.95,0,1,1-1.88,0A1,1,0,0,1,213.5,9.23Zm-1.83,5.15a1,1,0,0,1-.94-1.09,1,1,0,1,1,.94,1.09Zm1.77,3.2a1.09,1.09,0,1,1,.95-1.09A1,1,0,0,1,213.44,17.58Zm1.95-3.15a1.1,1.1,0,1,1,.94-1.08A1,1,0,0,1,215.39,14.43Zm1.66,3.09a1.09,1.09,0,0,1,0-2.17,1.1,1.1,0,0,1,0,2.17Zm1.88-3.09a1,1,0,0,1-.94-1.08,1,1,0,1,1,1.88,0A1,1,0,0,1,218.93,14.43Z"/><path class="cls-15" d="M298.27,6.42a7,7,0,0,0-6.8,7.13,6.81,6.81,0,1,0,13.6,0A7,7,0,0,0,298.27,6.42Zm1.8,2.93a1,1,0,0,1,.95,1.09,1,1,0,1,1-1.89,0A1,1,0,0,1,300.07,9.35Zm-3.71,0a1,1,0,0,1,.94,1.09,1,1,0,1,1-1.89,0A1,1,0,0,1,296.36,9.35Zm-1.83,5.15a1.09,1.09,0,0,1,0-2.17,1,1,0,0,1,.94,1.08A1,1,0,0,1,294.53,14.5Zm1.77,3.2a1.1,1.1,0,1,1,.94-1.09A1,1,0,0,1,296.3,17.7Zm1.94-3.14a1,1,0,0,1-.94-1.09,1,1,0,1,1,.94,1.09Zm1.66,3.08a1.1,1.1,0,1,1,.94-1.08A1,1,0,0,1,299.9,17.64Zm1.89-3.08a1.1,1.1,0,1,1,.94-1.09A1,1,0,0,1,301.79,14.56Z"/><path class="cls-15" d="M325.37,6.36a7,7,0,0,0-6.8,7.13,6.8,6.8,0,1,0,13.59,0A7,7,0,0,0,325.37,6.36Zm1.8,2.94a1,1,0,0,1,.94,1.08,1,1,0,1,1-1.89,0A1,1,0,0,1,327.17,9.3Zm-3.72,0a1,1,0,0,1,.94,1.08,1,1,0,1,1-1.88,0A1,1,0,0,1,323.45,9.3Zm-1.83,5.14a1,1,0,0,1-.94-1.09,1,1,0,1,1,1.89,0A1,1,0,0,1,321.62,14.44Zm1.77,3.2a1.1,1.1,0,0,1,0-2.17,1.09,1.09,0,0,1,0,2.17Zm1.95-3.14a1.09,1.09,0,0,1,0-2.17,1,1,0,0,1,.94,1.08A1,1,0,0,1,325.34,14.5ZM327,17.58a1.1,1.1,0,1,1,.94-1.08A1,1,0,0,1,327,17.58Zm1.88-3.08a1,1,0,0,1-.94-1.09.95.95,0,1,1,1.88,0A1,1,0,0,1,328.88,14.5Z"/><path class="cls-4" d="M168.08,80.46a9.58,9.58,0,0,0-.94-19.07h-.25l5.78-1.1a9.11,9.11,0,0,1,1.29-.09,10.15,10.15,0,0,1,.39,20.27Z"/><ellipse class="cls-4" cx="335.51" cy="71.31" rx="10.35" ry="10.53"/><ellipse class="cls-14" cx="167.14" cy="70.95" rx="9.26" ry="9.56"/><path class="cls-15" d="M168.32,63.92a7.13,7.13,0,1,0,6.79,7.13A7,7,0,0,0,168.32,63.92Zm2.25,3.73a1,1,0,1,1-.85,1A.94.94,0,0,1,170.57,67.65Zm-6.86,3.58a.87.87,0,1,1,.86,1A.95.95,0,0,1,163.71,71.23Zm1.85,3.37a1,1,0,1,1,.85-1A.94.94,0,0,1,165.56,74.6Zm.13-5a1,1,0,1,1,.85-1A.94.94,0,0,1,165.69,69.58Zm2.4-3a1,1,0,1,1-.86,1A.94.94,0,0,1,168.09,66.62Zm0,3.56a1,1,0,1,1-.86,1A.95.95,0,0,1,168.13,70.18Zm0,5.49a1,1,0,1,1,.86-1A.94.94,0,0,1,168.17,75.67Zm2.4-1a1,1,0,1,1,.86-1A.94.94,0,0,1,170.57,74.72Zm1.2-2.48a1,1,0,1,1,.86-1A.94.94,0,0,1,171.77,72.24Z"/><rect class="cls-5" x="171.4" y="42.79" width="263.86" height="4.8" rx="0.97"/><polygon class="cls-16" points="207.76 90.34 206.61 87.6 206.73 78.68 201.58 73.54 195.98 73.54 195.18 73.08 195.18 58.45 195.87 57.99 200.21 57.99 200.9 57.3 200.9 47.59 201.47 46.79 201.47 45.19 202.5 44.84 431.14 44.84 433.09 47.59 433.09 57.42 432.17 58.33 427.83 58.33 427.14 59.02 427.14 73.08 428.63 73.65 433.89 73.65 438.8 78.8 438.8 87.6 437.43 90.34 207.76 90.34"/><polyline class="cls-16" points="324.08 90.4 322.94 87.66 323.05 78.74 317.91 73.6 312.31 73.6 311.5 73.14 311.5 58.51 312.19 58.05 316.54 58.05 317.22 57.36 317.22 47.65 317.79 46.84 317.79 45.24 318.82 44.9"/><circle class="cls-15" cx="316.59" cy="65.88" r="3.43"/><path class="cls-6" d="M204.73,61.32a5.72,5.72,0,1,0-3.6,10.16,5.55,5.55,0,0,0,1-.09l.35,0a4.21,4.21,0,0,1,.72,0,4.71,4.71,0,0,1,4.25,2.83l.15.51A12.86,12.86,0,0,0,219.89,84a12.64,12.64,0,0,0,7.87-2.75l.36-.26a9.62,9.62,0,0,1,9.79-.18l.51.34a12.63,12.63,0,0,0,16.2-.18l.28-.24a7.54,7.54,0,0,1,4.42-1.47,8,8,0,0,1,4.28,1.27l.15.12A12.64,12.64,0,0,0,280,80.5l.29-.19A8.27,8.27,0,0,1,285,78.93a8.36,8.36,0,0,1,4.4,1.28l.36.27a12.61,12.61,0,0,0,8.59,3.37,13,13,0,0,0,0-26.09,12.6,12.6,0,0,0-7.51,2.48l-.27.19a10.22,10.22,0,0,1-5.29,1.42,10.07,10.07,0,0,1-4.91-1.18L280,60.4a12.64,12.64,0,0,0-15.51-.62l-.41.28a10.33,10.33,0,0,1-10.09.26l-.39-.23a12.66,12.66,0,0,0-14.63.24l-.3.23A10.86,10.86,0,0,1,233.17,62a10.6,10.6,0,0,1-5.07-1.16l-.37-.26a12.66,12.66,0,0,0-16.53.73l-.27.23a5,5,0,0,1-3,.95,5,5,0,0,1-3-1Z"/><circle class="cls-15" cx="199.3" cy="65.88" r="3.43"/><ellipse class="cls-4" cx="298.53" cy="71.02" rx="10.97" ry="11.09"/><path class="cls-4" d="M242.24,81.83a9.44,9.44,0,0,0,0-18.87,8.87,8.87,0,0,0-5.5,1.92L238,63.41a10.42,10.42,0,0,1,7.7-3.42,11,11,0,0,1,0,22Z"/><ellipse class="cls-4" cx="271.83" cy="71.31" rx="10.35" ry="10.53"/><ellipse class="cls-4" cx="219.02" cy="71.54" rx="10.35" ry="10.53"/><ellipse class="cls-14" cx="298.13" cy="72.42" rx="8.86" ry="9.06"/><ellipse class="cls-14" cx="242.24" cy="72.4" rx="9.1" ry="9.43"/><path class="cls-15" d="M242.94,65.35a7.14,7.14,0,1,0,6.8,7.13A7,7,0,0,0,242.94,65.35Zm2.26,3.74a1,1,0,1,1-.86,1A.94.94,0,0,1,245.2,69.09Zm-6.86,3.58a.87.87,0,1,1,.86,1A.94.94,0,0,1,238.34,72.67ZM240.18,76a1,1,0,0,1,0-2,1,1,0,0,1,0,2Zm.13-5a1,1,0,1,1,.86-1A.95.95,0,0,1,240.31,71Zm2.4-3a1,1,0,1,1-.86,1A.95.95,0,0,1,242.71,68.06Zm0,3.56a1,1,0,1,1-.85,1A.94.94,0,0,1,242.75,71.62Zm.05,5.48a1,1,0,1,1,.85-1A.94.94,0,0,1,242.8,77.1Zm2.4-.94a1,1,0,1,1,.86-1A.94.94,0,0,1,245.2,76.16Zm1.2-2.49a1,1,0,0,1,0-2,1,1,0,0,1,0,2Z"/><path class="cls-15" d="M298.21,65.24a7.14,7.14,0,1,0,6.8,7.13A7,7,0,0,0,298.21,65.24ZM300.47,69a1,1,0,1,1-.85,1A.94.94,0,0,1,300.47,69Zm-6.86,3.58a.87.87,0,1,1,.86,1A1,1,0,0,1,293.61,72.55Zm1.85,3.37a1,1,0,1,1,.85-1A.94.94,0,0,1,295.46,75.92Zm.13-5a1,1,0,1,1,.85-1A.94.94,0,0,1,295.59,70.9Zm2.4-3a1,1,0,1,1-.86,1A.94.94,0,0,1,298,67.94Zm0,3.56a1,1,0,1,1-.86,1A.95.95,0,0,1,298,71.5Zm0,5.49a1,1,0,1,1,.86-1A.95.95,0,0,1,298.07,77Zm2.4-.94a1,1,0,1,1,.86-1A.94.94,0,0,1,300.47,76.05Zm1.2-2.49a1,1,0,1,1,.86-1A.94.94,0,0,1,301.67,73.56Z"/></g><circle class="cls-1" cx="195.43" cy="32.86" r="30.65"/></svg>