<?xml version="1.0" encoding="utf-8"?>
<!-- Generator: Adobe Illustrator 25.2.3, SVG Export Plug-In . SVG Version: 6.00 Build 0)  -->
<svg version="1.1" id="Layer_1" xmlns="http://www.w3.org/2000/svg" xmlns:xlink="http://www.w3.org/1999/xlink" x="0px" y="0px"
	 viewBox="0 0 340 120.3" style="enable-background:new 0 0 340 120.3;" xml:space="preserve">
<style type="text/css">
	.st0{fill:#8E8E8E;stroke:#8E8E8E;stroke-width:0.5;stroke-miterlimit:10;}
	.st1{fill:#FFFFFF;}
	.st2{fill:#FFFFFF;stroke:#FFFFFF;stroke-width:0.75;stroke-miterlimit:10;}
	.st3{fill:#8E8E8E;stroke:#FFFFFF;stroke-width:0.75;stroke-miterlimit:10;}
	.st4{fill:#FFFFFF;stroke:#FFFFFF;stroke-width:0.5;stroke-miterlimit:10;}
	.st5{fill:#FFFFFF;stroke:#8E8E8E;stroke-width:0.5;stroke-miterlimit:10;}
	.st6{fill:#8E8E8E;}
	.st7{fill:none;stroke:#8E8E8E;stroke-width:0.5;stroke-miterlimit:10;}
	.st8{fill:none;stroke:#FFFFFF;stroke-width:0.75;stroke-linecap:round;stroke-miterlimit:10;}
	.st9{fill:none;stroke:#FFFFFF;stroke-width:0.75;stroke-linecap:round;stroke-linejoin:round;stroke-miterlimit:10;}
	.st10{fill:#FFFFFF;stroke:#8E8E8E;stroke-miterlimit:10;}
	.st11{fill:#8E8E8E;stroke:#8E8E8E;stroke-width:0.25;stroke-miterlimit:10;}
	.st12{fill:none;stroke:#74CEE1;stroke-width:0.25;stroke-miterlimit:10;}
	.st13{fill:#FFFFFF;stroke:#FFFFFF;stroke-width:0.25;stroke-miterlimit:10;}
	.st14{fill:none;stroke:#FFFFFF;stroke-miterlimit:10;}
	.st15{fill:none;stroke:#FFFFFF;stroke-linecap:round;stroke-miterlimit:10;}
	.st16{fill:#FFFFFF;stroke:#8E8E8E;stroke-width:0.25;stroke-miterlimit:10;}
	.st17{fill:#FFFFFF;stroke:#FFFFFF;stroke-width:0.25;stroke-miterlimit:3.9437;}
	.st18{fill:#8E8E8E;stroke:#8E8E8E;stroke-width:0.75;stroke-miterlimit:10;}
	.st19{fill:#8E8E8E;stroke:#FFFFFF;stroke-width:0.25;stroke-miterlimit:10;}
	.st20{fill:none;stroke:#FFFFFF;stroke-width:0.75;stroke-miterlimit:10;}
	.st21{fill:#74CEE1;}
	.st22{fill:none;stroke:#818181;stroke-miterlimit:3.9437;}
	.st23{fill:none;stroke:#000000;stroke-linejoin:round;stroke-miterlimit:10;}
	.st24{fill:none;stroke:#454546;stroke-linecap:round;stroke-miterlimit:3.9437;}
	.st25{fill:#5D5E5E;}
	.st26{fill:#9A9B9B;}
	.st27{fill:none;stroke:#74CEE1;stroke-width:2.5;stroke-miterlimit:10;}
	.st28{fill:none;stroke:#74CEE1;stroke-miterlimit:10;}
	.st29{fill:none;stroke:#000000;stroke-width:0.25;stroke-miterlimit:10;}
	.st30{fill:#787878;stroke:#FFFFFF;stroke-width:0.25;stroke-miterlimit:10;}
	.st31{fill:none;stroke:#FFFFFF;stroke-width:0.25;stroke-miterlimit:10;}
	.st32{fill:#EF7336;}
	.st33{fill:none;stroke:#8E8E8E;stroke-width:0.75;stroke-linecap:round;stroke-miterlimit:10;}
	.st34{fill:none;stroke:#444545;stroke-linecap:round;stroke-miterlimit:3.9437;}
	.st35{clip-path:url(#SVGID_2_);}
	.st36{fill:#FFFFFF;stroke:#787878;stroke-width:0.25;stroke-miterlimit:10;}
	.st37{fill:none;stroke:#787979;stroke-width:0.25;stroke-miterlimit:10;}
	.st38{fill:none;stroke:#787878;stroke-width:0.25;stroke-miterlimit:10;}
	.st39{clip-path:url(#SVGID_4_);}
	
		.st40{fill-rule:evenodd;clip-rule:evenodd;fill:#000002;stroke:#000002;stroke-width:0.25;stroke-linejoin:bevel;stroke-miterlimit:22.9256;}
	.st41{fill-rule:evenodd;clip-rule:evenodd;fill:#FFFFFF;}
	
		.st42{fill-rule:evenodd;clip-rule:evenodd;fill:none;stroke:#FFFFFF;stroke-width:0.6954;stroke-linejoin:bevel;stroke-miterlimit:22.9256;}
	
		.st43{fill-rule:evenodd;clip-rule:evenodd;fill:none;stroke:#FFFFFF;stroke-width:0.7276;stroke-linejoin:bevel;stroke-miterlimit:22.9256;}
	.st44{fill:none;stroke:#FFFFFF;stroke-width:0.5;stroke-linecap:round;stroke-linejoin:round;stroke-miterlimit:22.9256;}
	
		.st45{fill-rule:evenodd;clip-rule:evenodd;fill:none;stroke:#FFFFFF;stroke-width:0.5;stroke-linecap:round;stroke-linejoin:round;stroke-miterlimit:22.9256;}
	
		.st46{fill-rule:evenodd;clip-rule:evenodd;fill:none;stroke:#FFFFFF;stroke-width:0.7558;stroke-linejoin:round;stroke-miterlimit:22.9256;}
	.st47{fill:#93CB75;}
	.st48{fill:#EEB71E;}
	.st49{fill:#78797B;stroke:#78797B;stroke-width:0.25;stroke-miterlimit:10;}
	.st50{fill:#787979;stroke:#787979;stroke-width:0.25;stroke-miterlimit:10;}
	.st51{fill:#FFFFFF;stroke:#787979;stroke-width:0.25;stroke-miterlimit:10;}
	.st52{fill:#787979;}
	.st53{fill:#787979;stroke:#FFFFFF;stroke-width:0.25;stroke-miterlimit:10;}
	.st54{fill:#74CEE1;stroke:#74CEE1;stroke-miterlimit:10;}
	.st55{fill:#FFFFFF;stroke:#74CEE1;stroke-miterlimit:10;}
	.st56{fill:#74CEE1;stroke:#FFFFFF;stroke-miterlimit:10;}
	.st57{fill:none;stroke:#74CEE1;stroke-width:2;stroke-miterlimit:10;}
	.st58{fill:#787A7B;stroke:#787A7B;stroke-width:0.25;stroke-miterlimit:10;}
	.st59{fill:#75CEE1;stroke:#FFFFFF;stroke-width:0.75;stroke-miterlimit:10;}
	.st60{fill:#FFFFFF;stroke:#75CEE1;stroke-width:0.25;stroke-miterlimit:10;}
	.st61{fill:#75CEE1;stroke:#75CEE1;stroke-width:0.75;stroke-miterlimit:10;}
	.st62{fill:#75CEE1;stroke:#75CEE1;stroke-width:0.25;stroke-miterlimit:10;}
	.st63{fill:#75CEE1;}
	.st64{clip-path:url(#SVGID_8_);}
	.st65{fill:#75CEE1;stroke:#FFFFFF;stroke-width:0.25;stroke-miterlimit:10;}
	.st66{fill:none;stroke:#FFFFFF;stroke-width:0.5;stroke-miterlimit:10;}
	.st67{fill:#75CEE1;stroke:#FFFFFF;stroke-width:0.5;stroke-miterlimit:10;}
	.st68{clip-path:url(#SVGID_10_);}
	.st69{fill:none;stroke:#FFFFFF;stroke-width:0.25;stroke-linecap:round;stroke-miterlimit:10;}
	.st70{clip-path:url(#SVGID_12_);}
	.st71{clip-path:url(#SVGID_14_);}
	.st72{clip-path:url(#SVGID_16_);}
	.st73{fill:#74CEE1;stroke:#74CEE1;stroke-width:0.25;stroke-miterlimit:10;}
	.st74{fill:#FFFFFF;stroke:#74CEE1;stroke-width:0.25;stroke-miterlimit:10;}
	.st75{fill:#74CEE1;stroke:#FFFFFF;stroke-width:0.25;stroke-miterlimit:10;}
	.st76{clip-path:url(#SVGID_18_);}
	.st77{fill:#FFFFFF;stroke:#78797B;stroke-width:0.25;stroke-miterlimit:10;}
	.st78{fill:#78797B;stroke:#FFFFFF;stroke-width:0.25;stroke-miterlimit:10;}
	.st79{clip-path:url(#SVGID_20_);}
	.st80{fill:none;stroke:#282828;stroke-width:2;stroke-linecap:round;stroke-miterlimit:3.9437;}
	.st81{clip-path:url(#SVGID_22_);}
	.st82{fill:#8E8E8E;stroke:#FFFFFF;stroke-width:0.5;stroke-miterlimit:10;}
	.st83{fill:none;stroke:#FFFFFF;stroke-width:0.5;stroke-linecap:round;stroke-miterlimit:10;}
	.st84{fill:none;stroke:#8E8E8E;stroke-width:0.5;stroke-linecap:round;stroke-linejoin:round;stroke-miterlimit:10;}
	.st85{clip-path:url(#SVGID_24_);}
	.st86{clip-path:url(#SVGID_26_);}
	.st87{clip-path:url(#SVGID_28_);}
	.st88{fill:#75CEE1;stroke:#75CEE1;stroke-width:0.5;stroke-miterlimit:10;}
	.st89{fill:#FFFFFF;stroke:#75CEE1;stroke-width:0.5;stroke-miterlimit:10;}
	.st90{fill:none;stroke:#75CEE1;stroke-width:0.5;stroke-miterlimit:10;}
	.st91{fill:#454546;}
	.st92{clip-path:url(#SVGID_30_);}
	.st93{clip-path:url(#SVGID_32_);}
	.st94{clip-path:url(#SVGID_34_);}
	.st95{clip-path:url(#SVGID_36_);}
	.st96{fill:#CE2128;}
	.st97{clip-path:url(#SVGID_38_);}
	.st98{fill:#7AC25C;}
	.st99{clip-path:url(#SVGID_40_);}
	.st100{clip-path:url(#SVGID_42_);}
	.st101{clip-path:url(#SVGID_44_);}
</style>
<g>
	<defs>
		<circle id="SVGID_9_" cx="191.7" cy="95.6" r="21.8"/>
	</defs>
	<clipPath id="SVGID_2_">
		<use xlink:href="#SVGID_9_"  style="overflow:visible;"/>
	</clipPath>
	<g class="st35">
		<path class="st10" d="M477.7,160H142.9c-0.7,0-1.3-0.6-1.3-1.3V48.6c0-0.7,0.6-1.3,1.3-1.3h334.8c0.7,0,1.3,0.6,1.3,1.3v110.1
			C478.9,159.4,478.4,160,477.7,160z"/>
		<path class="st11" d="M141.6,157.7h-28.2c-1.8,0-3.2-1.4-3.2-3.2V52.8c0-1.8,1.4-3.2,3.2-3.2h28.2V157.7z"/>
		<path class="st1" d="M140.6,154h-25.1c-1.1,0-1.9-0.9-1.9-1.9V54.2c0-1.1,0.9-1.9,1.9-1.9h25.1V154z"/>
		<path class="st11" d="M472.5,134.3v20.1H149.2V53h323.4v63.5l0,0.8c1.5,2.2,2.4,4.8,2.4,7.7c0,2.8-0.9,5.5-2.4,7.7L472.5,134.3z"
			/>
		<ellipse class="st13" cx="171.1" cy="74.1" rx="15.4" ry="15.7"/>
		<ellipse class="st13" cx="170.9" cy="130.5" rx="12.6" ry="12.8"/>
		<path class="st11" d="M267.8,35.8l76.6-0.2c0,0,6.8,0,11,4.8c4.2,4.8,5.8,6.7,8.7,6.9H246.3c0,0,8.2-1.6,11.1-7.3
			C257.4,40,259.3,36,267.8,35.8z"/>
		<circle class="st21" cx="181.8" cy="97.5" r="2"/>
		<circle class="st1" cx="192" cy="97.5" r="2"/>
		<circle class="st1" cx="202.1" cy="97.4" r="2"/>
		<path class="st69" d="M180.6,92l7.9-0.1c0,0,0.8-1.1,1.5-1.1c0.6,0,1.1,1,1.1,1l1.5-0.1l0.2,1.2l0.9-5.6l0.5,6.1l0.8-1.6l1.9-0.1
			c0,0,0.7-1.4,1.4-1.4c0.7,0,1.4,1.5,1.4,1.5h2.6"/>
		<g>
			<path class="st1" d="M167.1,95l0.7-0.1c0,0.3,0.1,0.5,0.2,0.7c0.1,0.2,0.3,0.3,0.6,0.4c0.3,0.1,0.5,0.2,0.8,0.2
				c0.3,0,0.5,0,0.7-0.1s0.4-0.2,0.5-0.3c0.1-0.1,0.2-0.3,0.2-0.5c0-0.2-0.1-0.3-0.2-0.5c-0.1-0.1-0.3-0.2-0.5-0.3
				c-0.1-0.1-0.5-0.1-1-0.3s-0.9-0.2-1.1-0.3c-0.3-0.1-0.5-0.3-0.6-0.5c-0.1-0.2-0.2-0.4-0.2-0.7c0-0.3,0.1-0.5,0.2-0.8
				c0.2-0.2,0.4-0.4,0.7-0.6c0.3-0.1,0.6-0.2,1-0.2c0.4,0,0.8,0.1,1.1,0.2c0.3,0.1,0.6,0.3,0.7,0.6c0.2,0.3,0.3,0.5,0.3,0.9
				l-0.7,0.1c0-0.3-0.2-0.6-0.4-0.8c-0.2-0.2-0.5-0.3-1-0.3c-0.4,0-0.8,0.1-1,0.2s-0.3,0.4-0.3,0.6c0,0.2,0.1,0.4,0.2,0.5
				c0.1,0.1,0.5,0.3,1.1,0.4c0.6,0.1,1,0.3,1.2,0.4c0.3,0.1,0.6,0.3,0.7,0.6s0.2,0.5,0.2,0.8c0,0.3-0.1,0.6-0.3,0.8
				s-0.4,0.5-0.7,0.6s-0.7,0.2-1.1,0.2c-0.5,0-0.9-0.1-1.3-0.2c-0.3-0.1-0.6-0.4-0.8-0.7S167.1,95.4,167.1,95z"/>
		</g>
		<g>
			<path class="st1" d="M213.3,93.9v-5.5h0.7v2.3h2.9v-2.3h0.7v5.5h-0.7v-2.6H214v2.6H213.3z"/>
			<path class="st1" d="M218.9,93.9v-5.5h1.9c0.4,0,0.8,0,1,0.1c0.3,0.1,0.6,0.2,0.8,0.4c0.3,0.2,0.5,0.6,0.7,0.9
				c0.1,0.4,0.2,0.8,0.2,1.3c0,0.4,0,0.8-0.1,1.1c-0.1,0.3-0.2,0.6-0.4,0.8c-0.2,0.2-0.3,0.4-0.5,0.5c-0.2,0.1-0.4,0.2-0.7,0.3
				c-0.3,0.1-0.6,0.1-0.9,0.1H218.9z M219.6,93.2h1.2c0.4,0,0.7,0,0.9-0.1c0.2-0.1,0.4-0.2,0.5-0.3c0.2-0.2,0.3-0.4,0.4-0.7
				c0.1-0.3,0.1-0.6,0.1-1.1c0-0.6-0.1-1-0.3-1.3c-0.2-0.3-0.4-0.5-0.7-0.6c-0.2-0.1-0.5-0.1-0.9-0.1h-1.2V93.2z"/>
			<path class="st1" d="M224.6,93.9v-5.5h0.7v5.5H224.6z"/>
		</g>
		<g>
			<path class="st1" d="M204.9,112.8v-5.5h0.7v5.5H204.9z"/>
			<path class="st1" d="M210.8,110.8l0.7,0.2c-0.2,0.6-0.4,1.1-0.8,1.4s-0.9,0.5-1.5,0.5c-0.6,0-1.1-0.1-1.5-0.4
				c-0.4-0.2-0.7-0.6-0.9-1.1s-0.3-1-0.3-1.5c0-0.6,0.1-1.1,0.3-1.5c0.2-0.4,0.5-0.8,0.9-1s0.9-0.3,1.3-0.3c0.6,0,1,0.1,1.4,0.4
				s0.6,0.7,0.8,1.2l-0.7,0.2c-0.1-0.4-0.3-0.7-0.6-0.9s-0.6-0.3-0.9-0.3c-0.4,0-0.8,0.1-1.1,0.3c-0.3,0.2-0.5,0.5-0.6,0.8
				c-0.1,0.3-0.2,0.7-0.2,1.1c0,0.5,0.1,0.9,0.2,1.2c0.1,0.4,0.4,0.6,0.6,0.8c0.3,0.2,0.6,0.3,0.9,0.3c0.4,0,0.8-0.1,1-0.4
				C210.5,111.7,210.7,111.3,210.8,110.8z"/>
			<path class="st1" d="M212.2,111l0.7-0.1c0,0.3,0.1,0.5,0.2,0.7c0.1,0.2,0.3,0.3,0.6,0.4c0.3,0.1,0.5,0.2,0.8,0.2
				c0.3,0,0.5,0,0.7-0.1s0.4-0.2,0.5-0.3c0.1-0.1,0.2-0.3,0.2-0.5c0-0.2-0.1-0.3-0.2-0.5c-0.1-0.1-0.3-0.2-0.5-0.3
				c-0.1-0.1-0.5-0.1-1-0.3s-0.9-0.2-1.1-0.3c-0.3-0.1-0.5-0.3-0.6-0.5c-0.1-0.2-0.2-0.4-0.2-0.7c0-0.3,0.1-0.5,0.2-0.8
				c0.2-0.2,0.4-0.4,0.7-0.6c0.3-0.1,0.6-0.2,1-0.2c0.4,0,0.8,0.1,1.1,0.2c0.3,0.1,0.6,0.3,0.7,0.6c0.2,0.3,0.3,0.5,0.3,0.9
				l-0.7,0.1c0-0.3-0.2-0.6-0.4-0.8c-0.2-0.2-0.5-0.3-1-0.3c-0.4,0-0.8,0.1-1,0.2s-0.3,0.4-0.3,0.6c0,0.2,0.1,0.4,0.2,0.5
				c0.1,0.1,0.5,0.3,1.1,0.4c0.6,0.1,1,0.3,1.2,0.4c0.3,0.1,0.6,0.3,0.7,0.6s0.2,0.5,0.2,0.8c0,0.3-0.1,0.6-0.3,0.8
				s-0.4,0.5-0.7,0.6s-0.7,0.2-1.1,0.2c-0.5,0-0.9-0.1-1.3-0.2c-0.3-0.1-0.6-0.4-0.8-0.7S212.2,111.4,212.2,111z"/>
			<path class="st1" d="M218.5,110.2v-0.8h-1.4v-0.4l1.5-2.1h0.3v2.1h0.4v0.4h-0.4v0.8H218.5z M218.5,109.1v-1.5l-1,1.5H218.5z"/>
			<path class="st1" d="M221.8,109.8v0.4h-2.1c0-0.1,0-0.2,0-0.3c0.1-0.1,0.1-0.3,0.3-0.4c0.1-0.1,0.3-0.3,0.5-0.5
				c0.3-0.3,0.6-0.5,0.7-0.7s0.2-0.3,0.2-0.5c0-0.2-0.1-0.3-0.2-0.4c-0.1-0.1-0.3-0.2-0.4-0.2c-0.2,0-0.3,0.1-0.5,0.2
				s-0.2,0.3-0.2,0.5l-0.4,0c0-0.3,0.1-0.5,0.3-0.7s0.4-0.2,0.7-0.2c0.3,0,0.6,0.1,0.7,0.3c0.2,0.2,0.3,0.4,0.3,0.6
				c0,0.1,0,0.3-0.1,0.4c-0.1,0.1-0.1,0.3-0.3,0.4s-0.3,0.3-0.6,0.6c-0.2,0.2-0.4,0.3-0.5,0.4s-0.1,0.1-0.2,0.2H221.8z"/>
		</g>
		<g>
			<path class="st1" d="M330.5,112.8v-5.5h0.7v5.5H330.5z"/>
			<path class="st1" d="M336.4,110.8l0.7,0.2c-0.2,0.6-0.4,1.1-0.8,1.4s-0.9,0.5-1.5,0.5c-0.6,0-1.1-0.1-1.5-0.4
				c-0.4-0.2-0.7-0.6-0.9-1.1s-0.3-1-0.3-1.5c0-0.6,0.1-1.1,0.3-1.5c0.2-0.4,0.5-0.8,0.9-1s0.9-0.3,1.3-0.3c0.6,0,1,0.1,1.4,0.4
				s0.6,0.7,0.8,1.2l-0.7,0.2c-0.1-0.4-0.3-0.7-0.6-0.9s-0.6-0.3-0.9-0.3c-0.4,0-0.8,0.1-1.1,0.3c-0.3,0.2-0.5,0.5-0.6,0.8
				c-0.1,0.3-0.2,0.7-0.2,1.1c0,0.5,0.1,0.9,0.2,1.2c0.1,0.4,0.4,0.6,0.6,0.8c0.3,0.2,0.6,0.3,0.9,0.3c0.4,0,0.8-0.1,1-0.4
				C336.1,111.7,336.3,111.3,336.4,110.8z"/>
			<path class="st1" d="M337.8,111l0.7-0.1c0,0.3,0.1,0.5,0.2,0.7c0.1,0.2,0.3,0.3,0.6,0.4c0.3,0.1,0.5,0.2,0.8,0.2
				c0.3,0,0.5,0,0.7-0.1s0.4-0.2,0.5-0.3c0.1-0.1,0.2-0.3,0.2-0.5c0-0.2-0.1-0.3-0.2-0.5c-0.1-0.1-0.3-0.2-0.5-0.3
				c-0.1-0.1-0.5-0.1-1-0.3s-0.9-0.2-1.1-0.3c-0.3-0.1-0.5-0.3-0.6-0.5c-0.1-0.2-0.2-0.4-0.2-0.7c0-0.3,0.1-0.5,0.2-0.8
				c0.2-0.2,0.4-0.4,0.7-0.6c0.3-0.1,0.6-0.2,1-0.2c0.4,0,0.8,0.1,1.1,0.2c0.3,0.1,0.6,0.3,0.7,0.6c0.2,0.3,0.3,0.5,0.3,0.9
				l-0.7,0.1c0-0.3-0.2-0.6-0.4-0.8c-0.2-0.2-0.5-0.3-1-0.3c-0.4,0-0.8,0.1-1,0.2s-0.3,0.4-0.3,0.6c0,0.2,0.1,0.4,0.2,0.5
				c0.1,0.1,0.5,0.3,1.1,0.4c0.6,0.1,1,0.3,1.2,0.4c0.3,0.1,0.6,0.3,0.7,0.6s0.2,0.5,0.2,0.8c0,0.3-0.1,0.6-0.3,0.8
				s-0.4,0.5-0.7,0.6s-0.7,0.2-1.1,0.2c-0.5,0-0.9-0.1-1.3-0.2c-0.3-0.1-0.6-0.4-0.8-0.7S337.8,111.4,337.8,111z"/>
		</g>
		<g>
			<path class="st1" d="M300.1,91.9l0.7,0.2c-0.2,0.6-0.4,1.1-0.8,1.4s-0.9,0.5-1.5,0.5c-0.6,0-1.1-0.1-1.5-0.4
				c-0.4-0.2-0.7-0.6-0.9-1.1s-0.3-1-0.3-1.5c0-0.6,0.1-1.1,0.3-1.5c0.2-0.4,0.5-0.8,0.9-1s0.9-0.3,1.3-0.3c0.6,0,1,0.1,1.4,0.4
				s0.6,0.7,0.8,1.2l-0.7,0.2c-0.1-0.4-0.3-0.7-0.6-0.9s-0.6-0.3-0.9-0.3c-0.4,0-0.8,0.1-1.1,0.3c-0.3,0.2-0.5,0.5-0.6,0.8
				c-0.1,0.3-0.2,0.7-0.2,1.1c0,0.5,0.1,0.9,0.2,1.2c0.1,0.4,0.4,0.6,0.6,0.8c0.3,0.2,0.6,0.3,0.9,0.3c0.4,0,0.8-0.1,1-0.4
				C299.8,92.7,300,92.4,300.1,91.9z"/>
			<path class="st1" d="M301.2,93.9l2.1-5.5h0.8l2.3,5.5h-0.8l-0.6-1.7h-2.3l-0.6,1.7H301.2z M302.8,91.6h1.9l-0.6-1.5
				c-0.2-0.5-0.3-0.8-0.4-1.1c-0.1,0.4-0.2,0.7-0.3,1.1L302.8,91.6z"/>
			<path class="st1" d="M306.9,93.9v-5.5h0.8l2.9,4.3v-4.3h0.7v5.5h-0.8l-2.9-4.3v4.3H306.9z"/>
			<path class="st1" d="M313.6,94.2h-0.4v-2.5c-0.1,0.1-0.2,0.2-0.4,0.3c-0.2,0.1-0.3,0.2-0.4,0.2v-0.4c0.2-0.1,0.4-0.2,0.6-0.4
				c0.2-0.1,0.3-0.3,0.4-0.4h0.3V94.2z"/>
		</g>
		<g>
			<path class="st1" d="M161,113.7v-4.9h-1.8v-0.7h4.4v0.7h-1.8v4.9H161z"/>
			<path class="st1" d="M163.1,113.7l2.1-5.5h0.8l2.3,5.5h-0.8l-0.6-1.7h-2.3l-0.6,1.7H163.1z M164.7,111.4h1.9l-0.6-1.5
				c-0.2-0.5-0.3-0.8-0.4-1.1c-0.1,0.4-0.2,0.7-0.3,1.1L164.7,111.4z"/>
			<path class="st1" d="M172.8,111.8l0.7,0.2c-0.2,0.6-0.4,1.1-0.8,1.4s-0.9,0.5-1.5,0.5c-0.6,0-1.1-0.1-1.5-0.4
				c-0.4-0.2-0.7-0.6-0.9-1.1s-0.3-1-0.3-1.5c0-0.6,0.1-1.1,0.3-1.5c0.2-0.4,0.5-0.8,0.9-1s0.9-0.3,1.3-0.3c0.6,0,1,0.1,1.4,0.4
				s0.6,0.7,0.8,1.2l-0.7,0.2c-0.1-0.4-0.3-0.7-0.6-0.9s-0.6-0.3-0.9-0.3c-0.4,0-0.8,0.1-1.1,0.3c-0.3,0.2-0.5,0.5-0.6,0.8
				c-0.1,0.3-0.2,0.7-0.2,1.1c0,0.5,0.1,0.9,0.2,1.2c0.1,0.4,0.4,0.6,0.6,0.8c0.3,0.2,0.6,0.3,0.9,0.3c0.4,0,0.8-0.1,1-0.4
				C172.5,112.6,172.7,112.2,172.8,111.8z"/>
			<path class="st1" d="M176.7,113.7H176v-4.3c-0.2,0.2-0.4,0.3-0.6,0.5c-0.3,0.2-0.5,0.3-0.7,0.4v-0.7c0.4-0.2,0.7-0.4,1-0.6
				s0.5-0.5,0.6-0.7h0.4V113.7z"/>
			<path class="st1" d="M180.1,113.4v0.3h-1.9c0-0.1,0-0.2,0-0.2c0-0.1,0.1-0.3,0.2-0.4s0.3-0.3,0.5-0.4c0.3-0.3,0.5-0.5,0.6-0.6
				c0.1-0.1,0.2-0.3,0.2-0.4c0-0.1,0-0.3-0.1-0.3s-0.2-0.1-0.4-0.1c-0.2,0-0.3,0.1-0.4,0.2s-0.2,0.2-0.2,0.4l-0.4,0
				c0-0.3,0.1-0.5,0.3-0.6c0.2-0.1,0.4-0.2,0.6-0.2c0.3,0,0.5,0.1,0.6,0.2c0.2,0.2,0.2,0.3,0.2,0.6c0,0.1,0,0.2-0.1,0.3
				c0,0.1-0.1,0.2-0.2,0.3c-0.1,0.1-0.3,0.3-0.5,0.5c-0.2,0.2-0.3,0.3-0.4,0.4c-0.1,0.1-0.1,0.1-0.1,0.2H180.1z"/>
		</g>
		<g>
			<path class="st1" d="M257,112.1h-0.7v-4.3c-0.2,0.2-0.4,0.3-0.6,0.5c-0.3,0.2-0.5,0.3-0.7,0.4v-0.7c0.4-0.2,0.7-0.4,1-0.6
				s0.5-0.5,0.6-0.7h0.4V112.1z"/>
			<path class="st1" d="M260.4,111.8v0.3h-1.9c0-0.1,0-0.2,0-0.2c0-0.1,0.1-0.3,0.2-0.4s0.3-0.3,0.5-0.4c0.3-0.3,0.5-0.5,0.6-0.6
				c0.1-0.1,0.2-0.3,0.2-0.4c0-0.1,0-0.3-0.1-0.3s-0.2-0.1-0.4-0.1c-0.2,0-0.3,0.1-0.4,0.2s-0.2,0.2-0.2,0.4l-0.4,0
				c0-0.3,0.1-0.5,0.3-0.6c0.2-0.1,0.4-0.2,0.6-0.2c0.3,0,0.5,0.1,0.6,0.2c0.2,0.2,0.2,0.3,0.2,0.6c0,0.1,0,0.2-0.1,0.3
				c0,0.1-0.1,0.2-0.2,0.3c-0.1,0.1-0.3,0.3-0.5,0.5c-0.2,0.2-0.3,0.3-0.4,0.4c-0.1,0.1-0.1,0.1-0.1,0.2H260.4z"/>
			<path class="st1" d="M260.8,111.4l0.3,0c0,0.2,0.1,0.3,0.2,0.4c0.1,0.1,0.2,0.1,0.4,0.1c0.2,0,0.3-0.1,0.4-0.2
				c0.1-0.1,0.2-0.3,0.2-0.4c0-0.2-0.1-0.3-0.2-0.4c-0.1-0.1-0.2-0.2-0.4-0.2c-0.1,0-0.1,0-0.2,0l0-0.3c0,0,0,0,0.1,0
				c0.1,0,0.3,0,0.4-0.1c0.1-0.1,0.2-0.2,0.2-0.4c0-0.1,0-0.2-0.1-0.3c-0.1-0.1-0.2-0.1-0.3-0.1c-0.1,0-0.2,0-0.3,0.1
				s-0.1,0.2-0.2,0.4l-0.3-0.1c0-0.2,0.1-0.4,0.3-0.5s0.3-0.2,0.6-0.2c0.2,0,0.3,0,0.4,0.1c0.1,0.1,0.2,0.2,0.3,0.3
				c0.1,0.1,0.1,0.2,0.1,0.4c0,0.1,0,0.2-0.1,0.3c-0.1,0.1-0.2,0.2-0.3,0.2c0.2,0,0.3,0.1,0.4,0.2c0.1,0.1,0.1,0.3,0.1,0.5
				c0,0.2-0.1,0.5-0.3,0.6c-0.2,0.2-0.4,0.3-0.7,0.3c-0.2,0-0.5-0.1-0.6-0.2C260.9,111.8,260.8,111.6,260.8,111.4z"/>
		</g>
		<g>
			<path class="st1" d="M312.4,111.9v-1.3H310v-0.6l2.5-3.6h0.6v3.6h0.7v0.6h-0.7v1.3H312.4z M312.4,109.9v-2.5l-1.7,2.5H312.4z"/>
			<path class="st1" d="M314.4,111.1l0.4,0c0,0.2,0.1,0.3,0.2,0.4s0.2,0.1,0.4,0.1c0.2,0,0.3-0.1,0.4-0.2c0.1-0.1,0.2-0.3,0.2-0.5
				c0-0.2-0.1-0.4-0.2-0.5c-0.1-0.1-0.3-0.2-0.4-0.2c-0.1,0-0.2,0-0.3,0.1c-0.1,0.1-0.2,0.1-0.2,0.2l-0.3,0l0.3-1.5h1.4v0.3H315
				l-0.2,0.8c0.2-0.1,0.3-0.2,0.5-0.2c0.2,0,0.5,0.1,0.6,0.3c0.2,0.2,0.3,0.4,0.3,0.7c0,0.3-0.1,0.5-0.2,0.7
				c-0.2,0.2-0.4,0.3-0.7,0.3c-0.3,0-0.5-0.1-0.6-0.2C314.5,111.5,314.4,111.3,314.4,111.1z"/>
			<path class="st1" d="M318.4,109.7l-0.3,0c0-0.1-0.1-0.2-0.1-0.3c-0.1-0.1-0.2-0.1-0.3-0.1c-0.1,0-0.2,0-0.3,0.1
				c-0.1,0.1-0.2,0.2-0.3,0.4c-0.1,0.2-0.1,0.4-0.1,0.7c0.1-0.1,0.2-0.2,0.3-0.3c0.1-0.1,0.2-0.1,0.4-0.1c0.2,0,0.4,0.1,0.6,0.3
				c0.2,0.2,0.2,0.4,0.2,0.7c0,0.2,0,0.3-0.1,0.5c-0.1,0.2-0.2,0.3-0.3,0.4c-0.1,0.1-0.3,0.1-0.5,0.1c-0.3,0-0.5-0.1-0.7-0.3
				c-0.2-0.2-0.3-0.6-0.3-1.1c0-0.5,0.1-0.9,0.3-1.2c0.2-0.2,0.4-0.3,0.7-0.3c0.2,0,0.4,0.1,0.5,0.2S318.4,109.5,318.4,109.7z
				 M317,110.9c0,0.1,0,0.2,0.1,0.3c0.1,0.1,0.1,0.2,0.2,0.3s0.2,0.1,0.3,0.1c0.1,0,0.3-0.1,0.4-0.2c0.1-0.1,0.2-0.3,0.2-0.5
				c0-0.2-0.1-0.4-0.2-0.5c-0.1-0.1-0.2-0.2-0.4-0.2s-0.3,0.1-0.4,0.2C317,110.6,317,110.7,317,110.9z"/>
		</g>
		<g>
			<path class="st1" d="M328.7,91.9l0.7,0.2c-0.2,0.6-0.4,1.1-0.8,1.4s-0.9,0.5-1.5,0.5c-0.6,0-1.1-0.1-1.5-0.4
				c-0.4-0.2-0.7-0.6-0.9-1.1s-0.3-1-0.3-1.5c0-0.6,0.1-1.1,0.3-1.5c0.2-0.4,0.5-0.8,0.9-1s0.9-0.3,1.3-0.3c0.6,0,1,0.1,1.4,0.4
				s0.6,0.7,0.8,1.2l-0.7,0.2c-0.1-0.4-0.3-0.7-0.6-0.9s-0.6-0.3-0.9-0.3c-0.4,0-0.8,0.1-1.1,0.3c-0.3,0.2-0.5,0.5-0.6,0.8
				c-0.1,0.3-0.2,0.7-0.2,1.1c0,0.5,0.1,0.9,0.2,1.2c0.1,0.4,0.4,0.6,0.6,0.8c0.3,0.2,0.6,0.3,0.9,0.3c0.4,0,0.8-0.1,1-0.4
				C328.4,92.7,328.6,92.4,328.7,91.9z"/>
			<path class="st1" d="M329.8,93.9l2.1-5.5h0.8l2.3,5.5h-0.8l-0.6-1.7h-2.3l-0.6,1.7H329.8z M331.3,91.6h1.9l-0.6-1.5
				c-0.2-0.5-0.3-0.8-0.4-1.1c-0.1,0.4-0.2,0.7-0.3,1.1L331.3,91.6z"/>
			<path class="st1" d="M335.5,93.9v-5.5h0.8l2.9,4.3v-4.3h0.7v5.5h-0.8l-2.9-4.3v4.3H335.5z"/>
		</g>
		<path class="st13" d="M324.8,81.8c-2-0.9-4.2-1.4-6.6-1.4c-2.5,0-4.9,0.6-7,1.6l-0.4,0.2c-2,1.1-4.2,1.7-6.6,1.7
			c-2.6,0-5-0.7-7.1-2l-0.5-0.2c-1.8-0.9-3.8-1.5-6-1.5c-2.4,0-4.6,0.6-6.5,1.6l-0.3,0.2c-2.2,1.5-4.8,2.3-7.7,2.3
			c-2.8,0-5.2-0.8-7.4-2.2l-0.7-0.4c-1.8-0.9-3.9-1.4-6.1-1.4c-2.4,0-4.3,0.5-6.2,1.5l-0.6,0.3c-2.1,1.3-4.6,2.1-7.3,2.1
			c-2.9,0-5.5-0.9-7.7-2.4l-0.6-0.3c-1.7-0.9-3.4-1.4-5.4-1.4c-2.1,0-4.2,0.6-5.9,1.6l-1.4,0.9c-2,1.2-4.3,1.8-6.8,1.8
			c-7.7,0-13.9-6.3-13.9-14.1s6.2-14.1,13.9-14.1c2.7,0,5.3,0.8,7.4,2.2l1.1,0.6c1.6,0.9,3.3,1.4,5.3,1.4c2.1,0,4-0.6,5.8-1.6
			l0.5-0.3c2.2-1.5,4.9-2.4,7.8-2.4c3.1,0,6,1,8.3,2.8l0.5,0.3c1.6,0.9,3.4,1.3,5.3,1.3c2.1,0,4-0.6,5.7-1.6l0.6-0.4
			c2.2-1.6,4.9-2.5,7.9-2.5c2.9,0,5.6,0.9,7.9,2.5l0.3,0.2c1.7,0.9,3.6,1.4,5.6,1.4c2.2,0,4.2-0.6,5.9-1.6l0.4-0.3
			c2.2-1.6,5-2.5,7.9-2.5c3.1,0,6,1,8.3,2.8l0.5,0.3c1.7,0.9,3.4,1.4,5.4,1.4c2.1,0,4.1-0.6,5.8-1.6l0.4-0.3
			c2.2-1.5,4.9-2.4,7.8-2.4c7.7,0,13.9,6.3,13.9,14.1s-6.2,14.1-13.9,14.1c-2.7,0-5.2-0.8-7.3-2.1L324.8,81.8z"/>
		<path class="st13" d="M421.5,141.3c-1.6-0.9-3.3-1.3-5.3-1.3c-2.1,0-3.9,0.5-5.6,1.5l-0.5,0.3c-2.3,1.8-5.2,2.9-8.4,2.9
			c-3,0-5.7-0.9-8-2.6l-0.5-0.3c-1.6-0.9-3.2-1.4-5.1-1.4c-2,0-3.7,0.5-5.4,1.5l-0.4,0.3c-2.3,1.7-5.1,2.7-8.1,2.7
			c-3.4,0-6.6-1.3-9-3.3l-0.4-0.2c-1.6-1-3.3-1.5-5.2-1.5c-2.1,0-3.9,0.5-5.6,1.6l-0.3,0.2c-2.3,1.9-5.3,3-8.5,3
			c-6.1,0-11.3-4-13.1-9.6l-0.2-0.4c-1.3-2.1-3.5-3.4-6.1-3.4l-0.4,0c-3.4,0-6.2-2.8-6.2-6.2c0-3.4,2.8-6.2,6.2-6.2
			c1.2,0,2.2,0.3,3.2,0.9l0.4,0.2c2.1,1.4,4.4,1.4,6.6,0.3l0.7-0.4c2.4-2.2,5.5-3.4,9-3.4c3.4,0,6.6,1.3,9,3.4l0.3,0.2
			c1.6,1.2,3.3,1.8,5.3,1.8c2.1,0,4-0.7,5.7-2l0.3-0.2c2.3-1.8,5.3-2.9,8.4-2.9c3.4,0,6.4,1.2,8.8,3.2l0.2,0.2
			c1.4,1,2.9,1.5,4.5,1.5c1.8,0,3.4-0.6,4.8-1.7l0.3-0.2c2.4-2,5.4-3.2,8.8-3.2c3.5,0,6.7,1.3,9.2,3.5l0.4,0.3
			c1.4,1,2.9,1.4,4.6,1.4c1.8,0,3.4-0.6,4.9-1.7l0.4-0.3c2.4-2.2,5.6-3.5,9.1-3.5c7.7,0,13.9,6.3,13.9,14.1s-6.2,14.1-13.9,14.1
			c-3.1,0-5.9-1-8.2-2.7L421.5,141.3z"/>
		<ellipse class="st12" cx="160.5" cy="72.3" rx="10.5" ry="10.7"/>
		<path class="st12" d="M159.8,82.9c0.2,0,0.5,0,0.7,0c5.8,0,10.5-4.8,10.5-10.7s-4.7-10.7-10.5-10.7"/>
		<path class="st11" d="M168.6,62.6c5.8,0.4,10.4,5.3,10.4,11.3c0,6.3-5,11.3-11.1,11.3l-8.1-2.3c0.2,0,0.5,0,0.7,0
			c5.8,0,10.5-4.8,10.5-10.7c0-5.7-4.3-10.3-9.8-10.7L168.6,62.6z"/>
		<path class="st11" d="M216.8,58.4c4.6,1.2,8,5.3,8,10.1c0,5.8-4.8,10.4-10.8,10.4c-1.7,0-3.3-0.4-4.7-1l5.3,3.9
			c1.3,0.4,2.6,0.7,4,0.7c6.7,0,12.1-5.2,12.1-11.7c0-5.7-4.1-10.4-9.7-11.5L216.8,58.4z"/>
		<path class="st11" d="M315.6,68.5c0.1,0.7,0.2,1.5,0.2,2.3c0,6.2-4.9,11.3-11,11.3c-6.1,0-11-5-11-11.3l0.2-2.4
			c0,6,4.8,10.9,10.6,10.9c5.8,0,10.5-4.8,10.6-10.7c0-0.1,0-1.2,0-1.3L315.6,68.5z"/>
		<path class="st11" d="M326.8,61.4c-1.7,1.9-2.7,4.5-2.7,7.3c0,5.9,4.7,10.8,10.5,10.8c3.1,0,5.8-1.4,7.7-3.5l-2.5,3.2
			c-2,1.9-4.6,3.1-7.5,3.1c-6,0-10.9-5-10.9-11.3c0-2.1,0.6-4.1,1.6-5.8L326.8,61.4z"/>
		<ellipse class="st11" cx="248.2" cy="70.6" rx="11.2" ry="11.4"/>
		<ellipse class="st11" cx="276.6" cy="70.6" rx="11.2" ry="11.4"/>
		<ellipse class="st16" cx="160.5" cy="72.3" rx="10.5" ry="10.7"/>
		<ellipse class="st16" cx="214" cy="68.4" rx="10.8" ry="10.4"/>
		<ellipse class="st16" cx="304.7" cy="68.4" rx="10.6" ry="10.9"/>
		<ellipse class="st16" cx="334.5" cy="68.6" rx="10.5" ry="10.8"/>
		<path class="st6" d="M162.4,65.1c-4.1,0-7.4,3.5-7.4,7.7c0,4.3,3.3,7.7,7.4,7.7c4.1,0,7.4-3.5,7.4-7.7
			C169.8,68.6,166.5,65.1,162.4,65.1z M164.3,68.3c0.6,0,1,0.5,1,1.2c0,0.6-0.5,1.2-1,1.2s-1-0.5-1-1.2
			C163.3,68.9,163.8,68.3,164.3,68.3z M160.3,68.3c0.6,0,1,0.5,1,1.2c0,0.6-0.5,1.2-1,1.2s-1-0.5-1-1.2
			C159.3,68.9,159.8,68.3,160.3,68.3z M158.3,73.9c-0.6,0-1-0.5-1-1.2s0.5-1.2,1-1.2s1,0.5,1,1.2S158.9,73.9,158.3,73.9z
			 M160.3,77.4c-0.6,0-1-0.5-1-1.2c0-0.6,0.5-1.2,1-1.2c0.6,0,1,0.5,1,1.2C161.3,76.8,160.8,77.4,160.3,77.4z M162.4,74
			c-0.6,0-1-0.5-1-1.2c0-0.6,0.5-1.2,1-1.2c0.6,0,1,0.5,1,1.2C163.4,73.4,162.9,74,162.4,74z M164.2,77.3c-0.6,0-1-0.5-1-1.2
			c0-0.6,0.5-1.2,1-1.2s1,0.5,1,1.2C165.2,76.8,164.7,77.3,164.2,77.3z M166.2,74c-0.6,0-1-0.5-1-1.2c0-0.6,0.5-1.2,1-1.2
			c0.6,0,1,0.5,1,1.2C167.2,73.4,166.8,74,166.2,74z"/>
		<path class="st6" d="M215.2,61.1c-4.1,0-7.4,3.5-7.4,7.7c0,4.3,3.3,7.7,7.4,7.7c4.1,0,7.4-3.5,7.4-7.7
			C222.6,64.5,219.3,61.1,215.2,61.1z M217.2,64.2c0.6,0,1,0.5,1,1.2c0,0.6-0.5,1.2-1,1.2s-1-0.5-1-1.2
			C216.2,64.8,216.6,64.2,217.2,64.2z M213.2,64.2c0.6,0,1,0.5,1,1.2c0,0.6-0.5,1.2-1,1.2s-1-0.5-1-1.2
			C212.1,64.8,212.6,64.2,213.2,64.2z M211.2,69.8c-0.6,0-1-0.5-1-1.2s0.5-1.2,1-1.2s1,0.5,1,1.2S211.8,69.8,211.2,69.8z
			 M213.1,73.3c-0.6,0-1-0.5-1-1.2c0-0.6,0.5-1.2,1-1.2c0.6,0,1,0.5,1,1.2C214.1,72.7,213.7,73.3,213.1,73.3z M215.2,69.9
			c-0.6,0-1-0.5-1-1.2s0.5-1.2,1-1.2c0.6,0,1,0.5,1,1.2S215.8,69.9,215.2,69.9z M217,73.2c-0.6,0-1-0.5-1-1.2c0-0.6,0.5-1.2,1-1.2
			s1,0.5,1,1.2C218,72.7,217.6,73.2,217,73.2z M219,69.9c-0.6,0-1-0.5-1-1.2s0.5-1.2,1-1.2c0.6,0,1,0.5,1,1.2S219.6,69.9,219,69.9z"
			/>
		<path class="st6" d="M304.9,61.2c-4.1,0-7.4,3.5-7.4,7.7c0,4.3,3.3,7.7,7.4,7.7c4.1,0,7.4-3.5,7.4-7.7
			C312.3,64.7,309,61.2,304.9,61.2z M306.9,64.4c0.6,0,1,0.5,1,1.2c0,0.6-0.5,1.2-1,1.2c-0.6,0-1-0.5-1-1.2
			C305.9,64.9,306.3,64.4,306.9,64.4z M302.9,64.4c0.6,0,1,0.5,1,1.2c0,0.6-0.5,1.2-1,1.2c-0.6,0-1-0.5-1-1.2
			C301.8,64.9,302.3,64.4,302.9,64.4z M300.9,69.9c-0.6,0-1-0.5-1-1.2s0.5-1.2,1-1.2c0.6,0,1,0.5,1,1.2S301.4,69.9,300.9,69.9z
			 M302.8,73.4c-0.6,0-1-0.5-1-1.2c0-0.6,0.5-1.2,1-1.2s1,0.5,1,1.2C303.8,72.9,303.4,73.4,302.8,73.4z M304.9,70
			c-0.6,0-1-0.5-1-1.2s0.5-1.2,1-1.2c0.6,0,1,0.5,1,1.2S305.5,70,304.9,70z M306.7,73.3c-0.6,0-1-0.5-1-1.2c0-0.6,0.5-1.2,1-1.2
			s1,0.5,1,1.2C307.7,72.8,307.3,73.3,306.7,73.3z M308.7,70c-0.6,0-1-0.5-1-1.2s0.5-1.2,1-1.2c0.6,0,1,0.5,1,1.2S309.3,70,308.7,70
			z"/>
		<path class="st6" d="M334.3,61.1c-4.1,0-7.4,3.5-7.4,7.7c0,4.3,3.3,7.7,7.4,7.7c4.1,0,7.4-3.5,7.4-7.7
			C341.6,64.6,338.3,61.1,334.3,61.1z M336.2,64.3c0.6,0,1,0.5,1,1.2c0,0.6-0.5,1.2-1,1.2s-1-0.5-1-1.2
			C335.2,64.8,335.6,64.3,336.2,64.3z M332.2,64.3c0.6,0,1,0.5,1,1.2c0,0.6-0.5,1.2-1,1.2c-0.6,0-1-0.5-1-1.2
			C331.2,64.8,331.6,64.3,332.2,64.3z M330.2,69.9c-0.6,0-1-0.5-1-1.2s0.5-1.2,1-1.2c0.6,0,1,0.5,1,1.2S330.8,69.9,330.2,69.9z
			 M332.1,73.3c-0.6,0-1-0.5-1-1.2c0-0.6,0.5-1.2,1-1.2c0.6,0,1,0.5,1,1.2C333.1,72.8,332.7,73.3,332.1,73.3z M334.2,69.9
			c-0.6,0-1-0.5-1-1.2s0.5-1.2,1-1.2c0.6,0,1,0.5,1,1.2S334.8,69.9,334.2,69.9z M336,73.3c-0.6,0-1-0.5-1-1.2c0-0.6,0.5-1.2,1-1.2
			s1,0.5,1,1.2C337,72.8,336.6,73.3,336,73.3z M338.1,69.9c-0.6,0-1-0.5-1-1.2s0.5-1.2,1-1.2c0.6,0,1,0.5,1,1.2
			S338.6,69.9,338.1,69.9z"/>
		<path class="st11" d="M164,141.3c5.1-0.5,9-4.9,9-10.3c0-5.7-4.5-10.3-10-10.3c-0.1,0-0.2,0-0.3,0l6.3-1.2
			c0.5-0.1,0.9-0.1,1.4-0.1c5.9,0,10.6,4.9,10.6,11c0,5.9-4.5,10.7-10.2,11L164,141.3z"/>
		<ellipse class="st11" cx="345.2" cy="131.4" rx="11.2" ry="11.4"/>
		<path class="st1" d="M452.2,105.8H168.6c-0.5,0-1-0.4-1-1v-3.3c0-0.5,0.4-1,1-1h283.7c0.5,0,1,0.4,1,1v3.3
			C453.2,105.3,452.8,105.8,452.2,105.8z"/>
		<polygon class="st31" points="206.9,152 205.7,149.1 205.8,139.4 200.3,133.8 194.2,133.8 193.3,133.4 193.3,117.5 194.1,117 
			198.8,117 199.5,116.3 199.5,105.8 200.1,104.9 200.1,103.2 201.3,102.8 448.8,102.8 450.9,105.8 450.9,116.4 449.9,117.4 
			445.2,117.4 444.4,118.1 444.4,133.4 446,134 451.7,134 457,139.5 457,149.1 455.6,152 		"/>
		<polyline class="st31" points="332.9,152.1 331.6,149.1 331.7,139.5 326.2,133.9 320.1,133.9 319.3,133.4 319.3,117.6 320,117.1 
			324.7,117.1 325.4,116.3 325.4,105.8 326.1,105 326.1,103.2 327.2,102.9 		"/>
		<path class="st13" d="M203.7,120.6c-1.1-0.9-2.4-1.4-3.9-1.4c-3.4,0-6.2,2.8-6.2,6.2c0,3.4,2.8,6.2,6.2,6.2c0.4,0,0.7,0,1.1-0.1
			l0.4,0c0.3,0,0.5-0.1,0.8-0.1c2,0,3.8,1.3,4.6,3.1l0.2,0.6c1.7,5.8,7,10.1,13.3,10.1c3.2,0,6.2-1.1,8.5-3l0.4-0.3
			c1.7-1,3.4-1.5,5.5-1.5c1.9,0,3.5,0.5,5.1,1.4l0.6,0.4c2.4,1.9,5.4,3.1,8.6,3.1c3.4,0,6.5-1.2,8.9-3.3l0.3-0.3
			c1.5-1,3-1.6,4.8-1.6c1.7,0,3.3,0.5,4.6,1.4l0.2,0.1c2.4,2,5.4,3.1,8.7,3.1c3.4,0,6.5-1.2,8.9-3.3l0.3-0.2c1.5-1,3.2-1.5,5.1-1.5
			c1.8,0,3.3,0.5,4.8,1.4l0.4,0.3c2.5,2.3,5.7,3.6,9.3,3.6c7.7,0,13.9-6.3,13.9-14.1s-6.2-14.1-13.9-14.1c-3,0-5.9,1-8.1,2.7
			l-0.3,0.2c-1.7,1-3.6,1.5-5.7,1.5c-2,0-3.7-0.4-5.3-1.3l-0.4-0.3c-2.4-2-5.5-3.2-8.8-3.2c-3,0-5.7,0.9-8,2.6l-0.4,0.3
			c-1.7,1-3.5,1.6-5.6,1.6c-2,0-3.7-0.4-5.3-1.3l-0.4-0.3c-2.2-1.5-4.9-2.4-7.7-2.4c-3,0-5.8,1-8.1,2.7l-0.3,0.2
			c-1.8,1-3.7,1.6-5.9,1.6c-2,0-3.8-0.4-5.5-1.3l-0.4-0.3c-2.3-1.8-5.3-3-8.5-3c-3.6,0-6.9,1.4-9.4,3.7l-0.3,0.2
			c-0.9,0.7-2.1,1-3.2,1c-1.2,0-2.4-0.4-3.3-1.1L203.7,120.6z"/>
		<ellipse class="st11" cx="305.2" cy="131.1" rx="11.9" ry="12"/>
		<path class="st11" d="M244.3,142.8c5.4,0,9.9-4.6,9.9-10.2c0-5.6-4.4-10.2-9.9-10.2c-2.2,0-4.3,0.8-6,2.1l1.4-1.6
			c2.1-2.3,5.1-3.7,8.3-3.7c6.3,0,11.5,5.3,11.5,11.9c0,6.6-5.1,11.9-11.5,11.9L244.3,142.8z"/>
		<ellipse class="st11" cx="276.3" cy="131.4" rx="11.2" ry="11.4"/>
		<ellipse class="st11" cx="219.1" cy="131.7" rx="11.2" ry="11.4"/>
	</g>
	<use xlink:href="#SVGID_9_"  style="overflow:visible;fill:none;stroke:#5E5F5F;stroke-width:0.75;stroke-miterlimit:10;"/>
</g>
<g>
	<defs>
		<circle id="SVGID_11_" cx="314.7" cy="95.6" r="21.8"/>
	</defs>
	<clipPath id="SVGID_4_">
		<use xlink:href="#SVGID_11_"  style="overflow:visible;"/>
	</clipPath>
	<g class="st39">
		<path class="st10" d="M600.7,160H265.9c-0.7,0-1.3-0.6-1.3-1.3V48.6c0-0.7,0.6-1.3,1.3-1.3h334.8c0.7,0,1.3,0.6,1.3,1.3v110.1
			C601.9,159.4,601.4,160,600.7,160z"/>
		<path class="st11" d="M264.6,157.7h-28.2c-1.8,0-3.2-1.4-3.2-3.2V52.8c0-1.8,1.4-3.2,3.2-3.2h28.2V157.7z"/>
		<path class="st1" d="M263.6,154h-25.1c-1.1,0-1.9-0.9-1.9-1.9V54.2c0-1.1,0.9-1.9,1.9-1.9h25.1V154z"/>
		<path class="st11" d="M595.5,134.3v20.1H272.2V53h323.4v63.5l0,0.8c1.5,2.2,2.4,4.8,2.4,7.7c0,2.8-0.9,5.5-2.4,7.7L595.5,134.3z"
			/>
		<ellipse class="st13" cx="294.1" cy="74.1" rx="15.4" ry="15.7"/>
		<ellipse class="st13" cx="293.9" cy="130.5" rx="12.6" ry="12.8"/>
		<circle class="st21" cx="304.8" cy="97.5" r="2"/>
		<circle class="st21" cx="315" cy="97.5" r="2"/>
		<circle class="st21" cx="325.1" cy="97.4" r="2"/>
		<path class="st69" d="M303.6,92l7.9-0.1c0,0,0.8-1.1,1.5-1.1c0.6,0,1.1,1,1.1,1l1.5-0.1l0.2,1.2l0.9-5.6l0.5,6.1l0.8-1.6l1.9-0.1
			c0,0,0.7-1.4,1.4-1.4c0.7,0,1.4,1.5,1.4,1.5h2.6"/>
		<g>
			<path class="st1" d="M290.1,95l0.7-0.1c0,0.3,0.1,0.5,0.2,0.7c0.1,0.2,0.3,0.3,0.6,0.4c0.3,0.1,0.5,0.2,0.8,0.2
				c0.3,0,0.5,0,0.7-0.1s0.4-0.2,0.5-0.3c0.1-0.1,0.2-0.3,0.2-0.5c0-0.2-0.1-0.3-0.2-0.5c-0.1-0.1-0.3-0.2-0.5-0.3
				c-0.1-0.1-0.5-0.1-1-0.3s-0.9-0.2-1.1-0.3c-0.3-0.1-0.5-0.3-0.6-0.5c-0.1-0.2-0.2-0.4-0.2-0.7c0-0.3,0.1-0.5,0.2-0.8
				c0.2-0.2,0.4-0.4,0.7-0.6c0.3-0.1,0.6-0.2,1-0.2c0.4,0,0.8,0.1,1.1,0.2c0.3,0.1,0.6,0.3,0.7,0.6c0.2,0.3,0.3,0.5,0.3,0.9
				l-0.7,0.1c0-0.3-0.2-0.6-0.4-0.8c-0.2-0.2-0.5-0.3-1-0.3c-0.4,0-0.8,0.1-1,0.2s-0.3,0.4-0.3,0.6c0,0.2,0.1,0.4,0.2,0.5
				c0.1,0.1,0.5,0.3,1.1,0.4c0.6,0.1,1,0.3,1.2,0.4c0.3,0.1,0.6,0.3,0.7,0.6s0.2,0.5,0.2,0.8c0,0.3-0.1,0.6-0.3,0.8
				s-0.4,0.5-0.7,0.6s-0.7,0.2-1.1,0.2c-0.5,0-0.9-0.1-1.3-0.2c-0.3-0.1-0.6-0.4-0.8-0.7S290.1,95.4,290.1,95z"/>
		</g>
		<g>
			<path class="st1" d="M336.3,93.9v-5.5h0.7v2.3h2.9v-2.3h0.7v5.5h-0.7v-2.6H337v2.6H336.3z"/>
		</g>
		<g>
			<path class="st1" d="M327.9,112.8v-5.5h0.7v5.5H327.9z"/>
			<path class="st1" d="M333.8,110.8l0.7,0.2c-0.2,0.6-0.4,1.1-0.8,1.4s-0.9,0.5-1.5,0.5c-0.6,0-1.1-0.1-1.5-0.4
				c-0.4-0.2-0.7-0.6-0.9-1.1s-0.3-1-0.3-1.5c0-0.6,0.1-1.1,0.3-1.5c0.2-0.4,0.5-0.8,0.9-1s0.9-0.3,1.3-0.3c0.6,0,1,0.1,1.4,0.4
				s0.6,0.7,0.8,1.2l-0.7,0.2c-0.1-0.4-0.3-0.7-0.6-0.9s-0.6-0.3-0.9-0.3c-0.4,0-0.8,0.1-1.1,0.3c-0.3,0.2-0.5,0.5-0.6,0.8
				c-0.1,0.3-0.2,0.7-0.2,1.1c0,0.5,0.1,0.9,0.2,1.2c0.1,0.4,0.4,0.6,0.6,0.8c0.3,0.2,0.6,0.3,0.9,0.3c0.4,0,0.8-0.1,1-0.4
				C333.5,111.7,333.7,111.3,333.8,110.8z"/>
			<path class="st1" d="M335.2,111l0.7-0.1c0,0.3,0.1,0.5,0.2,0.7c0.1,0.2,0.3,0.3,0.6,0.4c0.3,0.1,0.5,0.2,0.8,0.2
				c0.3,0,0.5,0,0.7-0.1s0.4-0.2,0.5-0.3c0.1-0.1,0.2-0.3,0.2-0.5c0-0.2-0.1-0.3-0.2-0.5c-0.1-0.1-0.3-0.2-0.5-0.3
				c-0.1-0.1-0.5-0.1-1-0.3s-0.9-0.2-1.1-0.3c-0.3-0.1-0.5-0.3-0.6-0.5c-0.1-0.2-0.2-0.4-0.2-0.7c0-0.3,0.1-0.5,0.2-0.8
				c0.2-0.2,0.4-0.4,0.7-0.6c0.3-0.1,0.6-0.2,1-0.2c0.4,0,0.8,0.1,1.1,0.2c0.3,0.1,0.6,0.3,0.7,0.6c0.2,0.3,0.3,0.5,0.3,0.9
				l-0.7,0.1c0-0.3-0.2-0.6-0.4-0.8c-0.2-0.2-0.5-0.3-1-0.3c-0.4,0-0.8,0.1-1,0.2s-0.3,0.4-0.3,0.6c0,0.2,0.1,0.4,0.2,0.5
				c0.1,0.1,0.5,0.3,1.1,0.4c0.6,0.1,1,0.3,1.2,0.4c0.3,0.1,0.6,0.3,0.7,0.6s0.2,0.5,0.2,0.8c0,0.3-0.1,0.6-0.3,0.8
				s-0.4,0.5-0.7,0.6s-0.7,0.2-1.1,0.2c-0.5,0-0.9-0.1-1.3-0.2c-0.3-0.1-0.6-0.4-0.8-0.7S335.2,111.4,335.2,111z"/>
		</g>
		<g>
			<path class="st1" d="M284,113.7v-4.9h-1.8v-0.7h4.4v0.7h-1.8v4.9H284z"/>
			<path class="st1" d="M286.1,113.7l2.1-5.5h0.8l2.3,5.5h-0.8l-0.6-1.7h-2.3l-0.6,1.7H286.1z M287.7,111.4h1.9l-0.6-1.5
				c-0.2-0.5-0.3-0.8-0.4-1.1c-0.1,0.4-0.2,0.7-0.3,1.1L287.7,111.4z"/>
			<path class="st1" d="M295.8,111.8l0.7,0.2c-0.2,0.6-0.4,1.1-0.8,1.4s-0.9,0.5-1.5,0.5c-0.6,0-1.1-0.1-1.5-0.4
				c-0.4-0.2-0.7-0.6-0.9-1.1s-0.3-1-0.3-1.5c0-0.6,0.1-1.1,0.3-1.5c0.2-0.4,0.5-0.8,0.9-1s0.9-0.3,1.3-0.3c0.6,0,1,0.1,1.4,0.4
				s0.6,0.7,0.8,1.2l-0.7,0.2c-0.1-0.4-0.3-0.7-0.6-0.9s-0.6-0.3-0.9-0.3c-0.4,0-0.8,0.1-1.1,0.3c-0.3,0.2-0.5,0.5-0.6,0.8
				c-0.1,0.3-0.2,0.7-0.2,1.1c0,0.5,0.1,0.9,0.2,1.2c0.1,0.4,0.4,0.6,0.6,0.8c0.3,0.2,0.6,0.3,0.9,0.3c0.4,0,0.8-0.1,1-0.4
				C295.5,112.6,295.7,112.2,295.8,111.8z"/>
			<path class="st1" d="M299.7,113.7H299v-4.3c-0.2,0.2-0.4,0.3-0.6,0.5c-0.3,0.2-0.5,0.3-0.7,0.4v-0.7c0.4-0.2,0.7-0.4,1-0.6
				s0.5-0.5,0.6-0.7h0.4V113.7z"/>
			<path class="st1" d="M303.1,113.4v0.3h-1.9c0-0.1,0-0.2,0-0.2c0-0.1,0.1-0.3,0.2-0.4s0.3-0.3,0.5-0.4c0.3-0.3,0.5-0.5,0.6-0.6
				c0.1-0.1,0.2-0.3,0.2-0.4c0-0.1,0-0.3-0.1-0.3s-0.2-0.1-0.4-0.1c-0.2,0-0.3,0.1-0.4,0.2s-0.2,0.2-0.2,0.4l-0.4,0
				c0-0.3,0.1-0.5,0.3-0.6c0.2-0.1,0.4-0.2,0.6-0.2c0.3,0,0.5,0.1,0.6,0.2c0.2,0.2,0.2,0.3,0.2,0.6c0,0.1,0,0.2-0.1,0.3
				c0,0.1-0.1,0.2-0.2,0.3c-0.1,0.1-0.3,0.3-0.5,0.5c-0.2,0.2-0.3,0.3-0.4,0.4c-0.1,0.1-0.1,0.1-0.1,0.2H303.1z"/>
		</g>
		<path class="st13" d="M447.8,81.8c-2-0.9-4.2-1.4-6.6-1.4c-2.5,0-4.9,0.6-7,1.6l-0.4,0.2c-2,1.1-4.2,1.7-6.6,1.7
			c-2.6,0-5-0.7-7.1-2l-0.5-0.2c-1.8-0.9-3.8-1.5-6-1.5c-2.4,0-4.6,0.6-6.5,1.6l-0.3,0.2c-2.2,1.5-4.8,2.3-7.7,2.3
			c-2.8,0-5.2-0.8-7.4-2.2l-0.7-0.4c-1.8-0.9-3.9-1.4-6.1-1.4c-2.4,0-4.3,0.5-6.2,1.5l-0.6,0.3c-2.1,1.3-4.6,2.1-7.3,2.1
			c-2.9,0-5.5-0.9-7.7-2.4l-0.6-0.3c-1.7-0.9-3.4-1.4-5.4-1.4c-2.1,0-4.2,0.6-5.9,1.6l-1.4,0.9c-2,1.2-4.3,1.8-6.8,1.8
			c-7.7,0-13.9-6.3-13.9-14.1s6.2-14.1,13.9-14.1c2.7,0,5.3,0.8,7.4,2.2l1.1,0.6c1.6,0.9,3.3,1.4,5.3,1.4c2.1,0,4-0.6,5.8-1.6
			l0.5-0.3c2.2-1.5,4.9-2.4,7.8-2.4c3.1,0,6,1,8.3,2.8l0.5,0.3c1.6,0.9,3.4,1.3,5.3,1.3c2.1,0,4-0.6,5.7-1.6l0.6-0.4
			c2.2-1.6,4.9-2.5,7.9-2.5c2.9,0,5.6,0.9,7.9,2.5l0.3,0.2c1.7,0.9,3.6,1.4,5.6,1.4c2.2,0,4.2-0.6,5.9-1.6l0.4-0.3
			c2.2-1.6,5-2.5,7.9-2.5c3.1,0,6,1,8.3,2.8l0.5,0.3c1.7,0.9,3.4,1.4,5.4,1.4c2.1,0,4.1-0.6,5.8-1.6l0.4-0.3
			c2.2-1.5,4.9-2.4,7.8-2.4c7.7,0,13.9,6.3,13.9,14.1s-6.2,14.1-13.9,14.1c-2.7,0-5.2-0.8-7.3-2.1L447.8,81.8z"/>
		<ellipse class="st12" cx="283.5" cy="72.3" rx="10.5" ry="10.7"/>
		<path class="st12" d="M282.8,82.9c0.2,0,0.5,0,0.7,0c5.8,0,10.5-4.8,10.5-10.7s-4.7-10.7-10.5-10.7"/>
		<path class="st11" d="M291.6,62.6c5.8,0.4,10.4,5.3,10.4,11.3c0,6.3-5,11.3-11.1,11.3l-8.1-2.3c0.2,0,0.5,0,0.7,0
			c5.8,0,10.5-4.8,10.5-10.7c0-5.7-4.3-10.3-9.8-10.7L291.6,62.6z"/>
		<path class="st11" d="M339.8,58.4c4.6,1.2,8,5.3,8,10.1c0,5.8-4.8,10.4-10.8,10.4c-1.7,0-3.3-0.4-4.7-1l5.3,3.9
			c1.3,0.4,2.6,0.7,4,0.7c6.7,0,12.1-5.2,12.1-11.7c0-5.7-4.1-10.4-9.7-11.5L339.8,58.4z"/>
		<ellipse class="st16" cx="283.5" cy="72.3" rx="10.5" ry="10.7"/>
		<ellipse class="st16" cx="337" cy="68.4" rx="10.8" ry="10.4"/>
		<path class="st6" d="M285.4,65.1c-4.1,0-7.4,3.5-7.4,7.7c0,4.3,3.3,7.7,7.4,7.7c4.1,0,7.4-3.5,7.4-7.7
			C292.8,68.6,289.5,65.1,285.4,65.1z M287.3,68.3c0.6,0,1,0.5,1,1.2c0,0.6-0.5,1.2-1,1.2c-0.6,0-1-0.5-1-1.2
			C286.3,68.9,286.8,68.3,287.3,68.3z M283.3,68.3c0.6,0,1,0.5,1,1.2c0,0.6-0.5,1.2-1,1.2s-1-0.5-1-1.2
			C282.3,68.9,282.8,68.3,283.3,68.3z M281.3,73.9c-0.6,0-1-0.5-1-1.2s0.5-1.2,1-1.2s1,0.5,1,1.2S281.9,73.9,281.3,73.9z
			 M283.3,77.4c-0.6,0-1-0.5-1-1.2c0-0.6,0.5-1.2,1-1.2c0.6,0,1,0.5,1,1.2C284.3,76.8,283.8,77.4,283.3,77.4z M285.4,74
			c-0.6,0-1-0.5-1-1.2c0-0.6,0.5-1.2,1-1.2c0.6,0,1,0.5,1,1.2C286.4,73.4,285.9,74,285.4,74z M287.2,77.3c-0.6,0-1-0.5-1-1.2
			c0-0.6,0.5-1.2,1-1.2c0.6,0,1,0.5,1,1.2C288.2,76.8,287.7,77.3,287.2,77.3z M289.2,74c-0.6,0-1-0.5-1-1.2c0-0.6,0.5-1.2,1-1.2
			c0.6,0,1,0.5,1,1.2C290.2,73.4,289.8,74,289.2,74z"/>
		<path class="st6" d="M338.2,61.1c-4.1,0-7.4,3.5-7.4,7.7c0,4.3,3.3,7.7,7.4,7.7c4.1,0,7.4-3.5,7.4-7.7
			C345.6,64.5,342.3,61.1,338.2,61.1z M340.2,64.2c0.6,0,1,0.5,1,1.2c0,0.6-0.5,1.2-1,1.2s-1-0.5-1-1.2
			C339.2,64.8,339.6,64.2,340.2,64.2z M336.2,64.2c0.6,0,1,0.5,1,1.2c0,0.6-0.5,1.2-1,1.2c-0.6,0-1-0.5-1-1.2
			C335.1,64.8,335.6,64.2,336.2,64.2z M334.2,69.8c-0.6,0-1-0.5-1-1.2s0.5-1.2,1-1.2c0.6,0,1,0.5,1,1.2S334.8,69.8,334.2,69.8z
			 M336.1,73.3c-0.6,0-1-0.5-1-1.2c0-0.6,0.5-1.2,1-1.2c0.6,0,1,0.5,1,1.2C337.1,72.7,336.7,73.3,336.1,73.3z M338.2,69.9
			c-0.6,0-1-0.5-1-1.2s0.5-1.2,1-1.2s1,0.5,1,1.2S338.8,69.9,338.2,69.9z M340,73.2c-0.6,0-1-0.5-1-1.2c0-0.6,0.5-1.2,1-1.2
			s1,0.5,1,1.2C341,72.7,340.6,73.2,340,73.2z M342,69.9c-0.6,0-1-0.5-1-1.2s0.5-1.2,1-1.2c0.6,0,1,0.5,1,1.2S342.6,69.9,342,69.9z"
			/>
		<path class="st11" d="M287,141.3c5.1-0.5,9-4.9,9-10.3c0-5.7-4.5-10.3-10-10.3c-0.1,0-0.2,0-0.3,0l6.3-1.2
			c0.5-0.1,0.9-0.1,1.4-0.1c5.9,0,10.6,4.9,10.6,11c0,5.9-4.5,10.7-10.2,11L287,141.3z"/>
		<path class="st1" d="M575.2,105.8H291.6c-0.5,0-1-0.4-1-1v-3.3c0-0.5,0.4-1,1-1h283.7c0.5,0,1,0.4,1,1v3.3
			C576.2,105.3,575.8,105.8,575.2,105.8z"/>
		<polygon class="st31" points="329.9,152 328.7,149.1 328.8,139.4 323.3,133.8 317.2,133.8 316.3,133.4 316.3,117.5 317.1,117 
			321.8,117 322.5,116.3 322.5,105.8 323.1,104.9 323.1,103.2 324.3,102.8 571.8,102.8 573.9,105.8 573.9,116.4 572.9,117.4 
			568.2,117.4 567.4,118.1 567.4,133.4 569,134 574.7,134 580,139.5 580,149.1 578.6,152 		"/>
		<path class="st13" d="M326.7,120.6c-1.1-0.9-2.4-1.4-3.9-1.4c-3.4,0-6.2,2.8-6.2,6.2c0,3.4,2.8,6.2,6.2,6.2c0.4,0,0.7,0,1.1-0.1
			l0.4,0c0.3,0,0.5-0.1,0.8-0.1c2,0,3.8,1.3,4.6,3.1l0.2,0.6c1.7,5.8,7,10.1,13.3,10.1c3.2,0,6.2-1.1,8.5-3l0.4-0.3
			c1.7-1,3.4-1.5,5.5-1.5c1.9,0,3.5,0.5,5.1,1.4l0.6,0.4c2.4,1.9,5.4,3.1,8.6,3.1c3.4,0,6.5-1.2,8.9-3.3l0.3-0.3
			c1.5-1,3-1.6,4.8-1.6c1.7,0,3.3,0.5,4.6,1.4l0.2,0.1c2.4,2,5.4,3.1,8.7,3.1c3.4,0,6.5-1.2,8.9-3.3l0.3-0.2c1.5-1,3.2-1.5,5.1-1.5
			c1.8,0,3.3,0.5,4.8,1.4l0.4,0.3c2.5,2.3,5.7,3.6,9.3,3.6c7.7,0,13.9-6.3,13.9-14.1s-6.2-14.1-13.9-14.1c-3,0-5.9,1-8.1,2.7
			l-0.3,0.2c-1.7,1-3.6,1.5-5.7,1.5c-2,0-3.7-0.4-5.3-1.3l-0.4-0.3c-2.4-2-5.5-3.2-8.8-3.2c-3,0-5.7,0.9-8,2.6l-0.4,0.3
			c-1.7,1-3.5,1.6-5.6,1.6c-2,0-3.7-0.4-5.3-1.3l-0.4-0.3c-2.2-1.5-4.9-2.4-7.7-2.4c-3,0-5.8,1-8.1,2.7l-0.3,0.2
			c-1.8,1-3.7,1.6-5.9,1.6c-2,0-3.8-0.4-5.5-1.3l-0.4-0.3c-2.3-1.8-5.3-3-8.5-3c-3.6,0-6.9,1.4-9.4,3.7l-0.3,0.2
			c-0.9,0.7-2.1,1-3.2,1c-1.2,0-2.4-0.4-3.3-1.1L326.7,120.6z"/>
		<ellipse class="st11" cx="342.1" cy="131.7" rx="11.2" ry="11.4"/>
	</g>
	<use xlink:href="#SVGID_11_"  style="overflow:visible;fill:none;stroke:#5E5F5F;stroke-width:0.75;stroke-miterlimit:10;"/>
</g>
<g>
	<defs>
		<circle id="SVGID_13_" cx="253.2" cy="95.6" r="21.8"/>
	</defs>
	<clipPath id="SVGID_6_">
		<use xlink:href="#SVGID_13_"  style="overflow:visible;"/>
	</clipPath>
	<g style="clip-path:url(#SVGID_6_);">
		<path class="st10" d="M539.2,160H204.4c-0.7,0-1.3-0.6-1.3-1.3V48.6c0-0.7,0.6-1.3,1.3-1.3h334.8c0.7,0,1.3,0.6,1.3,1.3v110.1
			C540.4,159.4,539.9,160,539.2,160z"/>
		<path class="st11" d="M203.1,157.7h-28.2c-1.8,0-3.2-1.4-3.2-3.2V52.8c0-1.8,1.4-3.2,3.2-3.2h28.2V157.7z"/>
		<path class="st1" d="M202.1,154H177c-1.1,0-1.9-0.9-1.9-1.9V54.2c0-1.1,0.9-1.9,1.9-1.9h25.1V154z"/>
		<path class="st11" d="M534,134.3v20.1H210.7V53H534v63.5l0,0.8c1.5,2.2,2.4,4.8,2.4,7.7c0,2.8-0.9,5.5-2.4,7.7L534,134.3z"/>
		<ellipse class="st13" cx="232.6" cy="74.1" rx="15.4" ry="15.7"/>
		<ellipse class="st13" cx="232.4" cy="130.5" rx="12.6" ry="12.8"/>
		<path class="st11" d="M329.3,35.8l76.6-0.2c0,0,6.8,0,11,4.8c4.2,4.8,5.8,6.7,8.7,6.9H307.8c0,0,8.2-1.6,11.1-7.3
			C318.9,40,320.8,36,329.3,35.8z"/>
		<circle class="st21" cx="243.3" cy="97.5" r="2"/>
		<circle class="st21" cx="253.5" cy="97.5" r="2"/>
		<circle class="st1" cx="263.6" cy="97.4" r="2"/>
		<path class="st69" d="M242.1,92l7.9-0.1c0,0,0.8-1.1,1.5-1.1c0.6,0,1.1,1,1.1,1l1.5-0.1l0.2,1.2l0.9-5.6l0.5,6.1l0.8-1.6l1.9-0.1
			c0,0,0.7-1.4,1.4-1.4c0.7,0,1.4,1.5,1.4,1.5h2.6"/>
		<g>
			<path class="st1" d="M228.6,95l0.7-0.1c0,0.3,0.1,0.5,0.2,0.7c0.1,0.2,0.3,0.3,0.6,0.4c0.3,0.1,0.5,0.2,0.8,0.2
				c0.3,0,0.5,0,0.7-0.1s0.4-0.2,0.5-0.3c0.1-0.1,0.2-0.3,0.2-0.5c0-0.2-0.1-0.3-0.2-0.5c-0.1-0.1-0.3-0.2-0.5-0.3
				c-0.1-0.1-0.5-0.1-1-0.3s-0.9-0.2-1.1-0.3c-0.3-0.1-0.5-0.3-0.6-0.5c-0.1-0.2-0.2-0.4-0.2-0.7c0-0.3,0.1-0.5,0.2-0.8
				c0.2-0.2,0.4-0.4,0.7-0.6c0.3-0.1,0.6-0.2,1-0.2c0.4,0,0.8,0.1,1.1,0.2c0.3,0.1,0.6,0.3,0.7,0.6c0.2,0.3,0.3,0.5,0.3,0.9
				l-0.7,0.1c0-0.3-0.2-0.6-0.4-0.8c-0.2-0.2-0.5-0.3-1-0.3c-0.4,0-0.8,0.1-1,0.2s-0.3,0.4-0.3,0.6c0,0.2,0.1,0.4,0.2,0.5
				c0.1,0.1,0.5,0.3,1.1,0.4c0.6,0.1,1,0.3,1.2,0.4c0.3,0.1,0.6,0.3,0.7,0.6s0.2,0.5,0.2,0.8c0,0.3-0.1,0.6-0.3,0.8
				s-0.4,0.5-0.7,0.6s-0.7,0.2-1.1,0.2c-0.5,0-0.9-0.1-1.3-0.2c-0.3-0.1-0.6-0.4-0.8-0.7S228.6,95.4,228.6,95z"/>
		</g>
		<g>
			<path class="st1" d="M274.8,93.9v-5.5h0.7v2.3h2.9v-2.3h0.7v5.5h-0.7v-2.6h-2.9v2.6H274.8z"/>
			<path class="st1" d="M280.4,93.9v-5.5h1.9c0.4,0,0.8,0,1,0.1c0.3,0.1,0.6,0.2,0.8,0.4c0.3,0.2,0.5,0.6,0.7,0.9
				c0.1,0.4,0.2,0.8,0.2,1.3c0,0.4,0,0.8-0.1,1.1c-0.1,0.3-0.2,0.6-0.4,0.8c-0.2,0.2-0.3,0.4-0.5,0.5c-0.2,0.1-0.4,0.2-0.7,0.3
				c-0.3,0.1-0.6,0.1-0.9,0.1H280.4z M281.1,93.2h1.2c0.4,0,0.7,0,0.9-0.1c0.2-0.1,0.4-0.2,0.5-0.3c0.2-0.2,0.3-0.4,0.4-0.7
				c0.1-0.3,0.1-0.6,0.1-1.1c0-0.6-0.1-1-0.3-1.3c-0.2-0.3-0.4-0.5-0.7-0.6c-0.2-0.1-0.5-0.1-0.9-0.1h-1.2V93.2z"/>
			<path class="st1" d="M286.1,93.9v-5.5h0.7v5.5H286.1z"/>
		</g>
		<g>
			<path class="st1" d="M266.4,112.8v-5.5h0.7v5.5H266.4z"/>
			<path class="st1" d="M272.3,110.8l0.7,0.2c-0.2,0.6-0.4,1.1-0.8,1.4s-0.9,0.5-1.5,0.5c-0.6,0-1.1-0.1-1.5-0.4
				c-0.4-0.2-0.7-0.6-0.9-1.1s-0.3-1-0.3-1.5c0-0.6,0.1-1.1,0.3-1.5c0.2-0.4,0.5-0.8,0.9-1s0.9-0.3,1.3-0.3c0.6,0,1,0.1,1.4,0.4
				s0.6,0.7,0.8,1.2l-0.7,0.2c-0.1-0.4-0.3-0.7-0.6-0.9s-0.6-0.3-0.9-0.3c-0.4,0-0.8,0.1-1.1,0.3c-0.3,0.2-0.5,0.5-0.6,0.8
				c-0.1,0.3-0.2,0.7-0.2,1.1c0,0.5,0.1,0.9,0.2,1.2c0.1,0.4,0.4,0.6,0.6,0.8c0.3,0.2,0.6,0.3,0.9,0.3c0.4,0,0.8-0.1,1-0.4
				C272,111.7,272.2,111.3,272.3,110.8z"/>
			<path class="st1" d="M273.7,111l0.7-0.1c0,0.3,0.1,0.5,0.2,0.7c0.1,0.2,0.3,0.3,0.6,0.4c0.3,0.1,0.5,0.2,0.8,0.2
				c0.3,0,0.5,0,0.7-0.1s0.4-0.2,0.5-0.3c0.1-0.1,0.2-0.3,0.2-0.5c0-0.2-0.1-0.3-0.2-0.5c-0.1-0.1-0.3-0.2-0.5-0.3
				c-0.1-0.1-0.5-0.1-1-0.3s-0.9-0.2-1.1-0.3c-0.3-0.1-0.5-0.3-0.6-0.5c-0.1-0.2-0.2-0.4-0.2-0.7c0-0.3,0.1-0.5,0.2-0.8
				c0.2-0.2,0.4-0.4,0.7-0.6c0.3-0.1,0.6-0.2,1-0.2c0.4,0,0.8,0.1,1.1,0.2c0.3,0.1,0.6,0.3,0.7,0.6c0.2,0.3,0.3,0.5,0.3,0.9
				l-0.7,0.1c0-0.3-0.2-0.6-0.4-0.8c-0.2-0.2-0.5-0.3-1-0.3c-0.4,0-0.8,0.1-1,0.2s-0.3,0.4-0.3,0.6c0,0.2,0.1,0.4,0.2,0.5
				c0.1,0.1,0.5,0.3,1.1,0.4c0.6,0.1,1,0.3,1.2,0.4c0.3,0.1,0.6,0.3,0.7,0.6s0.2,0.5,0.2,0.8c0,0.3-0.1,0.6-0.3,0.8
				s-0.4,0.5-0.7,0.6s-0.7,0.2-1.1,0.2c-0.5,0-0.9-0.1-1.3-0.2c-0.3-0.1-0.6-0.4-0.8-0.7S273.7,111.4,273.7,111z"/>
			<path class="st1" d="M280,110.2v-0.8h-1.4v-0.4l1.5-2.1h0.3v2.1h0.4v0.4h-0.4v0.8H280z M280,109.1v-1.5l-1,1.5H280z"/>
			<path class="st1" d="M283.3,109.8v0.4h-2.1c0-0.1,0-0.2,0-0.3c0.1-0.1,0.1-0.3,0.3-0.4c0.1-0.1,0.3-0.3,0.5-0.5
				c0.3-0.3,0.6-0.5,0.7-0.7s0.2-0.3,0.2-0.5c0-0.2-0.1-0.3-0.2-0.4c-0.1-0.1-0.3-0.2-0.4-0.2c-0.2,0-0.3,0.1-0.5,0.2
				s-0.2,0.3-0.2,0.5l-0.4,0c0-0.3,0.1-0.5,0.3-0.7s0.4-0.2,0.7-0.2c0.3,0,0.6,0.1,0.7,0.3c0.2,0.2,0.3,0.4,0.3,0.6
				c0,0.1,0,0.3-0.1,0.4c-0.1,0.1-0.1,0.3-0.3,0.4s-0.3,0.3-0.6,0.6c-0.2,0.2-0.4,0.3-0.5,0.4s-0.1,0.1-0.2,0.2H283.3z"/>
		</g>
		<g>
			<path class="st1" d="M222.5,113.7v-4.9h-1.8v-0.7h4.4v0.7h-1.8v4.9H222.5z"/>
			<path class="st1" d="M224.6,113.7l2.1-5.5h0.8l2.3,5.5H229l-0.6-1.7H226l-0.6,1.7H224.6z M226.2,111.4h1.9l-0.6-1.5
				c-0.2-0.5-0.3-0.8-0.4-1.1c-0.1,0.4-0.2,0.7-0.3,1.1L226.2,111.4z"/>
			<path class="st1" d="M234.3,111.8l0.7,0.2c-0.2,0.6-0.4,1.1-0.8,1.4s-0.9,0.5-1.5,0.5c-0.6,0-1.1-0.1-1.5-0.4
				c-0.4-0.2-0.7-0.6-0.9-1.1s-0.3-1-0.3-1.5c0-0.6,0.1-1.1,0.3-1.5c0.2-0.4,0.5-0.8,0.9-1s0.9-0.3,1.3-0.3c0.6,0,1,0.1,1.4,0.4
				s0.6,0.7,0.8,1.2l-0.7,0.2c-0.1-0.4-0.3-0.7-0.6-0.9s-0.6-0.3-0.9-0.3c-0.4,0-0.8,0.1-1.1,0.3c-0.3,0.2-0.5,0.5-0.6,0.8
				c-0.1,0.3-0.2,0.7-0.2,1.1c0,0.5,0.1,0.9,0.2,1.2c0.1,0.4,0.4,0.6,0.6,0.8c0.3,0.2,0.6,0.3,0.9,0.3c0.4,0,0.8-0.1,1-0.4
				C234,112.6,234.2,112.2,234.3,111.8z"/>
			<path class="st1" d="M238.2,113.7h-0.7v-4.3c-0.2,0.2-0.4,0.3-0.6,0.5c-0.3,0.2-0.5,0.3-0.7,0.4v-0.7c0.4-0.2,0.7-0.4,1-0.6
				s0.5-0.5,0.6-0.7h0.4V113.7z"/>
			<path class="st1" d="M241.6,113.4v0.3h-1.9c0-0.1,0-0.2,0-0.2c0-0.1,0.1-0.3,0.2-0.4s0.3-0.3,0.5-0.4c0.3-0.3,0.5-0.5,0.6-0.6
				c0.1-0.1,0.2-0.3,0.2-0.4c0-0.1,0-0.3-0.1-0.3s-0.2-0.1-0.4-0.1c-0.2,0-0.3,0.1-0.4,0.2s-0.2,0.2-0.2,0.4l-0.4,0
				c0-0.3,0.1-0.5,0.3-0.6c0.2-0.1,0.4-0.2,0.6-0.2c0.3,0,0.5,0.1,0.6,0.2c0.2,0.2,0.2,0.3,0.2,0.6c0,0.1,0,0.2-0.1,0.3
				c0,0.1-0.1,0.2-0.2,0.3c-0.1,0.1-0.3,0.3-0.5,0.5c-0.2,0.2-0.3,0.3-0.4,0.4c-0.1,0.1-0.1,0.1-0.1,0.2H241.6z"/>
		</g>
		<g>
			<path class="st1" d="M318.5,112.1h-0.7v-4.3c-0.2,0.2-0.4,0.3-0.6,0.5c-0.3,0.2-0.5,0.3-0.7,0.4v-0.7c0.4-0.2,0.7-0.4,1-0.6
				s0.5-0.5,0.6-0.7h0.4V112.1z"/>
			<path class="st1" d="M321.9,111.8v0.3h-1.9c0-0.1,0-0.2,0-0.2c0-0.1,0.1-0.3,0.2-0.4s0.3-0.3,0.5-0.4c0.3-0.3,0.5-0.5,0.6-0.6
				c0.1-0.1,0.2-0.3,0.2-0.4c0-0.1,0-0.3-0.1-0.3s-0.2-0.1-0.4-0.1c-0.2,0-0.3,0.1-0.4,0.2s-0.2,0.2-0.2,0.4l-0.4,0
				c0-0.3,0.1-0.5,0.3-0.6c0.2-0.1,0.4-0.2,0.6-0.2c0.3,0,0.5,0.1,0.6,0.2c0.2,0.2,0.2,0.3,0.2,0.6c0,0.1,0,0.2-0.1,0.3
				c0,0.1-0.1,0.2-0.2,0.3c-0.1,0.1-0.3,0.3-0.5,0.5c-0.2,0.2-0.3,0.3-0.4,0.4c-0.1,0.1-0.1,0.1-0.1,0.2H321.9z"/>
			<path class="st1" d="M322.3,111.4l0.3,0c0,0.2,0.1,0.3,0.2,0.4c0.1,0.1,0.2,0.1,0.4,0.1c0.2,0,0.3-0.1,0.4-0.2
				c0.1-0.1,0.2-0.3,0.2-0.4c0-0.2-0.1-0.3-0.2-0.4c-0.1-0.1-0.2-0.2-0.4-0.2c-0.1,0-0.1,0-0.2,0l0-0.3c0,0,0,0,0.1,0
				c0.1,0,0.3,0,0.4-0.1c0.1-0.1,0.2-0.2,0.2-0.4c0-0.1,0-0.2-0.1-0.3c-0.1-0.1-0.2-0.1-0.3-0.1c-0.1,0-0.2,0-0.3,0.1
				s-0.1,0.2-0.2,0.4l-0.3-0.1c0-0.2,0.1-0.4,0.3-0.5s0.3-0.2,0.6-0.2c0.2,0,0.3,0,0.4,0.1c0.1,0.1,0.2,0.2,0.3,0.3
				c0.1,0.1,0.1,0.2,0.1,0.4c0,0.1,0,0.2-0.1,0.3c-0.1,0.1-0.2,0.2-0.3,0.2c0.2,0,0.3,0.1,0.4,0.2c0.1,0.1,0.1,0.3,0.1,0.5
				c0,0.2-0.1,0.5-0.3,0.6c-0.2,0.2-0.4,0.3-0.7,0.3c-0.2,0-0.5-0.1-0.6-0.2C322.4,111.8,322.3,111.6,322.3,111.4z"/>
		</g>
		<path class="st13" d="M386.3,81.8c-2-0.9-4.2-1.4-6.6-1.4c-2.5,0-4.9,0.6-7,1.6l-0.4,0.2c-2,1.1-4.2,1.7-6.6,1.7
			c-2.6,0-5-0.7-7.1-2l-0.5-0.2c-1.8-0.9-3.8-1.5-6-1.5c-2.4,0-4.6,0.6-6.5,1.6l-0.3,0.2c-2.2,1.5-4.8,2.3-7.7,2.3
			c-2.8,0-5.2-0.8-7.4-2.2l-0.7-0.4c-1.8-0.9-3.9-1.4-6.1-1.4c-2.4,0-4.3,0.5-6.2,1.5l-0.6,0.3c-2.1,1.3-4.6,2.1-7.3,2.1
			c-2.9,0-5.5-0.9-7.7-2.4l-0.6-0.3c-1.7-0.9-3.4-1.4-5.4-1.4c-2.1,0-4.2,0.6-5.9,1.6l-1.4,0.9c-2,1.2-4.3,1.8-6.8,1.8
			c-7.7,0-13.9-6.3-13.9-14.1s6.2-14.1,13.9-14.1c2.7,0,5.3,0.8,7.4,2.2l1.1,0.6c1.6,0.9,3.3,1.4,5.3,1.4c2.1,0,4-0.6,5.8-1.6
			l0.5-0.3c2.2-1.5,4.9-2.4,7.8-2.4c3.1,0,6,1,8.3,2.8l0.5,0.3c1.6,0.9,3.4,1.3,5.3,1.3c2.1,0,4-0.6,5.7-1.6l0.6-0.4
			c2.2-1.6,4.9-2.5,7.9-2.5c2.9,0,5.6,0.9,7.9,2.5l0.3,0.2c1.7,0.9,3.6,1.4,5.6,1.4c2.2,0,4.2-0.6,5.9-1.6l0.4-0.3
			c2.2-1.6,5-2.5,7.9-2.5c3.1,0,6,1,8.3,2.8l0.5,0.3c1.7,0.9,3.4,1.4,5.4,1.4c2.1,0,4.1-0.6,5.8-1.6l0.4-0.3
			c2.2-1.5,4.9-2.4,7.8-2.4c7.7,0,13.9,6.3,13.9,14.1s-6.2,14.1-13.9,14.1c-2.7,0-5.2-0.8-7.3-2.1L386.3,81.8z"/>
		<ellipse class="st12" cx="222" cy="72.3" rx="10.5" ry="10.7"/>
		<path class="st12" d="M221.3,82.9c0.2,0,0.5,0,0.7,0c5.8,0,10.5-4.8,10.5-10.7s-4.7-10.7-10.5-10.7"/>
		<path class="st11" d="M230.1,62.6c5.8,0.4,10.4,5.3,10.4,11.3c0,6.3-5,11.3-11.1,11.3l-8.1-2.3c0.2,0,0.5,0,0.7,0
			c5.8,0,10.5-4.8,10.5-10.7c0-5.7-4.3-10.3-9.8-10.7L230.1,62.6z"/>
		<path class="st11" d="M278.3,58.4c4.6,1.2,8,5.3,8,10.1c0,5.8-4.8,10.4-10.8,10.4c-1.7,0-3.3-0.4-4.7-1l5.3,3.9
			c1.3,0.4,2.6,0.7,4,0.7c6.7,0,12.1-5.2,12.1-11.7c0-5.7-4.1-10.4-9.7-11.5L278.3,58.4z"/>
		<ellipse class="st11" cx="309.7" cy="70.6" rx="11.2" ry="11.4"/>
		<ellipse class="st11" cx="338.1" cy="70.6" rx="11.2" ry="11.4"/>
		<ellipse class="st16" cx="222" cy="72.3" rx="10.5" ry="10.7"/>
		<ellipse class="st16" cx="275.5" cy="68.4" rx="10.8" ry="10.4"/>
		<path class="st6" d="M223.9,65.1c-4.1,0-7.4,3.5-7.4,7.7c0,4.3,3.3,7.7,7.4,7.7c4.1,0,7.4-3.5,7.4-7.7
			C231.3,68.6,228,65.1,223.9,65.1z M225.8,68.3c0.6,0,1,0.5,1,1.2c0,0.6-0.5,1.2-1,1.2s-1-0.5-1-1.2
			C224.8,68.9,225.3,68.3,225.8,68.3z M221.8,68.3c0.6,0,1,0.5,1,1.2c0,0.6-0.5,1.2-1,1.2s-1-0.5-1-1.2
			C220.8,68.9,221.3,68.3,221.8,68.3z M219.8,73.9c-0.6,0-1-0.5-1-1.2s0.5-1.2,1-1.2s1,0.5,1,1.2S220.4,73.9,219.8,73.9z
			 M221.8,77.4c-0.6,0-1-0.5-1-1.2c0-0.6,0.5-1.2,1-1.2c0.6,0,1,0.5,1,1.2C222.8,76.8,222.3,77.4,221.8,77.4z M223.9,74
			c-0.6,0-1-0.5-1-1.2c0-0.6,0.5-1.2,1-1.2c0.6,0,1,0.5,1,1.2C224.9,73.4,224.4,74,223.9,74z M225.7,77.3c-0.6,0-1-0.5-1-1.2
			c0-0.6,0.5-1.2,1-1.2s1,0.5,1,1.2C226.7,76.8,226.2,77.3,225.7,77.3z M227.7,74c-0.6,0-1-0.5-1-1.2c0-0.6,0.5-1.2,1-1.2
			c0.6,0,1,0.5,1,1.2C228.7,73.4,228.3,74,227.7,74z"/>
		<path class="st6" d="M276.7,61.1c-4.1,0-7.4,3.5-7.4,7.7c0,4.3,3.3,7.7,7.4,7.7c4.1,0,7.4-3.5,7.4-7.7
			C284.1,64.5,280.8,61.1,276.7,61.1z M278.7,64.2c0.6,0,1,0.5,1,1.2c0,0.6-0.5,1.2-1,1.2s-1-0.5-1-1.2
			C277.7,64.8,278.1,64.2,278.7,64.2z M274.7,64.2c0.6,0,1,0.5,1,1.2c0,0.6-0.5,1.2-1,1.2c-0.6,0-1-0.5-1-1.2
			C273.6,64.8,274.1,64.2,274.7,64.2z M272.7,69.8c-0.6,0-1-0.5-1-1.2s0.5-1.2,1-1.2c0.6,0,1,0.5,1,1.2S273.3,69.8,272.7,69.8z
			 M274.6,73.3c-0.6,0-1-0.5-1-1.2c0-0.6,0.5-1.2,1-1.2c0.6,0,1,0.5,1,1.2C275.6,72.7,275.2,73.3,274.6,73.3z M276.7,69.9
			c-0.6,0-1-0.5-1-1.2s0.5-1.2,1-1.2s1,0.5,1,1.2S277.3,69.9,276.7,69.9z M278.5,73.2c-0.6,0-1-0.5-1-1.2c0-0.6,0.5-1.2,1-1.2
			s1,0.5,1,1.2C279.5,72.7,279.1,73.2,278.5,73.2z M280.5,69.9c-0.6,0-1-0.5-1-1.2s0.5-1.2,1-1.2c0.6,0,1,0.5,1,1.2
			S281.1,69.9,280.5,69.9z"/>
		<path class="st11" d="M225.5,141.3c5.1-0.5,9-4.9,9-10.3c0-5.7-4.5-10.3-10-10.3c-0.1,0-0.2,0-0.3,0l6.3-1.2
			c0.5-0.1,0.9-0.1,1.4-0.1c5.9,0,10.6,4.9,10.6,11c0,5.9-4.5,10.7-10.2,11L225.5,141.3z"/>
		<path class="st1" d="M513.7,105.8H230.1c-0.5,0-1-0.4-1-1v-3.3c0-0.5,0.4-1,1-1h283.7c0.5,0,1,0.4,1,1v3.3
			C514.7,105.3,514.3,105.8,513.7,105.8z"/>
		<polygon class="st31" points="268.4,152 267.2,149.1 267.3,139.4 261.8,133.8 255.7,133.8 254.8,133.4 254.8,117.5 255.6,117 
			260.3,117 261,116.3 261,105.8 261.6,104.9 261.6,103.2 262.8,102.8 510.3,102.8 512.4,105.8 512.4,116.4 511.4,117.4 
			506.7,117.4 505.9,118.1 505.9,133.4 507.5,134 513.2,134 518.5,139.5 518.5,149.1 517.1,152 		"/>
		<path class="st13" d="M265.2,120.6c-1.1-0.9-2.4-1.4-3.9-1.4c-3.4,0-6.2,2.8-6.2,6.2c0,3.4,2.8,6.2,6.2,6.2c0.4,0,0.7,0,1.1-0.1
			l0.4,0c0.3,0,0.5-0.1,0.8-0.1c2,0,3.8,1.3,4.6,3.1l0.2,0.6c1.7,5.8,7,10.1,13.3,10.1c3.2,0,6.2-1.1,8.5-3l0.4-0.3
			c1.7-1,3.4-1.5,5.5-1.5c1.9,0,3.5,0.5,5.1,1.4l0.6,0.4c2.4,1.9,5.4,3.1,8.6,3.1c3.4,0,6.5-1.2,8.9-3.3l0.3-0.3
			c1.5-1,3-1.6,4.8-1.6c1.7,0,3.3,0.5,4.6,1.4l0.2,0.1c2.4,2,5.4,3.1,8.7,3.1c3.4,0,6.5-1.2,8.9-3.3l0.3-0.2c1.5-1,3.2-1.5,5.1-1.5
			c1.8,0,3.3,0.5,4.8,1.4l0.4,0.3c2.5,2.3,5.7,3.6,9.3,3.6c7.7,0,13.9-6.3,13.9-14.1s-6.2-14.1-13.9-14.1c-3,0-5.9,1-8.1,2.7
			l-0.3,0.2c-1.7,1-3.6,1.5-5.7,1.5c-2,0-3.7-0.4-5.3-1.3l-0.4-0.3c-2.4-2-5.5-3.2-8.8-3.2c-3,0-5.7,0.9-8,2.6l-0.4,0.3
			c-1.7,1-3.5,1.6-5.6,1.6c-2,0-3.7-0.4-5.3-1.3l-0.4-0.3c-2.2-1.5-4.9-2.4-7.7-2.4c-3,0-5.8,1-8.1,2.7l-0.3,0.2
			c-1.8,1-3.7,1.6-5.9,1.6c-2,0-3.8-0.4-5.5-1.3l-0.4-0.3c-2.3-1.8-5.3-3-8.5-3c-3.6,0-6.9,1.4-9.4,3.7l-0.3,0.2
			c-0.9,0.7-2.1,1-3.2,1c-1.2,0-2.4-0.4-3.3-1.1L265.2,120.6z"/>
		<path class="st11" d="M305.8,142.8c5.4,0,9.9-4.6,9.9-10.2c0-5.6-4.4-10.2-9.9-10.2c-2.2,0-4.3,0.8-6,2.1l1.4-1.6
			c2.1-2.3,5.1-3.7,8.3-3.7c6.3,0,11.5,5.3,11.5,11.9c0,6.6-5.1,11.9-11.5,11.9L305.8,142.8z"/>
		<ellipse class="st11" cx="337.8" cy="131.4" rx="11.2" ry="11.4"/>
		<ellipse class="st11" cx="280.6" cy="131.7" rx="11.2" ry="11.4"/>
	</g>
	<use xlink:href="#SVGID_13_"  style="overflow:visible;fill:none;stroke:#5E5F5F;stroke-width:0.75;stroke-miterlimit:10;"/>
</g>
<g>
	<path class="st10" d="M138.3,116.1H15.4c-0.7,0-1.3-0.6-1.3-1.3V75.5c0-0.7,0.6-1.3,1.3-1.3h122.9c0.7,0,1.3,0.6,1.3,1.3v39.3
		C139.5,115.5,139,116.1,138.3,116.1z"/>
	<path class="st11" d="M14.2,115.3H5.7c-1.8,0-3.2-1.4-3.2-3.2V78.3c0-1.8,1.4-3.2,3.2-3.2h8.5V115.3z"/>
	<path class="st1" d="M13.8,113.9H5.7c-1.1,0-1.9-0.9-1.9-1.9V78c0-1.1,0.9-1.9,1.9-1.9h8.1V113.9z"/>
	<path class="st11" d="M139.5,115.4h8.5c1.8,0,3.2-1.4,3.2-3.2V78.4c0-1.8-1.4-3.2-3.2-3.2h-8.5V115.4z"/>
	<ellipse class="st12" cx="132.9" cy="103.1" rx="3.5" ry="3.5"/>
	<path class="st11" d="M137.2,106.5v7.5H17V76.3h120.2V100l0,0.3c0.6,0.8,0.9,1.8,0.9,2.9c0,1.1-0.3,2-0.9,2.9L137.2,106.5z"/>
	<ellipse class="st13" cx="25.1" cy="84.2" rx="5.7" ry="5.8"/>
	<ellipse class="st13" cx="25" cy="105.1" rx="4.7" ry="4.8"/>
	<ellipse class="st13" cx="118.6" cy="82.8" rx="5.2" ry="5.2"/>
	<ellipse class="st1" cx="129.4" cy="84.5" rx="5.2" ry="5.2"/>
	<ellipse class="st11" cx="129.8" cy="84.1" rx="3.6" ry="3.6"/>
	<path class="st11" d="M61.1,70l28.5-0.1c0,0,2.5,0,4.1,1.8c1.6,1.8,2.2,2.5,3.2,2.6H53.1c0,0,3-0.6,4.1-2.7
		C57.2,71.5,57.9,70,61.1,70z"/>
	<path class="st11" d="M25.5,117.9c1.4,0.3,3.6,0.6,6,0.6c3.2,0,5.9-0.4,7.1-0.9l0.2-1.5h-14L25.5,117.9z"/>
	<path class="st11" d="M115.6,117.4c1.6,0.8,4,1,6.5,1c3.2,0,5.5-0.1,6.7-0.6l0.2-1.5l-13.7-0.1L115.6,117.4z"/>
	<circle class="st1" cx="29.1" cy="92.9" r="0.7"/>
	<circle class="st1" cx="32.9" cy="92.9" r="0.7"/>
	<circle class="st1" cx="36.6" cy="92.8" r="0.7"/>
	<circle class="st1" cx="98" cy="92.8" r="0.7"/>
	<circle class="st1" cx="110.7" cy="92.7" r="0.7"/>
	<circle class="st1" cx="118.6" cy="92.8" r="0.7"/>
	<circle class="st1" cx="126.5" cy="92.9" r="0.7"/>
	<circle class="st1" cx="131.9" cy="92.9" r="0.7"/>
	<path class="st13" d="M82.3,87c-0.7-0.3-1.6-0.5-2.4-0.5c-0.9,0-1.8,0.2-2.6,0.6l-0.1,0.1c-0.7,0.4-1.6,0.6-2.5,0.6
		c-1,0-1.9-0.3-2.6-0.7L71.8,87c-0.7-0.3-1.4-0.6-2.2-0.6c-0.9,0-1.7,0.2-2.4,0.6l-0.1,0.1c-0.8,0.6-1.8,0.9-2.8,0.9
		c-1,0-1.9-0.3-2.7-0.8L61.2,87c-0.7-0.3-1.4-0.5-2.3-0.5c-0.9,0-1.6,0.2-2.3,0.6l-0.2,0.1c-0.8,0.5-1.7,0.8-2.7,0.8
		c-1.1,0-2-0.3-2.9-0.9l-0.2-0.1c-0.6-0.3-1.3-0.5-2-0.5c-0.8,0-1.5,0.2-2.2,0.6l-0.5,0.3c-0.7,0.4-1.6,0.7-2.5,0.7
		c-2.8,0-5.2-2.3-5.2-5.2c0-2.9,2.3-5.2,5.2-5.2c1,0,2,0.3,2.8,0.8l0.4,0.2c0.6,0.3,1.2,0.5,2,0.5c0.8,0,1.5-0.2,2.1-0.6l0.2-0.1
		c0.8-0.6,1.8-0.9,2.9-0.9c1.2,0,2.2,0.4,3.1,1l0.2,0.1c0.6,0.3,1.3,0.5,2,0.5c0.8,0,1.5-0.2,2.1-0.6l0.2-0.1
		c0.8-0.6,1.8-0.9,2.9-0.9c1.1,0,2.1,0.3,2.9,0.9l0.1,0.1c0.6,0.3,1.3,0.5,2.1,0.5c0.8,0,1.6-0.2,2.2-0.6l0.2-0.1
		c0.8-0.6,1.8-0.9,2.9-0.9c1.2,0,2.2,0.4,3.1,1l0.2,0.1c0.6,0.3,1.3,0.5,2,0.5c0.8,0,1.5-0.2,2.2-0.6l0.2-0.1
		c0.8-0.6,1.8-0.9,2.9-0.9c2.8,0,5.2,2.3,5.2,5.2c0,2.9-2.3,5.2-5.2,5.2c-1,0-1.9-0.3-2.7-0.8L82.3,87z"/>
	<path class="st13" d="M118.2,109.1c-0.6-0.3-1.2-0.5-2-0.5c-0.8,0-1.4,0.2-2.1,0.6l-0.2,0.1c-0.9,0.7-1.9,1.1-3.1,1.1
		c-1.1,0-2.1-0.4-3-1l-0.2-0.1c-0.6-0.3-1.2-0.5-1.9-0.5c-0.8,0-1.4,0.2-2,0.6l-0.1,0.1c-0.8,0.6-1.9,1-3,1c-1.3,0-2.4-0.5-3.3-1.2
		l-0.1-0.1c-0.6-0.4-1.2-0.5-1.9-0.5c-0.8,0-1.4,0.2-2.1,0.6l-0.1,0.1c-0.9,0.7-2,1.1-3.2,1.1c-2.3,0-4.2-1.5-4.9-3.6l-0.1-0.2
		c-0.5-0.8-1.3-1.2-2.3-1.2l-0.1,0c-1.3,0-2.3-1-2.3-2.3s1-2.3,2.3-2.3c0.4,0,0.8,0.1,1.2,0.3l0.1,0.1c0.8,0.5,1.6,0.5,2.5,0.1
		l0.3-0.2c0.9-0.8,2-1.3,3.3-1.3c1.3,0,2.4,0.5,3.3,1.3l0.1,0.1c0.6,0.4,1.2,0.7,2,0.7c0.8,0,1.5-0.3,2.1-0.8l0.1-0.1
		c0.9-0.7,2-1.1,3.1-1.1c1.2,0,2.4,0.4,3.3,1.2l0.1,0.1c0.5,0.4,1.1,0.6,1.7,0.6c0.7,0,1.2-0.2,1.8-0.6l0.1-0.1
		c0.9-0.7,2-1.2,3.3-1.2c1.3,0,2.5,0.5,3.4,1.3l0.1,0.1c0.5,0.4,1.1,0.5,1.7,0.5c0.7,0,1.3-0.2,1.8-0.6l0.1-0.1
		c0.9-0.8,2.1-1.3,3.4-1.3c2.8,0,5.2,2.3,5.2,5.2s-2.3,5.2-5.2,5.2c-1.1,0-2.2-0.4-3.1-1L118.2,109.1z"/>
	<path class="st13" d="M111.3,91.2h-14c-0.3,0-0.5-0.2-0.5-0.5V79.3c0-0.3,0.2-0.5,0.5-0.5h14c0.3,0,0.5,0.2,0.5,0.5v11.4
		C111.9,91,111.6,91.2,111.3,91.2z"/>
	<polygon class="st11" points="106.7,80.7 106.7,82.5 110,82.5 110,90.4 98.5,90.4 98.5,82.5 101.8,82.5 101.8,80.7 102.5,80.7 
		102.5,79.3 106,79.3 106,80.7 	"/>
	<path class="st6" d="M78.9,82c0.1,0.3,0,0.6,0,0.9c0,2.3-1.8,4.2-4.1,4.2s-4.1-1.9-4.1-4.2l0.1-0.9c0,2.2,1.8,4,4,4
		c2.2,0,3.9-1.8,4-4c0,0,0-0.4,0-0.5L78.9,82z"/>
	<ellipse class="st11" cx="53.8" cy="82.9" rx="4.2" ry="4.2"/>
	<ellipse class="st11" cx="64.3" cy="82.9" rx="4.2" ry="4.2"/>
	<ellipse class="st1" cx="74.8" cy="82" rx="4" ry="4"/>
	<path class="st6" d="M74.9,79.4c-1.5,0-2.7,1.3-2.7,2.9c0,1.6,1.2,2.9,2.7,2.9c1.5,0,2.7-1.3,2.7-2.9
		C77.6,80.7,76.4,79.4,74.9,79.4z"/>
	<path class="st6" d="M89.3,82c0.1,0.3,0,0.6,0,0.9c0,2.3-1.8,4.2-4.1,4.2c-2.3,0-4.1-1.9-4.1-4.2l0.1-0.9c0,2.2,1.8,4,4,4
		c2.2,0,3.9-1.8,4-4c0,0,0-0.4,0-0.5L89.3,82z"/>
	<ellipse class="st1" cx="85.2" cy="82" rx="4" ry="4"/>
	<path class="st6" d="M122.8,82c0.1,0.3,0,0.6,0,0.9c0,2.3-1.8,4.2-4.1,4.2s-4.1-1.9-4.1-4.2l0.1-0.9c0,2.2,1.8,4,4,4
		c2.2,0,3.9-1.8,4-4c0,0,0-0.4,0-0.5L122.8,82z"/>
	<ellipse class="st1" cx="118.7" cy="82" rx="4" ry="4"/>
	<path class="st6" d="M85.3,79.4c-1.5,0-2.7,1.3-2.7,2.9c0,1.6,1.2,2.9,2.7,2.9c1.5,0,2.7-1.3,2.7-2.9C88,80.7,86.8,79.4,85.3,79.4z
		"/>
	<path class="st6" d="M125.6,104.5c0.1,0.3,0,0.6,0,0.9c0,2.3-1.8,4.2-4.1,4.2s-4.1-1.9-4.1-4.2l0.1-0.9c0,2.2,1.8,4,4,4
		c2.2,0,3.9-1.8,4-4c0,0,0-0.4,0-0.5L125.6,104.5z"/>
	<ellipse class="st1" cx="121.5" cy="104.5" rx="4" ry="4"/>
	<path class="st6" d="M121.5,101.9c-1.5,0-2.7,1.3-2.7,2.9c0,1.6,1.2,2.9,2.7,2.9c1.5,0,2.7-1.3,2.7-2.9
		C124.3,103.2,123.1,101.9,121.5,101.9z"/>
	<path class="st6" d="M104.8,104.5c0.1,0.3,0,0.6,0,0.9c0,2.3-1.8,4.2-4.1,4.2s-4.1-1.9-4.1-4.2l0.1-0.9c0,2.2,1.8,4,4,4
		c2.2,0,3.9-1.8,4-4c0,0,0-0.4,0-0.5L104.8,104.5z"/>
	<ellipse class="st1" cx="100.7" cy="104.5" rx="4" ry="4"/>
	<path class="st6" d="M100.8,101.9c-1.5,0-2.7,1.3-2.7,2.9c0,1.6,1.2,2.9,2.7,2.9c1.5,0,2.7-1.3,2.7-2.9
		C103.5,103.2,102.3,101.9,100.8,101.9z"/>
	<path class="st6" d="M47.4,82c0.1,0.3,0,0.6,0,0.9c0,2.3-1.8,4.2-4.1,4.2c-2.3,0-4.1-1.9-4.1-4.2l0.1-0.9c0,2.2,1.8,4,4,4
		c2.2,0,3.9-1.8,4-4c0,0,0-0.4,0-0.5L47.4,82z"/>
	<ellipse class="st1" cx="43.3" cy="82" rx="4" ry="4"/>
	<path class="st6" d="M43.4,79.4c-1.5,0-2.7,1.3-2.7,2.9c0,1.6,1.2,2.9,2.7,2.9c1.5,0,2.7-1.3,2.7-2.9
		C46.1,80.7,44.9,79.4,43.4,79.4z"/>
	<path class="st6" d="M29.2,83.2c0.1,0.3,0,0.6,0,0.9c0,2.3-1.8,4.2-4.1,4.2s-4.1-1.9-4.1-4.2l0.1-0.9c0,2.2,1.8,4,4,4
		c2.2,0,3.9-1.8,4-4c0,0,0-0.4,0-0.5L29.2,83.2z"/>
	<ellipse class="st1" cx="25.1" cy="83.2" rx="4" ry="4"/>
	<path class="st6" d="M25.2,80.5c-1.5,0-2.7,1.3-2.7,2.9c0,1.6,1.2,2.9,2.7,2.9c1.5,0,2.7-1.3,2.7-2.9
		C27.9,81.8,26.7,80.5,25.2,80.5z"/>
	<ellipse class="st6" cx="118.8" cy="82.2" rx="2.7" ry="2.9"/>
	<ellipse class="st11" cx="89.8" cy="105.5" rx="4.2" ry="4.2"/>
	<ellipse class="st11" cx="110.9" cy="105.5" rx="4.2" ry="4.2"/>
	<path class="st1" d="M129,95.9H24.8c-0.5,0-1-0.4-1-1l0,0c0-0.5,0.4-1,1-1H129c0.5,0,1,0.4,1,1l0,0C130,95.5,129.5,95.9,129,95.9z"
		/>
	<polygon class="st14" points="38.4,113.1 38,112 38,108.4 36,106.4 33.7,106.4 33.4,106.2 33.4,100.3 33.7,100.1 35.4,100.1 
		35.7,99.8 35.7,95.9 35.9,95.6 35.9,95 36.3,94.8 128.3,94.8 129.1,95.9 129.1,99.9 128.7,100.3 127,100.3 126.7,100.5 
		126.7,106.2 127.3,106.4 129.4,106.4 131.4,108.5 131.4,112 130.9,113.1 	"/>
	<polyline class="st14" points="85.2,113.2 84.8,112.1 84.8,108.5 82.8,106.4 80.5,106.4 80.2,106.2 80.2,100.3 80.5,100.1 
		82.2,100.1 82.5,99.9 82.5,96 82.7,95.6 82.7,95 83.1,94.9 	"/>
	<ellipse class="st1" cx="132.9" cy="103.1" rx="3.5" ry="3.5"/>
	<ellipse class="st11" cx="132.9" cy="103.1" rx="2.3" ry="2.3"/>
	<circle class="st6" cx="82.2" cy="103.3" r="1.4"/>
	<path class="st13" d="M37.2,101.5c-0.4-0.3-0.9-0.5-1.4-0.5c-1.3,0-2.3,1-2.3,2.3s1,2.3,2.3,2.3c0.1,0,0.3,0,0.4,0l0.1,0
		c0.1,0,0.2,0,0.3,0c0.7,0,1.4,0.5,1.7,1.1l0.1,0.2c0.6,2.2,2.6,3.8,4.9,3.8c1.2,0,2.3-0.4,3.2-1.1l0.1-0.1c0.6-0.4,1.3-0.6,2-0.6
		c0.7,0,1.3,0.2,1.9,0.5l0.2,0.1c0.9,0.7,2,1.1,3.2,1.1c1.3,0,2.4-0.5,3.3-1.2l0.1-0.1c0.5-0.4,1.1-0.6,1.8-0.6
		c0.6,0,1.2,0.2,1.7,0.5l0.1,0c0.9,0.7,2,1.2,3.2,1.2c1.3,0,2.4-0.5,3.3-1.2l0.1-0.1c0.6-0.4,1.2-0.6,1.9-0.6c0.7,0,1.2,0.2,1.8,0.5
		l0.1,0.1c0.9,0.8,2.1,1.4,3.5,1.4c2.8,0,5.2-2.3,5.2-5.2c0-2.9-2.3-5.2-5.2-5.2c-1.1,0-2.2,0.4-3,1l-0.1,0.1
		c-0.6,0.4-1.3,0.6-2.1,0.6c-0.7,0-1.4-0.1-2-0.5l-0.2-0.1c-0.9-0.7-2-1.2-3.3-1.2c-1.1,0-2.1,0.4-3,0.9l-0.2,0.1
		c-0.6,0.4-1.3,0.6-2.1,0.6c-0.7,0-1.4-0.2-2-0.5l-0.2-0.1c-0.8-0.6-1.8-0.9-2.9-0.9c-1.1,0-2.2,0.4-3,1l-0.1,0.1
		c-0.7,0.4-1.4,0.6-2.2,0.6c-0.8,0-1.4-0.1-2-0.5l-0.1-0.1c-0.9-0.7-2-1.1-3.2-1.1c-1.3,0-2.6,0.5-3.5,1.4l-0.1,0.1
		c-0.3,0.2-0.8,0.4-1.2,0.4C38.1,101.9,37.6,101.8,37.2,101.5L37.2,101.5z"/>
	<circle class="st6" cx="35" cy="103.3" r="1.4"/>
	<ellipse class="st11" cx="64.2" cy="105.5" rx="4.2" ry="4.2"/>
	<ellipse class="st11" cx="43" cy="105.6" rx="4.2" ry="4.2"/>
	<path class="st1" d="M140.1,76.1h8.1c1.1,0,1.9,0.9,1.9,1.9v34c0,1.1-0.9,1.9-1.9,1.9h-8.1V76.1z"/>
	<path class="st6" d="M79,104.6c0.1,0.3,0,0.6,0,0.9c0,2.3-1.8,4.2-4.1,4.2s-4.1-1.9-4.1-4.2l0.1-0.9c0,2.2,1.8,4,4,4
		c2.2,0,3.9-1.8,4-4c0,0,0-0.4,0-0.5L79,104.6z"/>
	<ellipse class="st1" cx="74.9" cy="104.6" rx="4" ry="4"/>
	<path class="st6" d="M75,102c-1.5,0-2.7,1.3-2.7,2.9c0,1.6,1.2,2.9,2.7,2.9c1.5,0,2.7-1.3,2.7-2.9C77.7,103.3,76.5,102,75,102z"/>
	<path class="st6" d="M58.1,104.7c0.1,0.3,0,0.6,0,0.9c0,2.3-1.8,4.2-4.1,4.2s-4.1-1.9-4.1-4.2l0.1-0.9c0,2.2,1.8,4,4,4
		c2.2,0,3.9-1.8,4-4c0,0,0-0.4,0-0.5L58.1,104.7z"/>
	<ellipse class="st1" cx="54" cy="104.7" rx="4" ry="4"/>
	<path class="st6" d="M54,102c-1.5,0-2.7,1.3-2.7,2.9c0,1.6,1.2,2.9,2.7,2.9c1.5,0,2.7-1.3,2.7-2.9C56.8,103.3,55.5,102,54,102z"/>
	<path class="st6" d="M29.1,104.3c0.1,0.3,0,0.6,0,0.9c0,2.3-1.8,4.2-4.1,4.2s-4.1-1.9-4.1-4.2l0.1-0.9c0,2.2,1.8,4,4,4
		c2.2,0,3.9-1.8,4-4c0,0,0-0.4,0-0.5L29.1,104.3z"/>
	<ellipse class="st1" cx="25" cy="104.3" rx="4" ry="4"/>
	<path class="st6" d="M25.1,101.7c-1.5,0-2.7,1.3-2.7,2.9c0,1.6,1.2,2.9,2.7,2.9c1.5,0,2.7-1.3,2.7-2.9
		C27.8,103,26.6,101.7,25.1,101.7z"/>
</g>
<polyline class="st24" points="169.1,33.2 73.8,33.2 34.7,86.6 "/>
<g>
	<defs>
		<circle id="SVGID_15_" cx="195.5" cy="32.9" r="30.6"/>
	</defs>
	<clipPath id="SVGID_8_">
		<use xlink:href="#SVGID_15_"  style="overflow:visible;"/>
	</clipPath>
	<g class="st64">
		<path class="st10" d="M457.9,97.7H148.8c-0.7,0-1.3-0.6-1.3-1.3V-5.1c0-0.7,0.6-1.3,1.3-1.3h309.1c0.7,0,1.3,0.6,1.3,1.3V96.5
			C459.2,97.2,458.6,97.7,457.9,97.7z"/>
		<path class="st11" d="M147.5,95.7h-25.8c-1.8,0-3.2-1.4-3.2-3.2V-1c0-1.8,1.4-3.2,3.2-3.2h25.8V95.7z"/>
		<path class="st1" d="M146.6,92.2h-23c-1.1,0-1.9-0.9-1.9-1.9V0.2c0-1.1,0.9-1.9,1.9-1.9h23V92.2z"/>
		<path class="st11" d="M453.2,74v18.6H154.5V-1.1h298.7v58.7l0,0.7c1.4,2,2.2,4.5,2.2,7.1c0,2.6-0.8,5.1-2.2,7.1L453.2,74z"/>
		<ellipse class="st13" cx="174.7" cy="18.4" rx="14.2" ry="14.5"/>
		<ellipse class="st13" cx="174.5" cy="70.5" rx="11.7" ry="11.9"/>
		<path class="st49" d="M175.7,102.2c3.5,0.8,8.9,1.4,15,1.4c7.9,0,14.7-0.9,17.6-2.2l0.6-3.7h-34.9L175.7,102.2z"/>
		<circle class="st21" cx="184.6" cy="40" r="1.8"/>
		<circle class="st21" cx="194.1" cy="40" r="1.8"/>
		<circle class="st21" cx="203.4" cy="39.9" r="1.8"/>
		<path class="st69" d="M183.5,34.9l7.3-0.1c0,0,0.8-1,1.4-1c0.6,0,1,0.9,1,0.9l1.4-0.1l0.2,1.1l0.9-5.1l0.4,5.7l0.8-1.5l1.7-0.1
			c0,0,0.6-1.3,1.3-1.3c0.7,0,1.3,1.4,1.3,1.4h2.4"/>
		<g>
			<path class="st1" d="M171.1,37.7l0.6-0.1c0,0.3,0.1,0.5,0.2,0.6c0.1,0.2,0.3,0.3,0.5,0.4c0.2,0.1,0.5,0.2,0.8,0.2
				c0.3,0,0.5,0,0.7-0.1c0.2-0.1,0.3-0.2,0.4-0.3c0.1-0.1,0.1-0.3,0.1-0.4c0-0.2,0-0.3-0.1-0.4c-0.1-0.1-0.2-0.2-0.5-0.3
				c-0.1-0.1-0.4-0.1-0.9-0.2s-0.8-0.2-1-0.3c-0.2-0.1-0.4-0.3-0.5-0.5c-0.1-0.2-0.2-0.4-0.2-0.6c0-0.3,0.1-0.5,0.2-0.7
				c0.1-0.2,0.4-0.4,0.6-0.5s0.6-0.2,0.9-0.2c0.4,0,0.7,0.1,1,0.2s0.5,0.3,0.7,0.5c0.2,0.2,0.2,0.5,0.3,0.8l-0.6,0
				c0-0.3-0.2-0.6-0.4-0.7s-0.5-0.2-0.9-0.2c-0.4,0-0.7,0.1-0.9,0.2s-0.3,0.3-0.3,0.5c0,0.2,0.1,0.3,0.2,0.5c0.1,0.1,0.5,0.2,1,0.4
				c0.5,0.1,0.9,0.2,1.1,0.3c0.3,0.1,0.5,0.3,0.7,0.5s0.2,0.5,0.2,0.7c0,0.3-0.1,0.5-0.2,0.8c-0.2,0.2-0.4,0.4-0.7,0.6
				s-0.6,0.2-1,0.2c-0.5,0-0.8-0.1-1.2-0.2s-0.6-0.3-0.7-0.6S171.1,38.1,171.1,37.7z"/>
		</g>
		<g>
			<path class="st1" d="M213.7,36.6v-5.1h0.7v2.1h2.7v-2.1h0.7v5.1h-0.7v-2.4h-2.7v2.4H213.7z"/>
			<path class="st1" d="M218.9,36.6v-5.1h1.8c0.4,0,0.7,0,0.9,0.1c0.3,0.1,0.5,0.2,0.7,0.4c0.3,0.2,0.5,0.5,0.6,0.9
				c0.1,0.4,0.2,0.8,0.2,1.2c0,0.4,0,0.7-0.1,1c-0.1,0.3-0.2,0.5-0.3,0.7s-0.3,0.4-0.5,0.5c-0.2,0.1-0.4,0.2-0.6,0.3
				c-0.2,0.1-0.5,0.1-0.8,0.1H218.9z M219.6,36h1.1c0.3,0,0.6,0,0.8-0.1c0.2-0.1,0.3-0.2,0.5-0.3c0.2-0.2,0.3-0.4,0.4-0.6
				c0.1-0.3,0.1-0.6,0.1-1c0-0.5-0.1-0.9-0.3-1.2c-0.2-0.3-0.4-0.5-0.6-0.6c-0.2-0.1-0.5-0.1-0.9-0.1h-1.1V36z"/>
			<path class="st1" d="M224.1,36.6v-5.1h0.7v5.1H224.1z"/>
		</g>
		<g>
			<path class="st1" d="M206,54.1V49h0.7v5.1H206z"/>
			<path class="st1" d="M211.5,52.3l0.7,0.2c-0.1,0.6-0.4,1-0.8,1.3c-0.4,0.3-0.8,0.4-1.3,0.4c-0.5,0-1-0.1-1.3-0.3s-0.6-0.5-0.8-1
				s-0.3-0.9-0.3-1.4c0-0.5,0.1-1,0.3-1.4c0.2-0.4,0.5-0.7,0.9-0.9c0.4-0.2,0.8-0.3,1.2-0.3c0.5,0,0.9,0.1,1.3,0.4
				c0.3,0.3,0.6,0.6,0.7,1.1l-0.7,0.2c-0.1-0.4-0.3-0.6-0.5-0.8c-0.2-0.2-0.5-0.3-0.8-0.3c-0.4,0-0.7,0.1-1,0.3s-0.4,0.4-0.6,0.8
				c-0.1,0.3-0.2,0.6-0.2,1c0,0.4,0.1,0.8,0.2,1.1c0.1,0.3,0.3,0.6,0.6,0.7c0.3,0.2,0.6,0.2,0.9,0.2c0.4,0,0.7-0.1,1-0.3
				C211.2,53.1,211.4,52.8,211.5,52.3z"/>
			<path class="st1" d="M212.7,52.5l0.6-0.1c0,0.3,0.1,0.5,0.2,0.6c0.1,0.2,0.3,0.3,0.5,0.4c0.2,0.1,0.5,0.2,0.8,0.2
				c0.3,0,0.5,0,0.7-0.1c0.2-0.1,0.3-0.2,0.4-0.3c0.1-0.1,0.1-0.3,0.1-0.4c0-0.2,0-0.3-0.1-0.4c-0.1-0.1-0.2-0.2-0.5-0.3
				c-0.1-0.1-0.4-0.1-0.9-0.2s-0.8-0.2-1-0.3c-0.2-0.1-0.4-0.3-0.5-0.5c-0.1-0.2-0.2-0.4-0.2-0.6c0-0.3,0.1-0.5,0.2-0.7
				c0.1-0.2,0.4-0.4,0.6-0.5s0.6-0.2,0.9-0.2c0.4,0,0.7,0.1,1,0.2s0.5,0.3,0.7,0.5c0.2,0.2,0.2,0.5,0.3,0.8l-0.6,0
				c0-0.3-0.2-0.6-0.4-0.7s-0.5-0.2-0.9-0.2c-0.4,0-0.7,0.1-0.9,0.2s-0.3,0.3-0.3,0.5c0,0.2,0.1,0.3,0.2,0.5c0.1,0.1,0.5,0.2,1,0.4
				c0.5,0.1,0.9,0.2,1.1,0.3c0.3,0.1,0.5,0.3,0.7,0.5s0.2,0.5,0.2,0.7c0,0.3-0.1,0.5-0.2,0.8c-0.2,0.2-0.4,0.4-0.7,0.6
				s-0.6,0.2-1,0.2c-0.5,0-0.8-0.1-1.2-0.2s-0.6-0.3-0.7-0.6S212.7,52.8,212.7,52.5z"/>
			<path class="st1" d="M218.5,51.8V51h-1.3v-0.3l1.4-1.9h0.3v1.9h0.4V51h-0.4v0.7H218.5z M218.5,50.7v-1.3l-0.9,1.3H218.5z"/>
			<path class="st1" d="M221.6,51.4v0.4h-2c0-0.1,0-0.2,0-0.3c0-0.1,0.1-0.3,0.2-0.4s0.3-0.3,0.5-0.5c0.3-0.3,0.5-0.5,0.7-0.6
				c0.1-0.2,0.2-0.3,0.2-0.4c0-0.1-0.1-0.3-0.2-0.4s-0.2-0.1-0.4-0.1c-0.2,0-0.3,0.1-0.4,0.2c-0.1,0.1-0.2,0.3-0.2,0.4l-0.4,0
				c0-0.3,0.1-0.5,0.3-0.6c0.2-0.1,0.4-0.2,0.7-0.2c0.3,0,0.5,0.1,0.7,0.2c0.2,0.2,0.2,0.4,0.2,0.6c0,0.1,0,0.2-0.1,0.4
				s-0.1,0.2-0.2,0.4c-0.1,0.1-0.3,0.3-0.6,0.5c-0.2,0.2-0.4,0.3-0.4,0.4c-0.1,0.1-0.1,0.1-0.2,0.2H221.6z"/>
		</g>
		<g>
			<path class="st1" d="M322,54.1V49h0.7v5.1H322z"/>
			<path class="st1" d="M327.5,52.3l0.7,0.2c-0.1,0.6-0.4,1-0.8,1.3c-0.4,0.3-0.8,0.4-1.3,0.4c-0.5,0-1-0.1-1.3-0.3s-0.6-0.5-0.8-1
				s-0.3-0.9-0.3-1.4c0-0.5,0.1-1,0.3-1.4c0.2-0.4,0.5-0.7,0.9-0.9c0.4-0.2,0.8-0.3,1.2-0.3c0.5,0,0.9,0.1,1.3,0.4
				c0.3,0.3,0.6,0.6,0.7,1.1l-0.7,0.2c-0.1-0.4-0.3-0.6-0.5-0.8c-0.2-0.2-0.5-0.3-0.8-0.3c-0.4,0-0.7,0.1-1,0.3s-0.4,0.4-0.6,0.8
				c-0.1,0.3-0.2,0.6-0.2,1c0,0.4,0.1,0.8,0.2,1.1c0.1,0.3,0.3,0.6,0.6,0.7c0.3,0.2,0.6,0.2,0.9,0.2c0.4,0,0.7-0.1,1-0.3
				C327.2,53.1,327.4,52.8,327.5,52.3z"/>
			<path class="st1" d="M328.8,52.5l0.6-0.1c0,0.3,0.1,0.5,0.2,0.6c0.1,0.2,0.3,0.3,0.5,0.4c0.2,0.1,0.5,0.2,0.8,0.2
				c0.3,0,0.5,0,0.7-0.1c0.2-0.1,0.3-0.2,0.4-0.3c0.1-0.1,0.1-0.3,0.1-0.4c0-0.2,0-0.3-0.1-0.4c-0.1-0.1-0.2-0.2-0.5-0.3
				c-0.1-0.1-0.4-0.1-0.9-0.2s-0.8-0.2-1-0.3c-0.2-0.1-0.4-0.3-0.5-0.5c-0.1-0.2-0.2-0.4-0.2-0.6c0-0.3,0.1-0.5,0.2-0.7
				c0.1-0.2,0.4-0.4,0.6-0.5s0.6-0.2,0.9-0.2c0.4,0,0.7,0.1,1,0.2s0.5,0.3,0.7,0.5c0.2,0.2,0.2,0.5,0.3,0.8l-0.6,0
				c0-0.3-0.2-0.6-0.4-0.7s-0.5-0.2-0.9-0.2c-0.4,0-0.7,0.1-0.9,0.2s-0.3,0.3-0.3,0.5c0,0.2,0.1,0.3,0.2,0.5c0.1,0.1,0.5,0.2,1,0.4
				c0.5,0.1,0.9,0.2,1.1,0.3c0.3,0.1,0.5,0.3,0.7,0.5s0.2,0.5,0.2,0.7c0,0.3-0.1,0.5-0.2,0.8c-0.2,0.2-0.4,0.4-0.7,0.6
				s-0.6,0.2-1,0.2c-0.5,0-0.8-0.1-1.2-0.2s-0.6-0.3-0.7-0.6S328.8,52.8,328.8,52.5z"/>
			<path class="st1" d="M334.6,51.8V51h-1.3v-0.3l1.4-1.9h0.3v1.9h0.4V51h-0.4v0.7H334.6z M334.6,50.7v-1.3l-0.9,1.3H334.6z"/>
			<path class="st1" d="M337.6,51.4v0.4h-2c0-0.1,0-0.2,0-0.3c0-0.1,0.1-0.3,0.2-0.4s0.3-0.3,0.5-0.5c0.3-0.3,0.5-0.5,0.7-0.6
				c0.1-0.2,0.2-0.3,0.2-0.4c0-0.1-0.1-0.3-0.2-0.4s-0.2-0.1-0.4-0.1c-0.2,0-0.3,0.1-0.4,0.2c-0.1,0.1-0.2,0.3-0.2,0.4l-0.4,0
				c0-0.3,0.1-0.5,0.3-0.6c0.2-0.1,0.4-0.2,0.7-0.2c0.3,0,0.5,0.1,0.7,0.2c0.2,0.2,0.2,0.4,0.2,0.6c0,0.1,0,0.2-0.1,0.4
				s-0.1,0.2-0.2,0.4c-0.1,0.1-0.3,0.3-0.6,0.5c-0.2,0.2-0.4,0.3-0.4,0.4c-0.1,0.1-0.1,0.1-0.2,0.2H337.6z"/>
		</g>
		<g>
			<path class="st1" d="M294,34.9l0.7,0.2c-0.1,0.6-0.4,1-0.8,1.3c-0.4,0.3-0.8,0.4-1.3,0.4c-0.5,0-1-0.1-1.3-0.3s-0.6-0.5-0.8-1
				s-0.3-0.9-0.3-1.4c0-0.5,0.1-1,0.3-1.4c0.2-0.4,0.5-0.7,0.9-0.9c0.4-0.2,0.8-0.3,1.2-0.3c0.5,0,0.9,0.1,1.3,0.4
				c0.3,0.3,0.6,0.6,0.7,1.1l-0.7,0.2c-0.1-0.4-0.3-0.6-0.5-0.8c-0.2-0.2-0.5-0.3-0.8-0.3c-0.4,0-0.7,0.1-1,0.3s-0.4,0.4-0.6,0.8
				c-0.1,0.3-0.2,0.6-0.2,1c0,0.4,0.1,0.8,0.2,1.1c0.1,0.3,0.3,0.6,0.6,0.7c0.3,0.2,0.6,0.2,0.9,0.2c0.4,0,0.7-0.1,1-0.3
				C293.7,35.6,293.9,35.3,294,34.9z"/>
			<path class="st1" d="M294.9,36.6l2-5.1h0.7l2.1,5.1h-0.8l-0.6-1.5h-2.1l-0.6,1.5H294.9z M296.4,34.5h1.7l-0.5-1.4
				c-0.2-0.4-0.3-0.8-0.4-1.1c-0.1,0.3-0.2,0.7-0.3,1L296.4,34.5z"/>
			<path class="st1" d="M300.2,36.6v-5.1h0.7l2.7,4v-4h0.6v5.1h-0.7l-2.7-4v4H300.2z"/>
			<path class="st1" d="M306.4,36.9H306v-2.3c-0.1,0.1-0.2,0.2-0.3,0.3c-0.1,0.1-0.3,0.1-0.4,0.2v-0.4c0.2-0.1,0.4-0.2,0.5-0.3
				c0.2-0.1,0.3-0.3,0.3-0.4h0.2V36.9z"/>
		</g>
		<g>
			<path class="st1" d="M165.4,55v-4.5h-1.7v-0.6h4v0.6h-1.7V55H165.4z"/>
			<path class="st1" d="M167.4,55l2-5.1h0.7l2.1,5.1h-0.8l-0.6-1.5h-2.1l-0.6,1.5H167.4z M168.8,52.9h1.7l-0.5-1.4
				c-0.2-0.4-0.3-0.8-0.4-1.1c-0.1,0.3-0.2,0.7-0.3,1L168.8,52.9z"/>
			<path class="st1" d="M176.3,53.2l0.7,0.2c-0.1,0.6-0.4,1-0.8,1.3c-0.4,0.3-0.8,0.4-1.3,0.4c-0.5,0-1-0.1-1.3-0.3s-0.6-0.5-0.8-1
				s-0.3-0.9-0.3-1.4c0-0.5,0.1-1,0.3-1.4c0.2-0.4,0.5-0.7,0.9-0.9c0.4-0.2,0.8-0.3,1.2-0.3c0.5,0,0.9,0.1,1.3,0.4
				c0.3,0.3,0.6,0.6,0.7,1.1l-0.7,0.2c-0.1-0.4-0.3-0.6-0.5-0.8c-0.2-0.2-0.5-0.3-0.8-0.3c-0.4,0-0.7,0.1-1,0.3s-0.4,0.4-0.6,0.8
				c-0.1,0.3-0.2,0.6-0.2,1c0,0.4,0.1,0.8,0.2,1.1c0.1,0.3,0.3,0.6,0.6,0.7c0.3,0.2,0.6,0.2,0.9,0.2c0.4,0,0.7-0.1,1-0.3
				C176.1,54,176.2,53.6,176.3,53.2z"/>
			<path class="st1" d="M179.9,55h-0.6v-4c-0.2,0.1-0.3,0.3-0.6,0.4c-0.2,0.1-0.5,0.3-0.7,0.3v-0.6c0.4-0.2,0.7-0.4,0.9-0.6
				s0.4-0.5,0.6-0.7h0.4V55z"/>
			<path class="st1" d="M183.1,54.7V55h-1.7c0-0.1,0-0.2,0-0.2c0-0.1,0.1-0.2,0.2-0.3c0.1-0.1,0.2-0.2,0.4-0.4
				c0.3-0.2,0.5-0.4,0.6-0.6c0.1-0.1,0.2-0.3,0.2-0.4c0-0.1,0-0.2-0.1-0.3c-0.1-0.1-0.2-0.1-0.4-0.1c-0.2,0-0.3,0-0.4,0.1
				s-0.1,0.2-0.1,0.4l-0.3,0c0-0.2,0.1-0.4,0.3-0.6c0.1-0.1,0.3-0.2,0.6-0.2c0.3,0,0.5,0.1,0.6,0.2c0.1,0.1,0.2,0.3,0.2,0.5
				c0,0.1,0,0.2-0.1,0.3s-0.1,0.2-0.2,0.3s-0.3,0.3-0.5,0.5c-0.2,0.2-0.3,0.3-0.4,0.3s-0.1,0.1-0.1,0.2H183.1z"/>
		</g>
		<g>
			<path class="st1" d="M254.1,53.5h-0.6v-4c-0.2,0.1-0.3,0.3-0.6,0.4c-0.2,0.1-0.5,0.3-0.7,0.3v-0.6c0.4-0.2,0.7-0.4,0.9-0.6
				s0.4-0.5,0.6-0.7h0.4V53.5z"/>
			<path class="st1" d="M257.3,53.2v0.3h-1.7c0-0.1,0-0.2,0-0.2c0-0.1,0.1-0.2,0.2-0.3c0.1-0.1,0.2-0.2,0.4-0.4
				c0.3-0.2,0.5-0.4,0.6-0.6c0.1-0.1,0.2-0.3,0.2-0.4c0-0.1,0-0.2-0.1-0.3c-0.1-0.1-0.2-0.1-0.4-0.1c-0.2,0-0.3,0-0.4,0.1
				s-0.1,0.2-0.1,0.4l-0.3,0c0-0.2,0.1-0.4,0.3-0.6c0.1-0.1,0.3-0.2,0.6-0.2c0.3,0,0.5,0.1,0.6,0.2c0.1,0.1,0.2,0.3,0.2,0.5
				c0,0.1,0,0.2-0.1,0.3s-0.1,0.2-0.2,0.3s-0.3,0.3-0.5,0.5c-0.2,0.2-0.3,0.3-0.4,0.3s-0.1,0.1-0.1,0.2H257.3z"/>
			<path class="st1" d="M257.6,52.8l0.3,0c0,0.2,0.1,0.3,0.2,0.4c0.1,0.1,0.2,0.1,0.3,0.1c0.2,0,0.3-0.1,0.4-0.2
				c0.1-0.1,0.2-0.2,0.2-0.4c0-0.1,0-0.3-0.1-0.4s-0.2-0.1-0.4-0.1c-0.1,0-0.1,0-0.2,0l0-0.3c0,0,0,0,0.1,0c0.1,0,0.3,0,0.4-0.1
				c0.1-0.1,0.2-0.2,0.2-0.3c0-0.1,0-0.2-0.1-0.3c-0.1-0.1-0.2-0.1-0.3-0.1c-0.1,0-0.2,0-0.3,0.1c-0.1,0.1-0.1,0.2-0.2,0.4l-0.3-0.1
				c0-0.2,0.1-0.4,0.3-0.5c0.1-0.1,0.3-0.2,0.5-0.2c0.1,0,0.3,0,0.4,0.1s0.2,0.1,0.3,0.3c0.1,0.1,0.1,0.2,0.1,0.3
				c0,0.1,0,0.2-0.1,0.3c-0.1,0.1-0.2,0.2-0.3,0.2c0.2,0,0.3,0.1,0.4,0.2c0.1,0.1,0.1,0.3,0.1,0.4c0,0.2-0.1,0.4-0.2,0.6
				c-0.2,0.2-0.4,0.2-0.6,0.2c-0.2,0-0.4-0.1-0.6-0.2C257.7,53.2,257.7,53,257.6,52.8z"/>
		</g>
		<g>
			<path class="st1" d="M305.3,53.3v-1.2h-2.2v-0.6l2.3-3.3h0.5v3.3h0.7v0.6h-0.7v1.2H305.3z M305.3,51.5v-2.3l-1.6,2.3H305.3z"/>
			<path class="st1" d="M307.1,52.6l0.3,0c0,0.2,0.1,0.3,0.2,0.4c0.1,0.1,0.2,0.1,0.3,0.1c0.2,0,0.3-0.1,0.4-0.2s0.2-0.3,0.2-0.5
				c0-0.2-0.1-0.3-0.2-0.4c-0.1-0.1-0.2-0.2-0.4-0.2c-0.1,0-0.2,0-0.3,0.1c-0.1,0-0.1,0.1-0.2,0.2l-0.3,0l0.3-1.3h1.3V51h-1
				l-0.1,0.7c0.2-0.1,0.3-0.2,0.5-0.2c0.2,0,0.4,0.1,0.6,0.2c0.2,0.2,0.2,0.4,0.2,0.6c0,0.2-0.1,0.4-0.2,0.6
				c-0.2,0.2-0.4,0.3-0.7,0.3c-0.2,0-0.4-0.1-0.6-0.2C307.2,53,307.1,52.8,307.1,52.6z"/>
			<path class="st1" d="M310.8,51.3l-0.3,0c0-0.1-0.1-0.2-0.1-0.3c-0.1-0.1-0.2-0.1-0.3-0.1c-0.1,0-0.2,0-0.3,0.1
				c-0.1,0.1-0.2,0.2-0.2,0.3s-0.1,0.3-0.1,0.6c0.1-0.1,0.2-0.2,0.3-0.3c0.1-0.1,0.2-0.1,0.4-0.1c0.2,0,0.4,0.1,0.5,0.2
				c0.2,0.2,0.2,0.4,0.2,0.6c0,0.2,0,0.3-0.1,0.5c-0.1,0.1-0.2,0.2-0.3,0.3s-0.3,0.1-0.4,0.1c-0.3,0-0.5-0.1-0.7-0.3
				c-0.2-0.2-0.3-0.5-0.3-1c0-0.5,0.1-0.9,0.3-1.1c0.2-0.2,0.4-0.3,0.7-0.3c0.2,0,0.4,0.1,0.5,0.2C310.7,50.9,310.8,51.1,310.8,51.3
				z M309.5,52.4c0,0.1,0,0.2,0.1,0.3s0.1,0.2,0.2,0.2c0.1,0.1,0.2,0.1,0.3,0.1c0.1,0,0.3-0.1,0.4-0.2s0.1-0.3,0.1-0.4
				c0-0.2,0-0.3-0.1-0.4s-0.2-0.2-0.4-0.2c-0.1,0-0.3,0.1-0.4,0.2S309.5,52.3,309.5,52.4z"/>
		</g>
		<g>
			<path class="st1" d="M320.4,34.9L321,35c-0.1,0.6-0.4,1-0.8,1.3c-0.4,0.3-0.8,0.4-1.3,0.4c-0.5,0-1-0.1-1.3-0.3s-0.6-0.5-0.8-1
				s-0.3-0.9-0.3-1.4c0-0.5,0.1-1,0.3-1.4c0.2-0.4,0.5-0.7,0.9-0.9c0.4-0.2,0.8-0.3,1.2-0.3c0.5,0,0.9,0.1,1.3,0.4
				c0.3,0.3,0.6,0.6,0.7,1.1l-0.7,0.2c-0.1-0.4-0.3-0.6-0.5-0.8c-0.2-0.2-0.5-0.3-0.8-0.3c-0.4,0-0.7,0.1-1,0.3s-0.4,0.4-0.6,0.8
				c-0.1,0.3-0.2,0.6-0.2,1c0,0.4,0.1,0.8,0.2,1.1c0.1,0.3,0.3,0.6,0.6,0.7c0.3,0.2,0.6,0.2,0.9,0.2c0.4,0,0.7-0.1,1-0.3
				C320.1,35.6,320.3,35.3,320.4,34.9z"/>
			<path class="st1" d="M321.3,36.6l2-5.1h0.7l2.1,5.1h-0.8l-0.6-1.5h-2.1l-0.6,1.5H321.3z M322.8,34.5h1.7l-0.5-1.4
				c-0.2-0.4-0.3-0.8-0.4-1.1c-0.1,0.3-0.2,0.7-0.3,1L322.8,34.5z"/>
			<path class="st1" d="M326.6,36.6v-5.1h0.7l2.7,4v-4h0.6v5.1H330l-2.7-4v4H326.6z"/>
			<path class="st1" d="M333.3,36.6v0.4h-2c0-0.1,0-0.2,0-0.3c0-0.1,0.1-0.3,0.2-0.4s0.3-0.3,0.5-0.5c0.3-0.3,0.5-0.5,0.7-0.6
				c0.1-0.2,0.2-0.3,0.2-0.4c0-0.1-0.1-0.3-0.2-0.4s-0.2-0.1-0.4-0.1c-0.2,0-0.3,0.1-0.4,0.2c-0.1,0.1-0.2,0.3-0.2,0.4l-0.4,0
				c0-0.3,0.1-0.5,0.3-0.6c0.2-0.1,0.4-0.2,0.7-0.2c0.3,0,0.5,0.1,0.7,0.2c0.2,0.2,0.2,0.4,0.2,0.6c0,0.1,0,0.2-0.1,0.4
				s-0.1,0.2-0.2,0.4c-0.1,0.1-0.3,0.3-0.6,0.5c-0.2,0.2-0.4,0.3-0.4,0.4c-0.1,0.1-0.1,0.1-0.2,0.2H333.3z"/>
		</g>
		<path class="st13" d="M316.8,25.5c-1.8-0.8-3.9-1.3-6.1-1.3c-2.3,0-4.5,0.5-6.4,1.5l-0.3,0.2c-1.8,1-3.9,1.6-6.1,1.6
			c-2.4,0-4.6-0.7-6.6-1.8l-0.4-0.2c-1.7-0.8-3.5-1.4-5.5-1.4c-2.2,0-4.2,0.5-6,1.5l-0.3,0.2c-2,1.4-4.5,2.2-7.1,2.2
			c-2.6,0-4.8-0.7-6.8-2l-0.7-0.3c-1.7-0.8-3.6-1.3-5.6-1.3c-2.2,0-4,0.5-5.7,1.4l-0.5,0.3c-2,1.2-4.3,2-6.8,2
			c-2.6,0-5.1-0.8-7.1-2.2l-0.5-0.3c-1.5-0.8-3.2-1.3-5-1.3c-2,0-3.8,0.5-5.4,1.5l-1.3,0.8c-1.9,1.1-4,1.7-6.3,1.7
			c-7.1,0-12.8-5.8-12.8-13s5.7-13,12.8-13c2.5,0,4.9,0.7,6.8,2l1,0.6c1.5,0.8,3.1,1.3,4.9,1.3c2,0,3.7-0.6,5.3-1.5l0.5-0.3
			c2-1.4,4.5-2.2,7.2-2.2c2.9,0,5.5,1,7.6,2.6l0.4,0.3c1.5,0.8,3.1,1.2,4.9,1.2c2,0,3.7-0.5,5.3-1.5l0.5-0.3
			c2.1-1.4,4.6-2.3,7.3-2.3c2.7,0,5.2,0.8,7.3,2.3l0.3,0.2c1.5,0.8,3.3,1.3,5.1,1.3c2,0,3.9-0.5,5.5-1.5l0.4-0.3
			c2.1-1.5,4.6-2.3,7.3-2.3c2.9,0,5.5,1,7.7,2.6l0.4,0.3c1.5,0.8,3.2,1.3,5,1.3c2,0,3.8-0.5,5.4-1.5l0.4-0.3c2-1.4,4.5-2.2,7.2-2.2
			c7.1,0,12.8,5.8,12.8,13s-5.7,13-12.8,13c-2.5,0-4.8-0.7-6.7-1.9L316.8,25.5z"/>
		<path class="st13" d="M406.1,80.5c-1.5-0.8-3-1.2-4.9-1.2c-2,0-3.6,0.5-5.2,1.4l-0.5,0.3c-2.1,1.7-4.8,2.6-7.7,2.6
			c-2.7,0-5.3-0.9-7.4-2.4l-0.4-0.3c-1.4-0.8-3-1.3-4.7-1.3c-1.9,0-3.4,0.5-5,1.4l-0.3,0.2c-2.1,1.6-4.7,2.5-7.5,2.5
			c-3.2,0-6.1-1.2-8.3-3.1l-0.4-0.2c-1.5-0.9-3-1.4-4.8-1.4c-1.9,0-3.6,0.5-5.1,1.5l-0.3,0.2c-2.2,1.7-4.9,2.7-7.9,2.7
			c-5.6,0-10.4-3.7-12.1-8.8l-0.2-0.4c-1.2-1.9-3.2-3.1-5.6-3.1l-0.4,0c-3.2,0-5.7-2.6-5.7-5.7c0-3.2,2.6-5.7,5.7-5.7
			c1.1,0,2.1,0.3,2.9,0.8l0.4,0.2c2,1.3,4.1,1.2,6.1,0.3l0.6-0.4c2.3-2,5.1-3.2,8.3-3.2c3.2,0,6.1,1.2,8.3,3.1l0.3,0.2
			c1.5,1.1,3.1,1.6,4.9,1.6c1.9,0,3.7-0.6,5.3-1.9l0.2-0.2c2.2-1.7,4.9-2.7,7.8-2.7c3.1,0,5.9,1.1,8.1,3l0.2,0.1
			c1.2,0.9,2.7,1.4,4.2,1.4c1.6,0,3.1-0.6,4.4-1.6l0.2-0.2c2.2-1.8,5-2.9,8.1-2.9c3.3,0,6.2,1.2,8.5,3.3l0.3,0.2
			c1.3,0.9,2.7,1.3,4.2,1.3c1.7,0,3.2-0.6,4.6-1.6l0.4-0.3c2.3-2,5.2-3.2,8.4-3.2c7.1,0,12.8,5.8,12.8,13s-5.7,13-12.8,13
			c-2.8,0-5.5-0.9-7.6-2.5L406.1,80.5z"/>
		<ellipse class="st12" cx="164.9" cy="16.7" rx="9.7" ry="9.9"/>
		<path class="st12" d="M164.3,26.5c0.2,0,0.4,0,0.6,0c5.4,0,9.7-4.4,9.7-9.9s-4.3-9.9-9.7-9.9"/>
		<path class="st11" d="M172.4,7.8c5.4,0.3,9.6,4.9,9.6,10.4c0,5.8-4.6,10.5-10.3,10.5l-7.5-2.2c0.2,0,0.4,0,0.6,0
			c5.4,0,9.7-4.4,9.7-9.9c0-5.2-4-9.5-9.1-9.8L172.4,7.8z"/>
		<path class="st11" d="M217,3.8c4.2,1.1,7.3,4.9,7.3,9.3c0,5.3-4.5,9.6-9.9,9.6c-1.6,0-3-0.3-4.3-1l4.9,3.6
			c1.2,0.4,2.4,0.6,3.7,0.6c6.2,0,11.2-4.8,11.2-10.8c0-5.2-3.8-9.6-8.9-10.6L217,3.8z"/>
		<path class="st11" d="M308.3,13.2c0.1,0.7,0.2,1.4,0.2,2.1c0,5.7-4.6,10.4-10.2,10.4c-5.6,0-10.2-4.7-10.2-10.4l0.2-2.2
			c0,5.6,4.4,10.1,9.8,10.1c5.4,0,9.7-4.4,9.8-9.9c0-0.1,0-1.1,0-1.2L308.3,13.2z"/>
		<path class="st11" d="M318.6,6.6c-1.6,1.8-2.5,4.1-2.5,6.7c0,5.5,4.3,9.9,9.7,9.9c2.8,0,5.4-1.3,7.1-3.3l-2.3,3
			c-1.8,1.7-4.2,2.8-6.9,2.8c-5.6,0-10.1-4.7-10.1-10.4c0-2,0.5-3.8,1.5-5.4L318.6,6.6z"/>
		<ellipse class="st11" cx="246" cy="15.1" rx="10.3" ry="10.5"/>
		<ellipse class="st11" cx="272.2" cy="15.1" rx="10.3" ry="10.5"/>
		<ellipse class="st16" cx="164.9" cy="16.7" rx="9.7" ry="9.9"/>
		<ellipse class="st16" cx="214.4" cy="13.1" rx="9.9" ry="9.6"/>
		<ellipse class="st16" cx="298.2" cy="13.1" rx="9.8" ry="10.1"/>
		<ellipse class="st16" cx="325.7" cy="13.3" rx="9.7" ry="9.9"/>
		<path class="st6" d="M166.7,10.1c-3.8,0-6.8,3.2-6.8,7.1c0,3.9,3,7.1,6.8,7.1c3.8,0,6.8-3.2,6.8-7.1
			C173.5,13.3,170.5,10.1,166.7,10.1z M168.5,13.1c0.5,0,0.9,0.5,0.9,1.1c0,0.6-0.4,1.1-0.9,1.1c-0.5,0-0.9-0.5-0.9-1.1
			C167.6,13.5,168,13.1,168.5,13.1z M164.8,13.1c0.5,0,0.9,0.5,0.9,1.1c0,0.6-0.4,1.1-0.9,1.1c-0.5,0-0.9-0.5-0.9-1.1
			C163.9,13.5,164.3,13.1,164.8,13.1z M163,18.2c-0.5,0-0.9-0.5-0.9-1.1c0-0.6,0.4-1.1,0.9-1.1s0.9,0.5,0.9,1.1
			C163.9,17.7,163.5,18.2,163,18.2z M164.7,21.4c-0.5,0-0.9-0.5-0.9-1.1s0.4-1.1,0.9-1.1c0.5,0,0.9,0.5,0.9,1.1
			S165.3,21.4,164.7,21.4z M166.7,18.3c-0.5,0-0.9-0.5-0.9-1.1c0-0.6,0.4-1.1,0.9-1.1s0.9,0.5,0.9,1.1
			C167.6,17.8,167.2,18.3,166.7,18.3z M168.3,21.4c-0.5,0-0.9-0.5-0.9-1.1s0.4-1.1,0.9-1.1c0.5,0,0.9,0.5,0.9,1.1
			S168.9,21.4,168.3,21.4z M170.2,18.3c-0.5,0-0.9-0.5-0.9-1.1c0-0.6,0.4-1.1,0.9-1.1c0.5,0,0.9,0.5,0.9,1.1
			C171.2,17.8,170.7,18.3,170.2,18.3z"/>
		<path class="st6" d="M215.5,6.4c-3.8,0-6.8,3.2-6.8,7.1c0,3.9,3,7.1,6.8,7.1c3.8,0,6.8-3.2,6.8-7.1C222.3,9.5,219.3,6.4,215.5,6.4
			z M217.3,9.3c0.5,0,0.9,0.5,0.9,1.1c0,0.6-0.4,1.1-0.9,1.1s-0.9-0.5-0.9-1.1C216.4,9.8,216.8,9.3,217.3,9.3z M213.6,9.3
			c0.5,0,0.9,0.5,0.9,1.1c0,0.6-0.4,1.1-0.9,1.1s-0.9-0.5-0.9-1.1C212.7,9.8,213.1,9.3,213.6,9.3z M211.8,14.4
			c-0.5,0-0.9-0.5-0.9-1.1c0-0.6,0.4-1.1,0.9-1.1s0.9,0.5,0.9,1.1C212.7,13.9,212.3,14.4,211.8,14.4z M213.6,17.6
			c-0.5,0-0.9-0.5-0.9-1.1s0.4-1.1,0.9-1.1c0.5,0,0.9,0.5,0.9,1.1S214.1,17.6,213.6,17.6z M215.5,14.5c-0.5,0-0.9-0.5-0.9-1.1
			c0-0.6,0.4-1.1,0.9-1.1c0.5,0,0.9,0.5,0.9,1.1C216.4,14,216,14.5,215.5,14.5z M217.2,17.6c-0.5,0-0.9-0.5-0.9-1.1s0.4-1.1,0.9-1.1
			s0.9,0.5,0.9,1.1S217.7,17.6,217.2,17.6z M219,14.5c-0.5,0-0.9-0.5-0.9-1.1c0-0.6,0.4-1.1,0.9-1.1c0.5,0,0.9,0.5,0.9,1.1
			C220,14,219.6,14.5,219,14.5z"/>
		<path class="st6" d="M298.4,6.5c-3.8,0-6.8,3.2-6.8,7.1c0,3.9,3,7.1,6.8,7.1c3.8,0,6.8-3.2,6.8-7.1C305.2,9.7,302.1,6.5,298.4,6.5
			z M300.2,9.4c0.5,0,0.9,0.5,0.9,1.1c0,0.6-0.4,1.1-0.9,1.1c-0.5,0-0.9-0.5-0.9-1.1C299.2,9.9,299.7,9.4,300.2,9.4z M296.5,9.4
			c0.5,0,0.9,0.5,0.9,1.1c0,0.6-0.4,1.1-0.9,1.1s-0.9-0.5-0.9-1.1C295.5,9.9,295.9,9.4,296.5,9.4z M294.6,14.6
			c-0.5,0-0.9-0.5-0.9-1.1c0-0.6,0.4-1.1,0.9-1.1s0.9,0.5,0.9,1.1C295.6,14.1,295.2,14.6,294.6,14.6z M296.4,17.8
			c-0.5,0-0.9-0.5-0.9-1.1s0.4-1.1,0.9-1.1s0.9,0.5,0.9,1.1S296.9,17.8,296.4,17.8z M298.4,14.6c-0.5,0-0.9-0.5-0.9-1.1
			c0-0.6,0.4-1.1,0.9-1.1c0.5,0,0.9,0.5,0.9,1.1C299.3,14.1,298.9,14.6,298.4,14.6z M300,17.7c-0.5,0-0.9-0.5-0.9-1.1
			s0.4-1.1,0.9-1.1s0.9,0.5,0.9,1.1S300.5,17.7,300,17.7z M301.9,14.6c-0.5,0-0.9-0.5-0.9-1.1c0-0.6,0.4-1.1,0.9-1.1
			c0.5,0,0.9,0.5,0.9,1.1C302.8,14.1,302.4,14.6,301.9,14.6z"/>
		<path class="st6" d="M325.5,6.4c-3.8,0-6.8,3.2-6.8,7.1c0,3.9,3,7.1,6.8,7.1c3.8,0,6.8-3.2,6.8-7.1C332.3,9.6,329.2,6.4,325.5,6.4
			z M327.3,9.4c0.5,0,0.9,0.5,0.9,1.1c0,0.6-0.4,1.1-0.9,1.1s-0.9-0.5-0.9-1.1C326.3,9.8,326.8,9.4,327.3,9.4z M323.6,9.4
			c0.5,0,0.9,0.5,0.9,1.1c0,0.6-0.4,1.1-0.9,1.1s-0.9-0.5-0.9-1.1C322.6,9.8,323,9.4,323.6,9.4z M321.7,14.5c-0.5,0-0.9-0.5-0.9-1.1
			c0-0.6,0.4-1.1,0.9-1.1s0.9,0.5,0.9,1.1C322.7,14,322.3,14.5,321.7,14.5z M323.5,17.7c-0.5,0-0.9-0.5-0.9-1.1s0.4-1.1,0.9-1.1
			s0.9,0.5,0.9,1.1S324,17.7,323.5,17.7z M325.5,14.6c-0.5,0-0.9-0.5-0.9-1.1c0-0.6,0.4-1.1,0.9-1.1s0.9,0.5,0.9,1.1
			C326.4,14.1,326,14.6,325.5,14.6z M327.1,17.6c-0.5,0-0.9-0.5-0.9-1.1s0.4-1.1,0.9-1.1s0.9,0.5,0.9,1.1S327.6,17.6,327.1,17.6z
			 M329,14.6c-0.5,0-0.9-0.5-0.9-1.1c0-0.6,0.4-1.1,0.9-1.1c0.5,0,0.9,0.5,0.9,1.1C329.9,14.1,329.5,14.6,329,14.6z"/>
		<path class="st11" d="M168.2,80.5c4.7-0.5,8.3-4.6,8.3-9.5c0-5.3-4.1-9.6-9.3-9.6c-0.1,0-0.2,0-0.3,0l5.8-1.1
			c0.4-0.1,0.9-0.1,1.3-0.1c5.4,0,9.8,4.5,9.8,10.1c0,5.5-4.2,9.9-9.4,10.1L168.2,80.5z"/>
		<ellipse class="st11" cx="335.6" cy="71.4" rx="10.3" ry="10.5"/>
		<ellipse class="st16" cx="167.3" cy="71" rx="9.3" ry="9.6"/>
		<path class="st6" d="M168.4,64c-3.8,0-6.8,3.2-6.8,7.1c0,3.9,3,7.1,6.8,7.1s6.8-3.2,6.8-7.1C175.2,67.2,172.2,64,168.4,64z
			 M170.7,67.7c0.5,0,0.9,0.5,0.9,1c0,0.6-0.4,1-0.9,1c-0.5,0-0.9-0.5-0.9-1C169.8,68.2,170.2,67.7,170.7,67.7z M163.8,71.3
			c0-0.6,0.4-1,0.9-1c0.5,0,0.9,0.5,0.9,1c0,0.6-0.4,1-0.9,1C164.2,72.3,163.8,71.8,163.8,71.3z M165.7,74.7c-0.5,0-0.9-0.5-0.9-1
			c0-0.6,0.4-1,0.9-1c0.5,0,0.9,0.5,0.9,1C166.5,74.2,166.1,74.7,165.7,74.7z M165.8,69.6c-0.5,0-0.9-0.5-0.9-1c0-0.6,0.4-1,0.9-1
			c0.5,0,0.9,0.5,0.9,1C166.7,69.2,166.3,69.6,165.8,69.6z M168.2,66.7c0.5,0,0.9,0.5,0.9,1c0,0.6-0.4,1-0.9,1c-0.5,0-0.9-0.5-0.9-1
			C167.3,67.1,167.7,66.7,168.2,66.7z M168.2,70.2c0.5,0,0.9,0.5,0.9,1c0,0.6-0.4,1-0.9,1c-0.5,0-0.9-0.5-0.9-1
			C167.4,70.7,167.8,70.2,168.2,70.2z M168.3,75.7c-0.5,0-0.9-0.5-0.9-1c0-0.6,0.4-1,0.9-1c0.5,0,0.9,0.5,0.9,1
			C169.1,75.3,168.8,75.7,168.3,75.7z M170.7,74.8c-0.5,0-0.9-0.5-0.9-1c0-0.6,0.4-1,0.9-1c0.5,0,0.9,0.5,0.9,1
			C171.5,74.3,171.2,74.8,170.7,74.8z M171.9,72.3c-0.5,0-0.9-0.5-0.9-1c0-0.6,0.4-1,0.9-1c0.5,0,0.9,0.5,0.9,1
			C172.7,71.8,172.4,72.3,171.9,72.3z"/>
		<path class="st1" d="M434.4,47.6H172.5c-0.5,0-1-0.4-1-1v-2.9c0-0.5,0.4-1,1-1h261.9c0.5,0,1,0.4,1,1v2.9
			C435.4,47.2,434.9,47.6,434.4,47.6z"/>
		<polygon class="st31" points="207.9,90.4 206.7,87.7 206.8,78.7 201.7,73.6 196.1,73.6 195.3,73.1 195.3,58.5 196,58 200.3,58 
			201,57.4 201,47.6 201.6,46.8 201.6,45.2 202.6,44.9 431.3,44.9 433.2,47.6 433.2,57.5 432.3,58.4 427.9,58.4 427.3,59.1 
			427.3,73.1 428.7,73.7 434,73.7 438.9,78.9 438.9,87.7 437.5,90.4 		"/>
		<polyline class="st31" points="324.2,90.5 323,87.7 323.2,78.8 318,73.7 312.4,73.7 311.6,73.2 311.6,58.6 312.3,58.1 316.6,58.1 
			317.3,57.4 317.3,47.7 317.9,46.9 317.9,45.3 318.9,45 		"/>
		<circle class="st6" cx="316.7" cy="65.9" r="3.4"/>
		<path class="st13" d="M204.8,61.4c-1-0.8-2.2-1.3-3.6-1.3c-3.2,0-5.7,2.6-5.7,5.7c0,3.2,2.6,5.7,5.7,5.7c0.3,0,0.7,0,1-0.1l0.3,0
			c0.3,0,0.5-0.1,0.7-0.1c1.9,0,3.5,1.2,4.2,2.8l0.2,0.5c1.6,5.4,6.5,9.3,12.3,9.3c3,0,5.7-1,7.9-2.7l0.4-0.3
			c1.5-0.9,3.2-1.4,5.1-1.4c1.8,0,3.3,0.4,4.7,1.3l0.5,0.3c2.2,1.8,5,2.8,8,2.8c3.1,0,6-1.1,8.2-3l0.3-0.2c1.3-0.9,2.8-1.5,4.4-1.5
			c1.5,0,3,0.5,4.3,1.3l0.1,0.1c2.2,1.8,5,2.9,8,2.9c3.1,0,6-1.1,8.2-3l0.3-0.2c1.4-0.9,2.9-1.4,4.7-1.4c1.6,0,3.1,0.5,4.4,1.3
			l0.4,0.3c2.3,2.1,5.3,3.4,8.6,3.4c7.1,0,12.8-5.8,12.8-13s-5.7-13-12.8-13c-2.8,0-5.4,0.9-7.5,2.5l-0.3,0.2
			c-1.6,0.9-3.3,1.4-5.3,1.4c-1.8,0-3.4-0.4-4.9-1.2l-0.4-0.3c-2.2-1.9-5.1-3-8.2-3c-2.7,0-5.3,0.9-7.4,2.4l-0.4,0.3
			c-1.6,0.9-3.2,1.4-5.2,1.4c-1.8,0-3.4-0.4-4.9-1.2l-0.4-0.2c-2-1.4-4.5-2.2-7.1-2.2c-2.8,0-5.4,0.9-7.5,2.5l-0.3,0.2
			c-1.6,0.9-3.4,1.5-5.5,1.5c-1.9,0-3.5-0.4-5.1-1.2l-0.4-0.3c-2.2-1.7-4.9-2.7-7.8-2.7c-3.4,0-6.4,1.3-8.7,3.5l-0.3,0.2
			c-0.8,0.6-1.9,1-3,1c-1.1,0-2.2-0.4-3-1L204.8,61.4z"/>
		<circle class="st6" cx="199.4" cy="65.9" r="3.4"/>
		<ellipse class="st11" cx="298.6" cy="71.1" rx="11" ry="11.1"/>
		<path class="st11" d="M242.4,81.9c5,0,9.1-4.2,9.1-9.4s-4.1-9.4-9.1-9.4c-2.1,0-4,0.7-5.5,1.9l1.3-1.5c1.9-2.1,4.7-3.4,7.7-3.4
			c5.9,0,10.6,4.9,10.6,11s-4.8,11-10.6,11L242.4,81.9z"/>
		<ellipse class="st11" cx="271.9" cy="71.4" rx="10.3" ry="10.5"/>
		<ellipse class="st11" cx="219.1" cy="71.6" rx="10.3" ry="10.5"/>
		<ellipse class="st16" cx="298.2" cy="72.5" rx="8.9" ry="9.1"/>
		<ellipse class="st16" cx="242.4" cy="72.5" rx="9.1" ry="9.4"/>
		<path class="st6" d="M243.1,65.4c-3.8,0-6.8,3.2-6.8,7.1c0,3.9,3,7.1,6.8,7.1s6.8-3.2,6.8-7.1C249.8,68.6,246.8,65.4,243.1,65.4z
			 M245.3,69.1c0.5,0,0.9,0.5,0.9,1c0,0.6-0.4,1-0.9,1c-0.5,0-0.9-0.5-0.9-1C244.5,69.6,244.8,69.1,245.3,69.1z M238.5,72.7
			c0-0.6,0.4-1,0.9-1s0.9,0.5,0.9,1c0,0.6-0.4,1-0.9,1S238.5,73.3,238.5,72.7z M240.3,76.1c-0.5,0-0.9-0.5-0.9-1c0-0.6,0.4-1,0.9-1
			c0.5,0,0.9,0.5,0.9,1C241.2,75.6,240.8,76.1,240.3,76.1z M240.4,71.1c-0.5,0-0.9-0.5-0.9-1c0-0.6,0.4-1,0.9-1c0.5,0,0.9,0.5,0.9,1
			C241.3,70.6,240.9,71.1,240.4,71.1z M242.8,68.1c0.5,0,0.9,0.5,0.9,1c0,0.6-0.4,1-0.9,1c-0.5,0-0.9-0.5-0.9-1
			C242,68.6,242.3,68.1,242.8,68.1z M242.9,71.7c0.5,0,0.9,0.5,0.9,1c0,0.6-0.4,1-0.9,1s-0.9-0.5-0.9-1
			C242,72.1,242.4,71.7,242.9,71.7z M242.9,77.2c-0.5,0-0.9-0.5-0.9-1c0-0.6,0.4-1,0.9-1c0.5,0,0.9,0.5,0.9,1
			C243.8,76.7,243.4,77.2,242.9,77.2z M245.3,76.2c-0.5,0-0.9-0.5-0.9-1c0-0.6,0.4-1,0.9-1c0.5,0,0.9,0.5,0.9,1
			C246.2,75.8,245.8,76.2,245.3,76.2z M246.5,73.7c-0.5,0-0.9-0.5-0.9-1c0-0.6,0.4-1,0.9-1c0.5,0,0.9,0.5,0.9,1
			C247.4,73.3,247,73.7,246.5,73.7z"/>
		<path class="st6" d="M298.3,65.3c-3.8,0-6.8,3.2-6.8,7.1c0,3.9,3,7.1,6.8,7.1c3.8,0,6.8-3.2,6.8-7.1
			C305.1,68.5,302.1,65.3,298.3,65.3z M300.6,69c0.5,0,0.9,0.5,0.9,1c0,0.6-0.4,1-0.9,1c-0.5,0-0.9-0.5-0.9-1
			C299.7,69.5,300.1,69,300.6,69z M293.7,72.6c0-0.6,0.4-1,0.9-1s0.9,0.5,0.9,1c0,0.6-0.4,1-0.9,1S293.7,73.2,293.7,72.6z M295.6,76
			c-0.5,0-0.9-0.5-0.9-1c0-0.6,0.4-1,0.9-1c0.5,0,0.9,0.5,0.9,1C296.4,75.5,296,76,295.6,76z M295.7,71c-0.5,0-0.9-0.5-0.9-1
			c0-0.6,0.4-1,0.9-1c0.5,0,0.9,0.5,0.9,1C296.6,70.5,296.2,71,295.7,71z M298.1,68c0.5,0,0.9,0.5,0.9,1c0,0.6-0.4,1-0.9,1
			c-0.5,0-0.9-0.5-0.9-1C297.2,68.5,297.6,68,298.1,68z M298.1,71.6c0.5,0,0.9,0.5,0.9,1c0,0.6-0.4,1-0.9,1s-0.9-0.5-0.9-1
			C297.3,72,297.7,71.6,298.1,71.6z M298.2,77c-0.5,0-0.9-0.5-0.9-1c0-0.6,0.4-1,0.9-1c0.5,0,0.9,0.5,0.9,1
			C299,76.6,298.7,77,298.2,77z M300.6,76.1c-0.5,0-0.9-0.5-0.9-1c0-0.6,0.4-1,0.9-1c0.5,0,0.9,0.5,0.9,1
			C301.4,75.7,301.1,76.1,300.6,76.1z M301.8,73.6c-0.5,0-0.9-0.5-0.9-1c0-0.6,0.4-1,0.9-1c0.5,0,0.9,0.5,0.9,1
			C302.6,73.2,302.3,73.6,301.8,73.6z"/>
	</g>
	<use xlink:href="#SVGID_15_"  style="overflow:visible;fill:none;stroke:#5E5F5F;stroke-width:0.75;stroke-miterlimit:10;"/>
</g>
</svg>
